<?xml version="1.0" standalone="no"?>
<svg width="1280" height="1024" viewBox="-1737 -1628 4002 4660" xmlns="http://www.w3.org/2000/svg">
  <title>AV.WAD - MAP07</title>
  <g>
    <!-- Sector type 0 -->
    <g stroke="black" fill="white" opacity="1.000000" stroke-width="1">
    <path d=" M -576 608 L -704,608 L -704,592 L -736,592 L -736,624 L -720,624 L -720,752 L -736,752 L -736,784 L -704,784 L -704,768 L -576,768 L -576,784 L -544,784 L -520,800 L -540,844 L -579,869 L -668,903 L -736,928 L -812,797 L -838,647 L -803,525 L -840,448 L -904,412 L -960,400 L -1004,368 L -1036,348 L -1120,320 L -1136,272 L -1120,208 L -1080,208 L -1032,208 L -992,208 L -992,96 L -544,96 L -544,592 L -576,592 L -576,608 M -1120 -336 L -1104,-416 L -1024,-448 L -944,-464 L -808,-520 L -784,-592 L -792,-688 L -800,-832 L -796,-920 L -784,-1028 L -756,-1156 L -700,-1220 L -632,-1264 L -528,-1280 L -480,-1264 L -408,-1248 L -307,-1231 L -188,-1240 L -192,-1216 L -144,-1208 L -92,-1204 L -52,-1200 L -12,-1196 L 36,-1196 L 76,-1204 L 120,-1216 L 168,-1224 L 160,-1244 L 200,-1248 L 208,-1248 L 208,-976 L 192,-976 L 128,-976 L 112,-976 L 96,-960 L 96,-904 L -16,-904 L -16,-928 L -80,-928 L -80,-904 L -192,-904 L -192,-928 L -256,-928 L -256,-904 L -368,-904 L -368,-928 L -432,-928 L -432,-904 L -528,-904 L -528,-896 L -544,-880 L -576,-880 L -576,-864 L -704,-864 L -704,-880 L -736,-880 L -736,-848 L -720,-848 L -720,-720 L -736,-720 L -736,-688 L -704,-688 L -704,-704 L -576,-704 L -576,-688 L -544,-688 L -544,-224 L -992,-224 L -992,-336 L -1032,-336 L -1080,-336 L -1120,-336 M 1140 624 L 1140,752 L 1124,752 L 1124,624 L 1140,624 M 1008 -904 L 1008,-928 L 944,-928 L 944,-904 L 832,-904 L 832,-928 L 768,-928 L 768,-904 L 656,-904 L 656,-928 L 592,-928 L 592,-904 L 480,-904 L 480,-960 L 464,-976 L 448,-976 L 384,-976 L 368,-976 L 368,-1248 L 376,-1248 L 420,-1244 L 428,-1216 L 464,-1216 L 516,-1212 L 560,-1208 L 600,-1208 L 640,-1208 L 684,-1212 L 736,-1224 L 768,-1232 L 772,-1264 L 1029,-1312 L 1158,-1288 L 1280,-1248 L 1317,-1205 L 1376,-1072 L 1392,-960 L 1472,-440 L 1568,-392 L 1656,-352 L 1696,-272 L 1656,-272 L 1608,-272 L 1568,-272 L 1568,-160 L 1120,-160 L 1120,-688 L 1152,-688 L 1152,-704 L 1280,-704 L 1280,-688 L 1312,-688 L 1312,-720 L 1296,-720 L 1296,-848 L 1312,-848 L 1312,-880 L 1280,-880 L 1280,-864 L 1152,-864 L 1152,-880 L 1120,-880 L 1104,-896 L 1104,-904 L 1008,-904 M 1568 160 L 1120,160 L 1120,592 L 1156,592 L 1156,608 L 1284,608 L 1284,592 L 1316,592 L 1316,624 L 1300,624 L 1300,752 L 1316,752 L 1316,784 L 1284,784 L 1284,768 L 1156,768 L 1156,784 L 1124,784 L 1088,800 L 1115,828 L 1186,849 L 1245,864 L 1316,871 L 1367,868 L 1405,853 L 1440,800 L 1520,536 L 1552,456 L 1672,376 L 1696,272 L 1656,272 L 1608,272 L 1568,272 L 1568,160 M 1216 576 L 1216,512 L 1152,512 L 1152,576 L 1216,576 M -576 512 L -640,512 L -640,576 L -576,576 L -576,512 M -560 752 L -560,624 L -544,624 L -544,752 L -560,752 M 1120 -720 L 1120,-848 L 1136,-848 L 1136,-720 L 1120,-720 M -544 -720 L -560,-720 L -560,-848 L -544,-848 L -544,-720" stroke="black" fill-rule="evenodd" stroke-width="1"/>
    <!-- Type 97 -->
    <path d="M -576 512 L -640 512" stroke="red" stroke-width="3" />    <!-- Type 97 -->
    <path d="M -576 576 L -576 512" stroke="red" stroke-width="3" />    <!-- Type 97 -->
    <path d="M -640 576 L -576 576" stroke="red" stroke-width="3" />    <!-- Type 97 -->
    <path d="M -640 512 L -640 576" stroke="red" stroke-width="3" />    <!-- Type 97 -->
    <path d="M 1152 576 L 1216 576" stroke="red" stroke-width="3" />    <!-- Type 97 -->
    <path d="M 1152 512 L 1152 576" stroke="red" stroke-width="3" />    <!-- Type 97 -->
    <path d="M 1216 512 L 1152 512" stroke="red" stroke-width="3" />    <!-- Type 97 -->
    <path d="M 1216 576 L 1216 512" stroke="red" stroke-width="3" />    </g>
    <!-- Sector type 8 -->
    <g stroke="black" fill="white" opacity="1.000000" stroke-width="1">
    <path d=" M -640 576 L -576,576 L -576,512 L -640,512 L -640,576 M 1152 576 L 1216,576 L 1216,512 L 1152,512 L 1152,576" stroke="black" fill-rule="evenodd" stroke-width="1"/>
    <!-- Type 97 -->
    <path d="M -576 512 L -640 512" stroke="red" stroke-width="3" />    <!-- Type 97 -->
    <path d="M -576 576 L -576 512" stroke="red" stroke-width="3" />    <!-- Type 97 -->
    <path d="M -640 576 L -576 576" stroke="red" stroke-width="3" />    <!-- Type 97 -->
    <path d="M -640 512 L -640 576" stroke="red" stroke-width="3" />    <!-- Type 97 -->
    <path d="M 1152 576 L 1216 576" stroke="red" stroke-width="3" />    <!-- Type 97 -->
    <path d="M 1152 512 L 1152 576" stroke="red" stroke-width="3" />    <!-- Type 97 -->
    <path d="M 1216 512 L 1152 512" stroke="red" stroke-width="3" />    <!-- Type 97 -->
    <path d="M 1216 576 L 1216 512" stroke="red" stroke-width="3" />    </g>
    <!-- Sector type 0 -->
    <g stroke="black" fill="white" opacity="1.000000" stroke-width="1">
    <path d=" M 420 -1244 L 468,-1240 L 464,-1216 L 428,-1216 L 420,-1244 M 160 -1244 L 168,-1224 L 120,-1216 L 120,-1240 L 160,-1244" stroke="black" fill-rule="evenodd" stroke-width="1"/>
    </g>
    <!-- Sector type 0 -->
    <g stroke="black" fill="white" opacity="1.000000" stroke-width="1">
    <path d=" M 516 -1236 L 468,-1240 L 464,-1216 L 516,-1212 L 516,-1236 M 68 -1228 L 76,-1204 L 120,-1216 L 120,-1240 L 68,-1228" stroke="black" fill-rule="evenodd" stroke-width="1"/>
    </g>
    <!-- Sector type 0 -->
    <g stroke="black" fill="white" opacity="1.000000" stroke-width="1">
    <path d=" M 560 -1208 L 556,-1232 L 516,-1236 L 516,-1212 L 560,-1208 M 36 -1196 L 76,-1204 L 68,-1228 L 32,-1220 L 36,-1196" stroke="black" fill-rule="evenodd" stroke-width="1"/>
    </g>
    <!-- Sector type 0 -->
    <g stroke="black" fill="white" opacity="1.000000" stroke-width="1">
    <path d=" M 600 -1208 L 560,-1208 L 556,-1232 L 596,-1232 L 600,-1208 M 32 -1220 L 36,-1196 L -12,-1196 L -12,-1220 L 32,-1220" stroke="black" fill-rule="evenodd" stroke-width="1"/>
    </g>
    <!-- Sector type 0 -->
    <g stroke="black" fill="white" opacity="1.000000" stroke-width="1">
    <path d=" M 640 -1208 L 636,-1232 L 596,-1232 L 600,-1208 L 640,-1208 M -52 -1200 L -12,-1196 L -12,-1220 L -52,-1224 L -52,-1200" stroke="black" fill-rule="evenodd" stroke-width="1"/>
    </g>
    <!-- Sector type 0 -->
    <g stroke="black" fill="white" opacity="1.000000" stroke-width="1">
    <path d=" M 636 -1232 L 640,-1208 L 684,-1212 L 680,-1236 L 636,-1232 M -92 -1204 L -52,-1200 L -52,-1224 L -96,-1228 L -92,-1204" stroke="black" fill-rule="evenodd" stroke-width="1"/>
    </g>
    <!-- Sector type 0 -->
    <g stroke="black" fill="white" opacity="1.000000" stroke-width="1">
    <path d=" M -776 48 L -704,48 L -648,48 L -576,48 L -544,48 L -544,96 L -992,96 L -992,48 L -904,48 L -832,48 L -776,48 M 1568 112 L 1568,160 L 1120,160 L 1120,112 L 1152,112 L 1224,112 L 1280,112 L 1352,112 L 1408,112 L 1480,112 L 1568,112 M -904 -176 L -992,-176 L -992,-224 L -544,-224 L -544,-176 L -576,-176 L -648,-176 L -704,-176 L -776,-176 L -832,-176 L -904,-176 M 1120 -160 L 1568,-160 L 1568,-112 L 1480,-112 L 1408,-112 L 1352,-112 L 1280,-112 L 1224,-112 L 1152,-112 L 1120,-112 L 1120,-160" stroke="black" fill-rule="evenodd" stroke-width="1"/>
    </g>
    <!-- Sector type 0 -->
    <g stroke="black" fill="white" opacity="1.000000" stroke-width="1">
    <path d=" M 592 -896 L 480,-896 L 480,-904 L 592,-904 L 592,-896 M 96 -896 L -16,-896 L -16,-904 L 96,-904 L 96,-896 M 1104 -896 L 1008,-896 L 1008,-904 L 1104,-904 L 1104,-896 M 768 -904 L 768,-896 L 736,-896 L 688,-896 L 656,-896 L 656,-904 L 768,-904 M -112 -896 L -160,-896 L -192,-896 L -192,-904 L -80,-904 L -80,-896 L -112,-896 M -256 -904 L -256,-896 L -288,-896 L -336,-896 L -368,-896 L -368,-904 L -256,-904 M -432 -904 L -432,-896 L -528,-896 L -528,-904 L -432,-904 M 864 -896 L 832,-896 L 832,-904 L 944,-904 L 944,-896 L 912,-896 L 864,-896" stroke="black" fill-rule="evenodd" stroke-width="1"/>
    </g>
    <!-- Sector type 0 -->
    <g stroke="black" fill="white" opacity="1.000000" stroke-width="1">
    <path d=" M 732 -1252 L 680,-1236 L 684,-1212 L 736,-1224 L 732,-1252 M -92 -1204 L -96,-1228 L -148,-1232 L -144,-1208 L -92,-1204" stroke="black" fill-rule="evenodd" stroke-width="1"/>
    </g>
    <!-- Sector type 8 -->
    <g stroke="black" fill="white" opacity="1.000000" stroke-width="1">
    <path d=" M 0 1648 L 64,1648 L 64,1680 L 0,1680 L 0,1648" stroke="black" fill-rule="evenodd" stroke-width="1"/>
    <!-- Type 11 -->
    <path d="M 0 1648 L 64 1648" stroke="purple" stroke-width="3" />    </g>
    <!-- Sector type 0 -->
    <g stroke="black" fill="white" opacity="1.000000" stroke-width="1">
    <path d=" M 296 2640 L 256,2680 L 240,2720 L 112,2856 L 0,2888 L -120,2768 L -200,2728 L -216,2616 L -8,2656 L 128,2624 L 160,2632 L 256,2560 L 320,2576 L 296,2640" stroke="black" fill-rule="evenodd" stroke-width="1"/>
    </g>
    <!-- Sector type 0 -->
    <g stroke="black" fill="white" opacity="1.000000" stroke-width="1">
    <path d=" M -128 -448 L 32,-448 L 32,-288 L -128,-288 L -128,-448 M 416 96 L 160,96 L 160,-160 L 416,-160 L 416,96 M 80 -560 L 96,-576 L 96,-640 L 128,-640 L 192,-640 L 208,-640 L 224,-656 L 224,-688 L 352,-688 L 352,-656 L 368,-640 L 384,-640 L 448,-640 L 480,-640 L 480,-576 L 496,-560 L 800,-560 L 816,-544 L 816,480 L 800,496 L -224,496 L -240,496 L -240,-544 L -224,-560 L 80,-560 M -128 224 L 32,224 L 32,384 L -128,384 L -128,224 M 544 384 L 544,224 L 704,224 L 704,384 L 544,384 M 704 -448 L 704,-288 L 544,-288 L 544,-448 L 704,-448" stroke="black" fill-rule="evenodd" stroke-width="1"/>
    </g>
    <!-- Sector type 0 -->
    <g stroke="black" fill="white" opacity="1.000000" stroke-width="1">
    <path d=" M 688 1664 L 688,1600 L 672,1600 L 672,1664 L 688,1664" stroke="black" fill-rule="evenodd" stroke-width="1"/>
    </g>
    <!-- Sector type 0 -->
    <g stroke="black" fill="white" opacity="1.000000" stroke-width="1">
    <path d=" M -120 2768 L -200,2728 L -216,2616 L -8,2656 L 128,2624 L 160,2632 L 256,2560 L 320,2576 L 320,2544 L 368,2440 L 480,2192 L 472,2168 L 576,2032 L 624,2032 L 656,2112 L 768,2080 L 928,1936 L 960,1824 L 956,1736 L 960,1680 L 952,1576 L 920,1488 L 880,1424 L 464,1408 L 340,1496 L 256,1516 L 40,1584 L -80,1688 L -400,1856 L -432,2128 L -400,2576 L -352,2576 L -336,2624 L -352,2656 L -368,2704 L -352,2768 L -368,2800 L -384,2816 L -400,2800 L -408,2872 L -400,2952 L -216,3032 L 144,2952 L 320,2688 L 320,2576 L 296,2640 L 256,2680 L 240,2720 L 112,2856 L 0,2888 L -120,2768 M 672 1664 L 672,1600 L 656,1584 L 672,1568 L 672,1520 L 688,1520 L 832,1520 L 832,1744 L 720,1744 L 688,1712 L 672,1680 L 672,1664 M 224 2192 L 208,2152 L 224,2112 L 272,2096 L 312,2112 L 328,2152 L 312,2192 L 272,2216 L 224,2192 M 752 1824 L 832,1776 L 816,1808 L 784,1840 L 752,1824 M 640 1568 L 576,1568 L 512,1504 L 560,1504 L 640,1568 M -176 2032 L -192,2144 L -256,2224 L -240,2096 L -176,2032 M -80 2096 L -32,2080 L 64,2112 L 0,2144 L -80,2096 M -256 2000 L -320,1968 L -128,1968 L -128,2176 L -144,2176 L -144,2000 L -256,2000 M -288 2016 L -288,2288 L -224,2288 L -176,2240 L -160,2256 L -208,2304 L -320,2320 L -320,2016 L -288,2016 M 160 1936 L 128,1904 L 48,1888 L 176,1840 L 160,1936 M 48 1808 L 112,1744 L 128,1776 L 112,1840 L 48,1808 M 16 1984 L 192,1984 L 192,1904 L 224,1904 L 224,2016 L 16,2016 L -16,2016 L -16,1760 L 16,1760 L 16,1984 M 76 1628 L -8,1628 L -8,1680 L -8,1696 L 76,1696 L 76,1680 L 76,1668 L 76,1636 L 76,1628 M 192 1696 L 224,1744 L 224,1824 L 192,1824 L 192,1760 L 176,1728 L 96,1680 L 112,1648 L 192,1696 M 184 1592 L 272,1664 L 296,1760 L 176,1648 L 184,1592" stroke="black" fill-rule="evenodd" stroke-width="1"/>
    <!-- Type 52 -->
    <path d="M 340 1496 L 256 1516" stroke="purple" stroke-width="3" />    </g>
    <!-- Sector type 0 -->
    <g stroke="black" fill="white" opacity="1.000000" stroke-width="1">
    <path d=" M 688 1568 L 688,1600 L 688,1664 L 688,1680 L 720,1728 L 816,1728 L 816,1536 L 688,1536 L 688,1568" stroke="black" fill-rule="evenodd" stroke-width="1"/>
    </g>
    <!-- Sector type 0 -->
    <g stroke="black" fill="white" opacity="1.000000" stroke-width="1">
    <path d=" M -368 2704 L -352,2656 L -336,2624 L -352,2576 L -400,2576 L -408,2688 L -400,2800 L -384,2816 L -368,2800 L -352,2768 L -368,2704" stroke="black" fill-rule="evenodd" stroke-width="1"/>
    </g>
    <!-- Sector type 0 -->
    <g stroke="black" fill="white" opacity="1.000000" stroke-width="1">
    <path d=" M 576 2032 L 624,2032 L 656,2112 L 480,2192 L 472,2168 L 576,2032" stroke="black" fill-rule="evenodd" stroke-width="1"/>
    </g>
    <!-- Sector type 8 -->
    <g stroke="black" fill="white" opacity="1.000000" stroke-width="1">
    <path d=" M -8 1680 L 0,1680 L 64,1680 L 76,1680 L 76,1696 L -8,1696 L -8,1680" stroke="black" fill-rule="evenodd" stroke-width="1"/>
    </g>
    <!-- Sector type 0 -->
    <g stroke="black" fill="white" opacity="1.000000" stroke-width="1">
    <path d=" M 312 2152 L 296,2184 L 272,2200 L 240,2184 L 224,2152 L 240,2120 L 272,2112 L 296,2120 L 312,2152" stroke="black" fill-rule="evenodd" stroke-width="1"/>
    </g>
    <!-- Sector type 0 -->
    <g stroke="black" fill="white" opacity="1.000000" stroke-width="1">
    <path d=" M 112 1744 L 128,1776 L 112,1840 L 48,1808 L 112,1744" stroke="black" fill-rule="evenodd" stroke-width="1"/>
    </g>
    <!-- Sector type 0 -->
    <g stroke="black" fill="white" opacity="1.000000" stroke-width="1">
    <path d=" M 176 1648 L 184,1592 L 272,1664 L 296,1760 L 176,1648" stroke="black" fill-rule="evenodd" stroke-width="1"/>
    </g>
    <!-- Sector type 0 -->
    <g stroke="black" fill="white" opacity="1.000000" stroke-width="1">
    <path d=" M 344 -1248 L 352,-1248 L 352,-960 L 352,-896 L 224,-896 L 224,-960 L 224,-1248 L 232,-1248 L 344,-1248" stroke="black" fill-rule="evenodd" stroke-width="1"/>
    </g>
    <!-- Sector type 0 -->
    <g stroke="black" fill="white" opacity="1.000000" stroke-width="1">
    <path d=" M 192 -128 L 384,-128 L 384,64 L 192,64 L 192,-128 M 416 96 L 160,96 L 160,-160 L 416,-160 L 416,96" stroke="black" fill-rule="evenodd" stroke-width="1"/>
    </g>
    <!-- Sector type 0 -->
    <g stroke="black" fill="white" opacity="1.000000" stroke-width="1">
    <path d=" M 768 -1232 L 736,-1224 L 732,-1252 L 772,-1264 L 768,-1232 M -192 -1216 L -144,-1208 L -148,-1232 L -188,-1240 L -192,-1216" stroke="black" fill-rule="evenodd" stroke-width="1"/>
    </g>
    <!-- Sector type 0 -->
    <g stroke="black" fill="white" opacity="1.000000" stroke-width="1">
    <path d=" M -1076 412 L -1172,452 L -1256,488 L -1200,564 L -1104,516 L -1012,484 L -904,412 L -960,400 L -1004,368 L -1076,412" stroke="black" fill-rule="evenodd" stroke-width="1"/>
    </g>
    <!-- Sector type 0 -->
    <g stroke="black" fill="white" opacity="1.000000" stroke-width="1">
    <path d=" M 48 1888 L 176,1840 L 160,1936 L 128,1904 L 48,1888" stroke="black" fill-rule="evenodd" stroke-width="1"/>
    </g>
    <!-- Sector type 0 -->
    <g stroke="black" fill="white" opacity="1.000000" stroke-width="1">
    <path d=" M -240 2096 L -176,2032 L -192,2144 L -256,2224 L -240,2096" stroke="black" fill-rule="evenodd" stroke-width="1"/>
    </g>
    <!-- Sector type 0 -->
    <g stroke="black" fill="white" opacity="1.000000" stroke-width="1">
    <path d=" M -80 2096 L -32,2080 L 64,2112 L 0,2144 L -80,2096" stroke="black" fill-rule="evenodd" stroke-width="1"/>
    </g>
    <!-- Sector type 0 -->
    <g stroke="black" fill="white" opacity="1.000000" stroke-width="1">
    <path d=" M 512 1504 L 560,1504 L 640,1568 L 576,1568 L 512,1504" stroke="black" fill-rule="evenodd" stroke-width="1"/>
    </g>
    <!-- Sector type 0 -->
    <g stroke="black" fill="white" opacity="1.000000" stroke-width="1">
    <path d=" M 832 1776 L 816,1808 L 784,1840 L 752,1824 L 832,1776" stroke="black" fill-rule="evenodd" stroke-width="1"/>
    </g>
    <!-- Sector type 0 -->
    <g stroke="black" fill="white" opacity="1.000000" stroke-width="1">
    <path d=" M 352 -848 L 224,-848 L 224,-896 L 352,-896 L 352,-848" stroke="black" fill-rule="evenodd" stroke-width="1"/>
    <!-- Type 23 -->
    <path d="M 352 -848 L 224 -848" stroke="orange" stroke-width="3" />    </g>
    <!-- Sector type 9 -->
    <g stroke="aqua" fill="aqua" opacity="1.000000" stroke-width="1">
    <path d=" M 224 -688 L 224,-736 L 352,-736 L 352,-688 L 224,-688" stroke="aqua" fill-rule="evenodd" stroke-width="1"/>
    </g>
    <!-- Sector type 0 -->
    <g stroke="black" fill="white" opacity="1.000000" stroke-width="1">
    <path d=" M 2048 152 L 2032,152 L 2032,176 L 1984,176 L 1856,176 L 1792,176 L 1712,176 L 1696,176 L 1696,272 L 1672,376 L 1552,456 L 1520,536 L 1640,528 L 1872,368 L 2088,184 L 2120,-80 L 2088,-240 L 1832,-384 L 1560,-488 L 1512,-704 L 1464,-1024 L 1344,-1288 L 1176,-1368 L 968,-1400 L 768,-1432 L 640,-1456 L 504,-1448 L 344,-1400 L 152,-1352 L -8,-1336 L -168,-1360 L -272,-1392 L -416,-1376 L -624,-1344 L -824,-1136 L -920,-952 L -992,-640 L -1184,-536 L -1504,-280 L -1528,-168 L -1544,16 L -1504,216 L -1304,424 L -1256,488 L -1172,452 L -1076,412 L -1004,368 L -1036,348 L -1120,320 L -1136,272 L -1120,208 L -1120,112 L -1136,112 L -1216,112 L -1280,112 L -1408,112 L -1456,112 L -1456,88 L -1472,88 L -1480,80 L -1480,64 L -1472,56 L -1456,56 L -1456,32 L -1408,32 L -1408,-160 L -1456,-160 L -1456,-184 L -1472,-184 L -1480,-192 L -1480,-208 L -1472,-216 L -1456,-216 L -1456,-240 L -1408,-240 L -1280,-240 L -1216,-240 L -1136,-240 L -1120,-240 L -1120,-336 L -1104,-416 L -1024,-448 L -944,-464 L -808,-520 L -784,-592 L -792,-688 L -800,-832 L -796,-920 L -784,-1028 L -756,-1156 L -700,-1220 L -632,-1264 L -528,-1280 L -480,-1264 L -408,-1248 L -307,-1231 L -188,-1240 L -148,-1232 L -96,-1228 L -52,-1224 L -12,-1220 L 32,-1220 L 68,-1228 L 120,-1240 L 160,-1244 L 200,-1248 L 200,-1280 L 232,-1280 L 232,-1248 L 344,-1248 L 344,-1280 L 376,-1280 L 376,-1248 L 420,-1244 L 468,-1240 L 516,-1236 L 556,-1232 L 596,-1232 L 636,-1232 L 680,-1236 L 732,-1252 L 772,-1264 L 1029,-1312 L 1158,-1288 L 1280,-1248 L 1317,-1205 L 1376,-1072 L 1392,-960 L 1472,-440 L 1568,-392 L 1656,-352 L 1696,-272 L 1696,-176 L 1712,-176 L 1792,-176 L 1856,-176 L 1984,-176 L 2032,-176 L 2032,-152 L 2048,-152 L 2056,-144 L 2056,-128 L 2048,-120 L 2032,-120 L 2032,-96 L 1984,-96 L 1984,96 L 2032,96 L 2032,120 L 2048,120 L 2056,128 L 2056,144 L 2048,152 M -1200 564 L -1144,640 L -1008,744 L -736,928 L -812,797 L -838,647 L -803,525 L -840,448 L -904,412 L -1012,484 L -1104,516 L -1200,564 M -1152 192 L -1216,192 L -1216,128 L -1152,128 L -1152,192 M 1792 256 L 1728,256 L 1728,192 L 1792,192 L 1792,256" stroke="black" fill-rule="evenodd" stroke-width="1"/>
    </g>
    <!-- Sector type 0 -->
    <g stroke="black" fill="white" opacity="1.000000" stroke-width="1">
    <path d=" M 224 -96 L 352,-96 L 352,32 L 224,32 L 224,-96 M 384 64 L 192,64 L 192,-128 L 384,-128 L 384,64" stroke="black" fill-rule="evenodd" stroke-width="1"/>
    </g>
    <!-- Sector type 0 -->
    <g stroke="black" fill="white" opacity="1.000000" stroke-width="1">
    <path d=" M -1136 -224 L -1056,-224 L -1056,-184 L -1136,-224 M -1056 96 L -1136,96 L -1056,56 L -1056,96 M -1264 -96 L -1056,-168 L -1056,-128 L -1072,-128 L -1072,-96 L -1056,-96 L -1056,-32 L -1072,-32 L -1072,0 L -1056,0 L -1056,40 L -1264,-32 L -1264,-96 M 1712 160 L 1632,160 L 1632,120 L 1712,160 M 1632 64 L 1632,104 L 1840,32 L 1840,-32 L 1632,-104 L 1632,-64 L 1648,-64 L 1648,-32 L 1632,-32 L 1632,32 L 1648,32 L 1648,64 L 1632,64 M 1632 -120 L 1632,-160 L 1712,-160 L 1632,-120" stroke="black" fill-rule="evenodd" stroke-width="1"/>
    </g>
    <!-- Sector type 0 -->
    <g stroke="black" fill="white" opacity="1.000000" stroke-width="1">
    <path d=" M -1056 56 L -1264,96 L -1264,80 L -1056,56 M -1248 32 L -1248,16 L -1056,40 L -1248,32 M -1264 -224 L -1056,-184 L -1264,-208 L -1264,-224 M -1056 -168 L -1248,-144 L -1248,-160 L -1056,-168 M 1632 104 L 1824,96 L 1824,80 L 1632,104 M 1632 -120 L 1840,-160 L 1840,-144 L 1632,-120 M 1632 120 L 1840,144 L 1840,160 L 1632,120 M 1824 -96 L 1632,-104 L 1824,-80 L 1824,-96" stroke="black" fill-rule="evenodd" stroke-width="1"/>
    </g>
    <!-- Sector type 0 -->
    <g stroke="black" fill="white" opacity="1.000000" stroke-width="1">
    <path d=" M -1056 40 L -1040,40 L -1040,56 L -1056,56 L -1264,80 L -1264,32 L -1248,32 L -1056,40 M -1248 -160 L -1264,-160 L -1264,-208 L -1056,-184 L -1040,-184 L -1040,-168 L -1056,-168 L -1248,-160 M 1632 104 L 1824,96 L 1840,96 L 1840,144 L 1632,120 L 1616,120 L 1616,104 L 1632,104 M 1824 -96 L 1632,-104 L 1616,-104 L 1616,-120 L 1632,-120 L 1840,-144 L 1840,-96 L 1824,-96" stroke="black" fill-rule="evenodd" stroke-width="1"/>
    </g>
    <!-- Sector type 0 -->
    <g stroke="black" fill="white" opacity="1.000000" stroke-width="1">
    <path d=" M -1056 -184 L -1264,-224 L -1216,-224 L -1168,-224 L -1056,-184 M 1840 160 L 1792,160 L 1744,160 L 1632,120 L 1840,160 M -1216 96 L -1264,96 L -1056,56 L -1168,96 L -1216,96 M -1248 -128 L -1248,-144 L -1056,-168 L -1248,-128 M 1632 104 L 1824,64 L 1824,80 L 1632,104 M 1632 -120 L 1840,-160 L 1792,-160 L 1744,-160 L 1632,-120 M -1248 16 L -1248,0 L -1056,40 L -1248,16 M 1824 -64 L 1632,-104 L 1824,-80 L 1824,-64" stroke="black" fill-rule="evenodd" stroke-width="1"/>
    </g>
    <!-- Sector type 0 -->
    <g stroke="black" fill="white" opacity="1.000000" stroke-width="1">
    <path d=" M -1056 40 L -1248,0 L -1264,0 L -1264,-32 L -1056,40 M -1264 -128 L -1248,-128 L -1056,-168 L -1264,-96 L -1264,-128 M 1824 -64 L 1840,-64 L 1840,-32 L 1632,-104 L 1824,-64 M -1136 -224 L -1168,-224 L -1056,-184 L -1136,-224 M 1712 160 L 1744,160 L 1632,120 L 1712,160 M 1744 -160 L 1632,-120 L 1712,-160 L 1744,-160 M -1056 56 L -1136,96 L -1168,96 L -1056,56 M 1840 64 L 1840,32 L 1632,104 L 1824,64 L 1840,64" stroke="black" fill-rule="evenodd" stroke-width="1"/>
    </g>
    <!-- Sector type 0 -->
    <g stroke="black" fill="white" opacity="1.000000" stroke-width="1">
    <path d=" M -1408 32 L -1408,-160 L -1384,-160 L -1344,-160 L -1312,-160 L -1312,-128 L -1312,0 L -1312,32 L -1344,32 L -1384,32 L -1408,32 M 1960 96 L 1920,96 L 1888,96 L 1888,64 L 1888,-64 L 1888,-96 L 1920,-96 L 1960,-96 L 1984,-96 L 1984,96 L 1960,96" stroke="black" fill-rule="evenodd" stroke-width="1"/>
    </g>
    <!-- Sector type 0 -->
    <g stroke="black" fill="white" opacity="1.000000" stroke-width="1">
    <path d=" M -1216 192 L -1216,128 L -1152,128 L -1152,192 L -1216,192" stroke="black" fill-rule="evenodd" stroke-width="1"/>
    </g>
    <!-- Sector type 0 -->
    <g stroke="black" fill="white" opacity="1.000000" stroke-width="1">
    <path d=" M 1792 256 L 1728,256 L 1728,192 L 1792,192 L 1792,256" stroke="black" fill-rule="evenodd" stroke-width="1"/>
    </g>
    <!-- Sector type 0 -->
    <g stroke="black" fill="white" opacity="1.000000" stroke-width="1">
    <path d=" M -1200 564 L -1256,488 L -1320,556 L -1392,592 L -1332,656 L -1256,624 L -1200,564" stroke="black" fill-rule="evenodd" stroke-width="1"/>
    </g>
    <!-- Sector type 0 -->
    <g stroke="black" fill="white" opacity="1.000000" stroke-width="1">
    <path d=" M 192 1760 L 176,1728 L 96,1680 L 112,1648 L 192,1696 L 224,1744 L 224,1824 L 192,1824 L 192,1760" stroke="black" fill-rule="evenodd" stroke-width="1"/>
    </g>
    <!-- Sector type 0 -->
    <g stroke="black" fill="white" opacity="1.000000" stroke-width="1">
    <path d=" M 224 2192 L 208,2152 L 224,2112 L 272,2096 L 312,2112 L 328,2152 L 312,2192 L 272,2216 L 224,2192 M 240 2120 L 272,2112 L 296,2120 L 312,2152 L 296,2184 L 272,2200 L 240,2184 L 224,2152 L 240,2120" stroke="black" fill-rule="evenodd" stroke-width="1"/>
    </g>
    <!-- Sector type 0 -->
    <g stroke="black" fill="white" opacity="1.000000" stroke-width="1">
    <path d=" M 256 0 L 320,0 L 320,-64 L 256,-64 L 256,0 M 352 32 L 224,32 L 224,-96 L 352,-96 L 352,32" stroke="black" fill-rule="evenodd" stroke-width="1"/>
    <!-- Type 97 -->
    <path d="M 320 -64 L 256 -64" stroke="red" stroke-width="3" />    <!-- Type 97 -->
    <path d="M 320 0 L 320 -64" stroke="red" stroke-width="3" />    <!-- Type 97 -->
    <path d="M 256 0 L 320 0" stroke="red" stroke-width="3" />    <!-- Type 97 -->
    <path d="M 256 -64 L 256 0" stroke="red" stroke-width="3" />    </g>
    <!-- Sector type 0 -->
    <g stroke="black" fill="white" opacity="1.000000" stroke-width="1">
    <path d=" M -1040 -96 L -1040,-32 L -1056,-32 L -1056,-96 L -1040,-96 M 1632 32 L 1632,-32 L 1616,-32 L 1616,32 L 1632,32" stroke="black" fill-rule="evenodd" stroke-width="1"/>
    </g>
    <!-- Sector type 0 -->
    <g stroke="black" fill="white" opacity="1.000000" stroke-width="1">
    <path d=" M -1312 -128 L -1296,-128 L -1296,0 L -1312,0 L -1312,-128 M 1888 -64 L 1888,64 L 1872,64 L 1872,-64 L 1888,-64" stroke="black" fill-rule="evenodd" stroke-width="1"/>
    <!-- Type 1 -->
    <path d="M -1296 -128 L -1296 0" stroke="green" stroke-width="3" />    <!-- Type 1 -->
    <path d="M 1872 64 L 1872 -64" stroke="green" stroke-width="3" />    </g>
    <!-- Sector type 0 -->
    <g stroke="black" fill="white" opacity="1.000000" stroke-width="1">
    <path d=" M 1872 -64 L 1872,64 L 1856,64 L 1856,-64 L 1872,-64" stroke="black" fill-rule="evenodd" stroke-width="1"/>
    <!-- Type 1 -->
    <path d="M 1856 -64 L 1856 64" stroke="green" stroke-width="3" />    <!-- Type 1 -->
    <path d="M 1872 64 L 1872 -64" stroke="green" stroke-width="3" />    </g>
    <!-- Sector type 0 -->
    <g stroke="black" fill="white" opacity="1.000000" stroke-width="1">
    <path d=" M -1264 -32 L -1264,0 L -1280,0 L -1280,-128 L -1264,-128 L -1264,-96 L -1264,-32 M 1840 -32 L 1840,-64 L 1856,-64 L 1856,64 L 1840,64 L 1840,32 L 1840,-32" stroke="black" fill-rule="evenodd" stroke-width="1"/>
    <!-- Type 1 -->
    <path d="M -1280 0 L -1280 -128" stroke="green" stroke-width="3" />    <!-- Type 1 -->
    <path d="M 1856 -64 L 1856 64" stroke="green" stroke-width="3" />    </g>
    <!-- Sector type 0 -->
    <g stroke="black" fill="white" opacity="1.000000" stroke-width="1">
    <path d=" M -1008 744 L -736,928 L -864,1024 L -960,968 L -1072,888 L -1160,840 L -1232,776 L -1332,656 L -1256,624 L -1200,564 L -1144,640 L -1008,744 M -992 -640 L -920,-952 L -824,-1136 L -624,-1344 L -416,-1376 L -272,-1392 L -168,-1360 L -8,-1336 L 152,-1352 L 344,-1400 L 504,-1448 L 640,-1456 L 768,-1432 L 968,-1400 L 1176,-1368 L 1344,-1288 L 1464,-1024 L 1512,-704 L 1560,-488 L 1832,-384 L 2088,-240 L 2120,-80 L 2088,184 L 1872,368 L 1640,528 L 1520,536 L 1440,800 L 1552,704 L 1656,648 L 1784,536 L 1912,416 L 2072,304 L 2152,200 L 2184,-104 L 2136,-280 L 2032,-360 L 1656,-552 L 1616,-672 L 1576,-888 L 1528,-1024 L 1488,-1208 L 1432,-1304 L 1320,-1416 L 1144,-1472 L 936,-1504 L 656,-1544 L 456,-1520 L 304,-1488 L 136,-1472 L 40,-1464 L -104,-1472 L -232,-1480 L -344,-1496 L -512,-1472 L -648,-1408 L -888,-1152 L -1064,-736 L -1328,-528 L -1464,-408 L -1584,-280 L -1632,-88 L -1624,80 L -1600,264 L -1536,408 L -1392,592 L -1320,556 L -1256,488 L -1304,424 L -1504,216 L -1544,16 L -1528,-168 L -1504,-280 L -1184,-536 L -992,-640" stroke="black" fill-rule="evenodd" stroke-width="1"/>
    </g>
    <!-- Sector type 0 -->
    <g stroke="black" fill="white" opacity="1.000000" stroke-width="1">
    <path d=" M -1448 636 L -1392,592 L -1332,656 L -1408,704 L -1452,744 L -1476,744 L -1500,716 L -1516,680 L -1504,660 L -1448,636" stroke="black" fill-rule="evenodd" stroke-width="1"/>
    </g>
    <!-- Sector type 0 -->
    <g stroke="black" fill="white" opacity="1.000000" stroke-width="1">
    <path d=" M 688 1568 L 688,1536 L 688,1520 L 672,1520 L 672,1568 L 688,1568" stroke="black" fill-rule="evenodd" stroke-width="1"/>
    </g>
    <!-- Sector type 0 -->
    <g stroke="black" fill="white" opacity="1.000000" stroke-width="1">
    <path d=" M 688 1664 L 672,1664 L 672,1680 L 688,1712 L 720,1744 L 720,1728 L 688,1680 L 688,1664" stroke="black" fill-rule="evenodd" stroke-width="1"/>
    </g>
    <!-- Sector type 0 -->
    <g stroke="black" fill="white" opacity="1.000000" stroke-width="1">
    <path d=" M -128 1968 L -144,2000 L -256,2000 L -320,1968 L -128,1968" stroke="black" fill-rule="evenodd" stroke-width="1"/>
    </g>
    <!-- Sector type 0 -->
    <g stroke="black" fill="white" opacity="1.000000" stroke-width="1">
    <path d=" M -1280 -128 L -1296,-128 L -1296,0 L -1280,0 L -1280,-128" stroke="black" fill-rule="evenodd" stroke-width="1"/>
    <!-- Type 1 -->
    <path d="M -1296 -128 L -1296 0" stroke="green" stroke-width="3" />    <!-- Type 1 -->
    <path d="M -1280 0 L -1280 -128" stroke="green" stroke-width="3" />    </g>
    <!-- Sector type 0 -->
    <g stroke="black" fill="white" opacity="1.000000" stroke-width="1">
    <path d=" M -1040 -96 L -1024,-96 L -1024,-32 L -1040,-32 L -1040,-96 M 1616 -32 L 1616,32 L 1600,32 L 1600,-32 L 1616,-32" stroke="black" fill-rule="evenodd" stroke-width="1"/>
    </g>
    <!-- Sector type 0 -->
    <g stroke="black" fill="white" opacity="1.000000" stroke-width="1">
    <path d=" M 40 -1464 L -104,-1472 L -232,-1480 L -344,-1496 L -512,-1472 L -648,-1408 L -888,-1152 L -1064,-736 L -1328,-528 L -1464,-408 L -1584,-280 L -1632,-88 L -1624,80 L -1600,264 L -1536,408 L -1392,592 L -1448,636 L -1504,660 L -1646,445 L -1727,123 L -1737,-62 L -1687,-282 L -1582,-462 L -1424,-608 L -1312,-720 L -1211,-835 L -1151,-950 L -1061,-1115 L -966,-1275 L -901,-1335 L -766,-1425 L -532,-1540 L -336,-1600 L -128,-1592 L 212,-1608 L 444,-1628 L 596,-1608 L 728,-1600 L 836,-1600 L 1028,-1556 L 1232,-1536 L 1344,-1500 L 1428,-1440 L 1500,-1356 L 1564,-1280 L 1616,-1156 L 1644,-968 L 1704,-784 L 1776,-636 L 1888,-530 L 1983,-455 L 2103,-425 L 2173,-375 L 2223,-285 L 2257,-178 L 2265,-40 L 2231,138 L 2192,224 L 2139,333 L 2081,420 L 2013,484 L 1934,550 L 1875,600 L 1789,656 L 1713,706 L 1628,748 L 1559,785 L 1504,800 L 1440,800 L 1552,704 L 1656,648 L 1784,536 L 1912,416 L 2072,304 L 2152,200 L 2184,-104 L 2136,-280 L 2032,-360 L 1656,-552 L 1616,-672 L 1576,-888 L 1528,-1024 L 1488,-1208 L 1432,-1304 L 1320,-1416 L 1144,-1472 L 936,-1504 L 656,-1544 L 456,-1520 L 304,-1488 L 136,-1472 L 40,-1464 M -960 968 L -1072,888 L -1160,840 L -1232,776 L -1332,656 L -1408,704 L -1452,744 L -1257,950 L -1132,1004 L -1016,1031 L -864,1024 L -960,968" stroke="black" fill-rule="evenodd" stroke-width="1"/>
    </g>
    <!-- Sector type 0 -->
    <g stroke="black" fill="white" opacity="1.000000" stroke-width="1">
    <path d=" M 16 2016 L -16,2016 L -16,1760 L 16,1760 L 16,1984 L 16,2016" stroke="black" fill-rule="evenodd" stroke-width="1"/>
    </g>
    <!-- Sector type 8 -->
    <g stroke="black" fill="white" opacity="1.000000" stroke-width="1">
    <path d=" M 320 0 L 320,-64 L 256,-64 L 256,0 L 320,0" stroke="black" fill-rule="evenodd" stroke-width="1"/>
    <!-- Type 97 -->
    <path d="M 320 -64 L 256 -64" stroke="red" stroke-width="3" />    <!-- Type 97 -->
    <path d="M 320 0 L 320 -64" stroke="red" stroke-width="3" />    <!-- Type 97 -->
    <path d="M 256 0 L 320 0" stroke="red" stroke-width="3" />    <!-- Type 97 -->
    <path d="M 256 -64 L 256 0" stroke="red" stroke-width="3" />    </g>
    <!-- Sector type 0 -->
    <g stroke="black" fill="white" opacity="1.000000" stroke-width="1">
    <path d=" M 224 -1248 L 224,-960 L 208,-976 L 208,-1248 L 224,-1248 M 368 -1248 L 368,-976 L 352,-960 L 352,-1248 L 368,-1248" stroke="black" fill-rule="evenodd" stroke-width="1"/>
    </g>
    <!-- Sector type 0 -->
    <g stroke="black" fill="white" opacity="1.000000" stroke-width="1">
    <path d=" M -1008 -96 L -1008,-32 L -1024,-32 L -1024,-96 L -1008,-96 M 1600 32 L 1600,-32 L 1584,-32 L 1584,32 L 1600,32" stroke="black" fill-rule="evenodd" stroke-width="1"/>
    </g>
    <!-- Sector type 0 -->
    <g stroke="black" fill="white" opacity="1.000000" stroke-width="1">
    <path d=" M -1136 -224 L -1136,-240 L -1216,-240 L -1216,-224 L -1168,-224 L -1136,-224 M 1712 160 L 1712,176 L 1792,176 L 1792,160 L 1744,160 L 1712,160 M 1792 -176 L 1712,-176 L 1712,-160 L 1744,-160 L 1792,-160 L 1792,-176 M -1136 112 L -1136,96 L -1168,96 L -1216,96 L -1216,112 L -1136,112" stroke="black" fill-rule="evenodd" stroke-width="1"/>
    </g>
    <!-- Sector type 17 -->
    <g stroke="black" fill="white" opacity="1.000000" stroke-width="1">
    <path d=" M -1384 -200 L -1344,-200 L -1344,-160 L -1384,-160 L -1384,-200 M 1920 -96 L 1920,-136 L 1960,-136 L 1960,-96 L 1920,-96 M 1960 96 L 1960,136 L 1920,136 L 1920,96 L 1960,96 M -1384 32 L -1344,32 L -1344,72 L -1384,72 L -1384,32" stroke="black" fill-rule="evenodd" stroke-width="1"/>
    </g>
    <!-- Sector type 8 -->
    <g stroke="black" fill="white" opacity="1.000000" stroke-width="1">
    <path d=" M 76 1636 L 76,1668 L 68,1668 L 68,1636 L 76,1636" stroke="black" fill-rule="evenodd" stroke-width="1"/>
    </g>
    <!-- Sector type 0 -->
    <g stroke="black" fill="white" opacity="1.000000" stroke-width="1">
    <path d=" M -1008 -96 L -992,-96 L -992,-32 L -1008,-32 L -1008,-96 M 1584 -32 L 1584,32 L 1568,32 L 1568,-32 L 1584,-32" stroke="black" fill-rule="evenodd" stroke-width="1"/>
    </g>
    <!-- Sector type 0 -->
    <g stroke="black" fill="white" opacity="1.000000" stroke-width="1">
    <path d=" M 688 1600 L 688,1568 L 672,1568 L 656,1584 L 672,1600 L 688,1600" stroke="black" fill-rule="evenodd" stroke-width="1"/>
    </g>
    <!-- Sector type 0 -->
    <g stroke="black" fill="white" opacity="1.000000" stroke-width="1">
    <path d=" M -128 2176 L -144,2176 L -144,2000 L -128,1968 L -128,2176" stroke="black" fill-rule="evenodd" stroke-width="1"/>
    </g>
    <!-- Sector type 0 -->
    <g stroke="black" fill="white" opacity="1.000000" stroke-width="1">
    <path d=" M -832 32 L -904,32 L -992,32 L -992,-16 L -984,-16 L -984,-32 L -992,-32 L -992,-96 L -984,-96 L -984,-112 L -992,-112 L -992,-160 L -904,-160 L -832,-160 L -776,-160 L -704,-160 L -648,-160 L -576,-160 L -544,-144 L -544,-96 L -544,-32 L -544,16 L -576,32 L -648,32 L -704,32 L -776,32 L -832,32 M 1280 -96 L 1352,-96 L 1408,-96 L 1480,-96 L 1568,-96 L 1568,-48 L 1560,-48 L 1560,-32 L 1568,-32 L 1568,32 L 1560,32 L 1560,48 L 1568,48 L 1568,96 L 1480,96 L 1408,96 L 1352,96 L 1280,96 L 1224,96 L 1152,96 L 1120,80 L 1120,32 L 1120,-32 L 1120,-80 L 1152,-96 L 1224,-96 L 1280,-96 M 1524 -44 L 1524,44 L 1164,44 L 1164,-44 L 1524,-44 M -948 -108 L -588,-108 L -588,-20 L -948,-20 L -948,-108" stroke="black" fill-rule="evenodd" stroke-width="1"/>
    </g>
    <!-- Sector type 0 -->
    <g stroke="black" fill="white" opacity="1.000000" stroke-width="1">
    <path d=" M -936 -96 L -600,-96 L -600,-32 L -936,-32 L -936,-96 M 1176 32 L 1176,-32 L 1512,-32 L 1512,32 L 1176,32" stroke="black" fill-rule="evenodd" stroke-width="1"/>
    </g>
    <!-- Sector type 0 -->
    <g stroke="black" fill="white" opacity="1.000000" stroke-width="1">
    <path d=" M -936 -96 L -600,-96 L -600,-32 L -936,-32 L -936,-96 M 1176 32 L 1176,-32 L 1512,-32 L 1512,32 L 1176,32 M 1172 -36 L 1516,-36 L 1516,36 L 1172,36 L 1172,-36 M -596 -28 L -940,-28 L -940,-100 L -596,-100 L -596,-28" stroke="black" fill-rule="evenodd" stroke-width="1"/>
    </g>
    <!-- Sector type 0 -->
    <g stroke="black" fill="white" opacity="1.000000" stroke-width="1">
    <path d=" M -940 -100 L -596,-100 L -596,-28 L -940,-28 L -940,-100 M 1172 36 L 1172,-36 L 1516,-36 L 1516,36 L 1172,36 M 1168 -40 L 1520,-40 L 1520,40 L 1168,40 L 1168,-40 M -592 -24 L -944,-24 L -944,-104 L -592,-104 L -592,-24" stroke="black" fill-rule="evenodd" stroke-width="1"/>
    </g>
    <!-- Sector type 0 -->
    <g stroke="black" fill="white" opacity="1.000000" stroke-width="1">
    <path d=" M -944 -104 L -592,-104 L -592,-24 L -944,-24 L -944,-104 M 1168 40 L 1168,-40 L 1520,-40 L 1520,40 L 1168,40 M 1164 -44 L 1524,-44 L 1524,44 L 1164,44 L 1164,-44 M -588 -20 L -948,-20 L -948,-108 L -588,-108 L -588,-20" stroke="black" fill-rule="evenodd" stroke-width="1"/>
    </g>
    <!-- Sector type 8 -->
    <g stroke="black" fill="white" opacity="1.000000" stroke-width="1">
    <path d=" M -128 -288 L -128,-448 L 32,-448 L 32,-288 L -128,-288" stroke="black" fill-rule="evenodd" stroke-width="1"/>
    </g>
    <!-- Sector type 8 -->
    <g stroke="black" fill="white" opacity="1.000000" stroke-width="1">
    <path d=" M 704 -288 L 544,-288 L 544,-448 L 704,-448 L 704,-288" stroke="black" fill-rule="evenodd" stroke-width="1"/>
    </g>
    <!-- Sector type 8 -->
    <g stroke="black" fill="white" opacity="1.000000" stroke-width="1">
    <path d=" M 544 384 L 544,224 L 704,224 L 704,384 L 544,384" stroke="black" fill-rule="evenodd" stroke-width="1"/>
    </g>
    <!-- Sector type 8 -->
    <g stroke="black" fill="white" opacity="1.000000" stroke-width="1">
    <path d=" M 32 384 L -128,384 L -128,224 L 32,224 L 32,384" stroke="black" fill-rule="evenodd" stroke-width="1"/>
    </g>
    <!-- Sector type 0 -->
    <g stroke="black" fill="white" opacity="1.000000" stroke-width="1">
    <path d=" M -176 2240 L -160,2256 L -208,2304 L -320,2320 L -320,2016 L -288,2016 L -288,2288 L -224,2288 L -176,2240" stroke="black" fill-rule="evenodd" stroke-width="1"/>
    </g>
    <!-- Sector type 0 -->
    <g stroke="black" fill="white" opacity="1.000000" stroke-width="1">
    <path d=" M 816 1728 L 816,1536 L 688,1536 L 688,1520 L 832,1520 L 832,1744 L 720,1744 L 720,1728 L 816,1728" stroke="black" fill-rule="evenodd" stroke-width="1"/>
    </g>
    <!-- Sector type 0 -->
    <g stroke="black" fill="white" opacity="1.000000" stroke-width="1">
    <path d=" M 16 2016 L 16,1984 L 192,1984 L 192,1904 L 224,1904 L 224,2016 L 16,2016" stroke="black" fill-rule="evenodd" stroke-width="1"/>
    </g>
    <!-- Sector type 0 -->
    <g stroke="black" fill="white" opacity="1.000000" stroke-width="1">
    <path d=" M 896 -624 L 880,-640 L 496,-640 L 496,-592 L 512,-576 L 816,-576 L 832,-560 L 832,496 L 816,512 L -240,512 L -256,496 L -256,-560 L -240,-576 L 64,-576 L 80,-592 L 80,-640 L -304,-640 L -320,-624 L -320,560 L -304,576 L 880,576 L 896,560 L 896,-624" stroke="black" fill-rule="evenodd" stroke-width="1"/>
    </g>
    <!-- Sector type 0 -->
    <g stroke="black" fill="white" opacity="1.000000" stroke-width="1">
    <path d=" M 208 -1248 L 224,-1248 L 232,-1248 L 232,-1280 L 200,-1280 L 200,-1248 L 208,-1248 M 344 -1280 L 344,-1248 L 352,-1248 L 368,-1248 L 376,-1248 L 376,-1280 L 344,-1280" stroke="black" fill-rule="evenodd" stroke-width="1"/>
    </g>
    <!-- Sector type 0 -->
    <g stroke="black" fill="white" opacity="1.000000" stroke-width="1">
    <path d=" M 1280 -720 L 1280,-704 L 1152,-704 L 1152,-720 L 1136,-720 L 1136,-848 L 1152,-848 L 1152,-864 L 1280,-864 L 1280,-848 L 1296,-848 L 1296,-720 L 1280,-720 M 1156 768 L 1156,752 L 1140,752 L 1140,624 L 1156,624 L 1156,608 L 1284,608 L 1284,624 L 1300,624 L 1300,752 L 1284,752 L 1284,768 L 1156,768 M -576 608 L -576,624 L -560,624 L -560,752 L -576,752 L -576,768 L -704,768 L -704,752 L -720,752 L -720,624 L -704,624 L -704,608 L -576,608 M -720 -848 L -704,-848 L -704,-864 L -576,-864 L -576,-848 L -560,-848 L -560,-720 L -576,-720 L -576,-704 L -704,-704 L -704,-720 L -720,-720 L -720,-848" stroke="black" fill-rule="evenodd" stroke-width="1"/>
    </g>
    <!-- Sector type 0 -->
    <g stroke="black" fill="white" opacity="1.000000" stroke-width="1">
    <path d=" M -648 -160 L -576,-160 L -576,-176 L -648,-176 L -648,-160 M 1152 96 L 1152,112 L 1224,112 L 1224,96 L 1152,96 M 1152 -96 L 1152,-112 L 1224,-112 L 1224,-96 L 1152,-96 M 1280 96 L 1280,112 L 1352,112 L 1352,96 L 1280,96 M -648 48 L -648,32 L -576,32 L -576,48 L -648,48 M 1280 -96 L 1352,-96 L 1352,-112 L 1280,-112 L 1280,-96 M 1480 96 L 1408,96 L 1408,112 L 1480,112 L 1480,96 M 1480 -112 L 1408,-112 L 1408,-96 L 1480,-96 L 1480,-112 M -776 -160 L -704,-160 L -704,-176 L -776,-176 L -776,-160 M -904 48 L -904,32 L -832,32 L -832,48 L -904,48 M -832 -176 L -832,-160 L -904,-160 L -904,-176 L -832,-176 M -704 32 L -704,48 L -776,48 L -776,32 L -704,32" stroke="black" fill-rule="evenodd" stroke-width="1"/>
    </g>
    <!-- Sector type 0 -->
    <g stroke="black" fill="white" opacity="1.000000" stroke-width="1">
    <path d=" M -544 -96 L -528,-96 L -528,-32 L -544,-32 L -544,-96 M 1120 -32 L 1120,32 L 1104,32 L 1104,-32 L 1120,-32" stroke="black" fill-rule="evenodd" stroke-width="1"/>
    <!-- Type 103 -->
    <path d="M -528 -96 L -528 -32" stroke="orange" stroke-width="3" />    <!-- Type 103 -->
    <path d="M 1104 32 L 1104 -32" stroke="orange" stroke-width="3" />    </g>
    <!-- Sector type 0 -->
    <g stroke="black" fill="white" opacity="1.000000" stroke-width="1">
    <path d=" M 283 1396 L 320,1385 L 318,1418 L 328,1456 L 240,1496 L 230,1472 L 225,1428 L 228,1390 L 283,1396" stroke="black" fill-rule="evenodd" stroke-width="1"/>
    </g>
    <!-- Sector type 0 -->
    <g stroke="black" fill="white" opacity="1.000000" stroke-width="1">
    <path d=" M 328 1456 L 340,1496 L 256,1516 L 240,1496 L 328,1456" stroke="black" fill-rule="evenodd" stroke-width="1"/>
    <!-- Type 52 -->
    <path d="M 340 1496 L 256 1516" stroke="purple" stroke-width="3" />    </g>
    <!-- Sector type 0 -->
    <g stroke="black" fill="white" opacity="1.000000" stroke-width="1">
    <path d=" M 816 -544 L 800,-560 L 496,-560 L 480,-576 L 480,-640 L 496,-640 L 496,-592 L 512,-576 L 816,-576 L 832,-560 L 832,496 L 816,512 L -240,512 L -256,496 L -256,-560 L -240,-576 L 64,-576 L 80,-592 L 80,-640 L 96,-640 L 96,-576 L 80,-560 L -224,-560 L -240,-544 L -240,496 L -224,496 L 800,496 L 816,480 L 816,-544" stroke="black" fill-rule="evenodd" stroke-width="1"/>
    </g>
    <!-- Sector type 0 -->
    <g stroke="black" fill="white" opacity="1.000000" stroke-width="1">
    <path d=" M 960 -688 L 944,-704 L 480,-704 L 480,-640 L 496,-640 L 880,-640 L 896,-624 L 896,560 L 880,576 L -304,576 L -320,560 L -320,-624 L -304,-640 L 80,-640 L 96,-640 L 96,-704 L -368,-704 L -384,-688 L -384,624 L -368,640 L 944,640 L 960,624 L 960,-688" stroke="black" fill-rule="evenodd" stroke-width="1"/>
    </g>
    <!-- Sector type 16 -->
    <g stroke="red" fill="red" opacity="1.000000" stroke-width="1">
    <path d=" M 336 1211 L 336,1284 L 240,1284 L 240,1211 L 240,1179 L 240,1106 L 336,1106 L 336,1179 L 336,1211" stroke="red" fill-rule="evenodd" stroke-width="1"/>
    </g>
    <!-- Sector type 0 -->
    <g stroke="black" fill="white" opacity="1.000000" stroke-width="1">
    <path d=" M 224 -848 L 352,-848 L 352,-736 L 224,-736 L 224,-848" stroke="black" fill-rule="evenodd" stroke-width="1"/>
    <!-- Type 23 -->
    <path d="M 352 -848 L 224 -848" stroke="orange" stroke-width="3" />    </g>
    <!-- Sector type 0 -->
    <g stroke="black" fill="white" opacity="1.000000" stroke-width="1">
    <path d=" M -288 -880 L -288,-896 L -336,-896 L -336,-880 L -336,-840 L -288,-840 L -288,-880 M 1608 216 L 1608,256 L 1608,272 L 1656,272 L 1656,256 L 1656,216 L 1608,216 M 1656 -216 L 1656,-256 L 1656,-272 L 1608,-272 L 1608,-256 L 1608,-216 L 1656,-216 M -1032 208 L -1080,208 L -1080,192 L -1080,152 L -1032,152 L -1032,192 L -1032,208 M -1032 -336 L -1032,-320 L -1032,-280 L -1080,-280 L -1080,-320 L -1080,-336 L -1032,-336 M 912 -840 L 864,-840 L 864,-880 L 864,-896 L 912,-896 L 912,-880 L 912,-840 M -160 -880 L -160,-896 L -112,-896 L -112,-880 L -112,-840 L -160,-840 L -160,-880 M 736 -896 L 736,-880 L 736,-840 L 688,-840 L 688,-880 L 688,-896 L 736,-896" stroke="black" fill-rule="evenodd" stroke-width="1"/>
    </g>
    <!-- Sector type 0 -->
    <g stroke="black" fill="white" opacity="1.000000" stroke-width="1">
    <path d=" M -1408 -224 L -1408,-240 L -1280,-240 L -1280,-224 L -1408,-224 M 1856 160 L 1984,160 L 1984,176 L 1856,176 L 1856,160 M 1984 -176 L 1856,-176 L 1856,-160 L 1984,-160 L 1984,-176 M -1280 112 L -1408,112 L -1408,96 L -1280,96 L -1280,112" stroke="black" fill-rule="evenodd" stroke-width="1"/>
    </g>
    <!-- Sector type 0 -->
    <g stroke="black" fill="white" opacity="1.000000" stroke-width="1">
    <path d=" M 1024 688 L 1024,-752 L 1008,-768 L 480,-768 L 480,-704 L 944,-704 L 960,-688 L 960,624 L 944,640 L -368,640 L -384,624 L -384,-688 L -368,-704 L 96,-704 L 96,-768 L -432,-768 L -448,-752 L -448,688 L -432,704 L 1008,704 L 1024,688" stroke="black" fill-rule="evenodd" stroke-width="1"/>
    </g>
    <!-- Sector type 0 -->
    <g stroke="black" fill="white" opacity="1.000000" stroke-width="1">
    <path d=" M -512 752 L -496,768 L -136,768 L -8,768 L 240,768 L 336,768 L 584,768 L 712,768 L 1072,768 L 1088,752 L 1088,352 L 1088,224 L 1088,-288 L 1088,-416 L 1088,-816 L 1072,-832 L 480,-832 L 480,-768 L 1008,-768 L 1024,-752 L 1024,688 L 1008,704 L -432,704 L -448,688 L -448,-752 L -432,-768 L 96,-768 L 96,-832 L -496,-832 L -512,-816 L -512,-416 L -512,-288 L -512,224 L -512,352 L -512,752" stroke="black" fill-rule="evenodd" stroke-width="1"/>
    </g>
    <!-- Sector type 0 -->
    <g stroke="black" fill="white" opacity="1.000000" stroke-width="1">
    <path d=" M 240 1106 L 224,1024 L 208,992 L 192,960 L 192,928 L 208,896 L 240,880 L 336,880 L 368,896 L 384,928 L 384,960 L 368,992 L 352,1024 L 336,1106 L 240,1106 M 320 1356 L 320,1385 L 283,1396 L 228,1390 L 224,1348 L 228,1325 L 236,1295 L 240,1284 L 336,1284 L 331,1293 L 324,1324 L 320,1356" stroke="black" fill-rule="evenodd" stroke-width="1"/>
    </g>
    <!-- Sector type 8 -->
    <g stroke="black" fill="white" opacity="1.000000" stroke-width="1">
    <path d=" M 192 -960 L 192,-976 L 128,-976 L 128,-960 L 192,-960" stroke="black" fill-rule="evenodd" stroke-width="1"/>
    </g>
    <!-- Sector type 8 -->
    <g stroke="black" fill="white" opacity="1.000000" stroke-width="1">
    <path d=" M 448 -960 L 384,-960 L 384,-976 L 448,-976 L 448,-960" stroke="black" fill-rule="evenodd" stroke-width="1"/>
    </g>
    <!-- Sector type 8 -->
    <g stroke="black" fill="white" opacity="1.000000" stroke-width="1">
    <path d=" M 128 -656 L 128,-640 L 192,-640 L 192,-656 L 128,-656" stroke="black" fill-rule="evenodd" stroke-width="1"/>
    </g>
    <!-- Sector type 8 -->
    <g stroke="black" fill="white" opacity="1.000000" stroke-width="1">
    <path d=" M 384 -656 L 448,-656 L 448,-640 L 384,-640 L 384,-656" stroke="black" fill-rule="evenodd" stroke-width="1"/>
    </g>
    <!-- Sector type 0 -->
    <g stroke="black" fill="white" opacity="1.000000" stroke-width="1">
    <path d=" M 336 800 L 336,768 L 240,768 L 240,800 L 336,800" stroke="black" fill-rule="evenodd" stroke-width="1"/>
    </g>
    <!-- Sector type 0 -->
    <g stroke="black" fill="white" opacity="1.000000" stroke-width="1">
    <path d=" M 336 816 L 336,800 L 240,800 L 240,816 L 336,816" stroke="black" fill-rule="evenodd" stroke-width="1"/>
    </g>
    <!-- Sector type 0 -->
    <g stroke="black" fill="white" opacity="1.000000" stroke-width="1">
    <path d=" M 240 832 L 240,816 L 336,816 L 336,832 L 240,832" stroke="black" fill-rule="evenodd" stroke-width="1"/>
    </g>
    <!-- Sector type 0 -->
    <g stroke="black" fill="white" opacity="1.000000" stroke-width="1">
    <path d=" M 336 848 L 336,832 L 240,832 L 240,848 L 336,848" stroke="black" fill-rule="evenodd" stroke-width="1"/>
    </g>
    <!-- Sector type 0 -->
    <g stroke="black" fill="white" opacity="1.000000" stroke-width="1">
    <path d=" M 240 880 L 240,848 L 336,848 L 336,880 L 240,880" stroke="black" fill-rule="evenodd" stroke-width="1"/>
    </g>
    <!-- Sector type 0 -->
    <g stroke="black" fill="white" opacity="1.000000" stroke-width="1">
    <path d=" M -528 -416 L -512,-416 L -512,-288 L -528,-288 L -528,-416 M 712 784 L 584,784 L 584,768 L 712,768 L 712,784 M -136 768 L -8,768 L -8,784 L -136,784 L -136,768 M 1088 -416 L 1104,-416 L 1104,-288 L 1088,-288 L 1088,-416 M -512 224 L -512,352 L -528,352 L -528,224 L -512,224 M 1104 224 L 1104,352 L 1088,352 L 1088,224 L 1104,224" stroke="black" fill-rule="evenodd" stroke-width="1"/>
    </g>
    <!-- Sector type 8 -->
    <g stroke="black" fill="white" opacity="1.000000" stroke-width="1">
    <path d=" M 336 1179 L 344,1179 L 344,1211 L 336,1211 L 336,1179 M 240 1179 L 240,1211 L 232,1211 L 232,1179 L 240,1179" stroke="black" fill-rule="evenodd" stroke-width="1"/>
    </g>
    <!-- Sector type 0 -->
    <g stroke="black" fill="white" opacity="1.000000" stroke-width="1">
    <path d=" M -1536 844 L -1544,816 L -1532,788 L -1504,768 L -1476,744 L -1500,716 L -1516,680 L -1568,712 L -1616,752 L -1628,788 L -1624,816 L -1604,860 L -1564,872 L -1536,844" stroke="black" fill-rule="evenodd" stroke-width="1"/>
    </g>
  </g>
</svg>
