<?xml version="1.0" standalone="no"?>
<svg width="1280" height="1024" viewBox="-768 2048 4576 2816" xmlns="http://www.w3.org/2000/svg">
  <title>DOOM.wad - E1M1</title>
  <g>
    <!-- Sector type 0 -->
    <g stroke="black" fill="white" opacity="1.000000" stroke-width="1">
    <path d=" M 2048 3904 L 2176,3904 L 2176,3920 L 2240,3968 L 2240,4096 L 2112,4032 L 2048,3920 L 2048,3904" stroke="black" fill-rule="evenodd" stroke-width="1"/>
    </g>
    <!-- Sector type 0 -->
    <g stroke="black" fill="white" opacity="1.000000" stroke-width="1">
    <path d=" M 2264 3968 L 2344,3968 L 2368,3968 L 2368,4096 L 2344,4096 L 2264,4096 L 2240,4096 L 2240,3968 L 2264,3968" stroke="black" fill-rule="evenodd" stroke-width="1"/>
    </g>
    <!-- Sector type 0 -->
    <g stroke="black" fill="white" opacity="1.000000" stroke-width="1">
    <path d=" M 2368 3968 L 2368,4096 L 2672,3920 L 2688,3920 L 2632,3792 L 2616,3792 L 2368,3968" stroke="black" fill-rule="evenodd" stroke-width="1"/>
    </g>
    <!-- Sector type 0 -->
    <g stroke="black" fill="white" opacity="1.000000" stroke-width="1">
    <path d=" M 2048 3904 L 2048,3872 L 2176,3872 L 2176,3904 L 2048,3904" stroke="black" fill-rule="evenodd" stroke-width="1"/>
    </g>
    <!-- Sector type 0 -->
    <g stroke="black" fill="white" opacity="1.000000" stroke-width="1">
    <path d=" M 2688 3920 L 2632,3792 L 2688,3776 L 2720,3904 L 2688,3920" stroke="black" fill-rule="evenodd" stroke-width="1"/>
    </g>
    <!-- Sector type 0 -->
    <g stroke="black" fill="white" opacity="1.000000" stroke-width="1">
    <path d=" M 2048 3872 L 2048,3840 L 2176,3840 L 2176,3872 L 2048,3872" stroke="black" fill-rule="evenodd" stroke-width="1"/>
    </g>
    <!-- Sector type 0 -->
    <g stroke="black" fill="white" opacity="1.000000" stroke-width="1">
    <path d=" M 2720 3904 L 2688,3776 L 2752,3776 L 2752,3904 L 2720,3904" stroke="black" fill-rule="evenodd" stroke-width="1"/>
    </g>
    <!-- Sector type 0 -->
    <g stroke="black" fill="white" opacity="1.000000" stroke-width="1">
    <path d=" M 2048 3840 L 2048,3808 L 2176,3808 L 2176,3840 L 2048,3840" stroke="black" fill-rule="evenodd" stroke-width="1"/>
    </g>
    <!-- Sector type 0 -->
    <g stroke="black" fill="white" opacity="1.000000" stroke-width="1">
    <path d=" M 2752 3904 L 2752,3776 L 2784,3776 L 2784,3904 L 2752,3904" stroke="black" fill-rule="evenodd" stroke-width="1"/>
    </g>
    <!-- Sector type 7 -->
    <g stroke="red" fill="red" opacity="1.000000" stroke-width="1">
    <path d=" M 2040 3144 L 2128,3272 L 2064,3408 L 1784,3448 L 1544,3384 L 1520,3168 L 1672,3104 L 1896,3104 L 2040,3144" stroke="red" fill-rule="evenodd" stroke-width="1"/>
    </g>
    <!-- Sector type 0 -->
    <g stroke="black" fill="white" opacity="1.000000" stroke-width="1">
    <path d=" M 2048 3808 L 2048,3776 L 2176,3776 L 2176,3808 L 2048,3808" stroke="black" fill-rule="evenodd" stroke-width="1"/>
    </g>
    <!-- Sector type 0 -->
    <g stroke="black" fill="white" opacity="1.000000" stroke-width="1">
    <path d=" M 2784 3904 L 2784,3776 L 2816,3776 L 2816,3904 L 2784,3904" stroke="black" fill-rule="evenodd" stroke-width="1"/>
    </g>
    <!-- Sector type 0 -->
    <g stroke="black" fill="white" opacity="1.000000" stroke-width="1">
    <path d=" M 2432 3112 L 2736,3112 L 2736,3360 L 2736,3648 L 2240,3648 L 1984,3648 L 1376,3648 L 1376,3520 L 1376,3392 L 1376,3360 L 1376,3264 L 1376,3200 L 1376,3104 L 1376,2944 L 1472,2880 L 1664,2880 L 1856,2880 L 1920,2920 L 2176,2920 L 2240,2920 L 2272,3008 L 2432,3112 M 1896 3104 L 2040,3144 L 2128,3272 L 2064,3408 L 1784,3448 L 1544,3384 L 1520,3168 L 1672,3104 L 1896,3104" stroke="black" fill-rule="evenodd" stroke-width="1"/>
    <!-- Type 109 -->
    <path d="M 1376 3520 L 1376 3392" stroke="orange" stroke-width="3" />    </g>
    <!-- Sector type 0 -->
    <g stroke="black" fill="white" opacity="1.000000" stroke-width="1">
    <path d=" M 1984 3648 L 1984,3776 L 1672,3744 L 1528,3680 L 1376,3648 L 1984,3648" stroke="black" fill-rule="evenodd" stroke-width="1"/>
    </g>
    <!-- Sector type 0 -->
    <g stroke="black" fill="white" opacity="1.000000" stroke-width="1">
    <path d=" M 2240 3648 L 2240,3776 L 2208,3680 L 2176,3680 L 2048,3680 L 2016,3680 L 1984,3776 L 1984,3648 L 2240,3648" stroke="black" fill-rule="evenodd" stroke-width="1"/>
    </g>
    <!-- Sector type 0 -->
    <g stroke="black" fill="white" opacity="1.000000" stroke-width="1">
    <path d=" M 2176 3704 L 2176,3680 L 2048,3680 L 2048,3704 L 2048,3776 L 2176,3776 L 2176,3704" stroke="black" fill-rule="evenodd" stroke-width="1"/>
    </g>
    <!-- Sector type 0 -->
    <g stroke="black" fill="white" opacity="1.000000" stroke-width="1">
    <path d=" M 2736 3648 L 2488,3744 L 2240,3776 L 2240,3648 L 2736,3648" stroke="black" fill-rule="evenodd" stroke-width="1"/>
    </g>
    <!-- Sector type 0 -->
    <g stroke="black" fill="white" opacity="1.000000" stroke-width="1">
    <path d=" M 2816 3904 L 2816,3776 L 2848,3776 L 2848,3904 L 2816,3904" stroke="black" fill-rule="evenodd" stroke-width="1"/>
    </g>
    <!-- Sector type 7 -->
    <g stroke="red" fill="red" opacity="1.000000" stroke-width="1">
    <path d=" M 2752 3584 L 2752,3360 L 2944,3536 L 2752,3584" stroke="red" fill-rule="evenodd" stroke-width="1"/>
    </g>
    <!-- Sector type 7 -->
    <g stroke="red" fill="red" opacity="1.000000" stroke-width="1">
    <path d=" M 3352 3568 L 3264,3616 L 3104,3552 L 3280,3320 L 2984,3200 L 3136,3072 L 3304,3040 L 3400,3152 L 3472,3432 L 3408,3432 L 3312,3496 L 3352,3568" stroke="red" fill-rule="evenodd" stroke-width="1"/>
    </g>
    <!-- Sector type 0 -->
    <g stroke="black" fill="white" opacity="1.000000" stroke-width="1">
    <path d=" M 3328 3744 L 3328,3968 L 3520,3904 L 3520,3840 L 3520,3584 L 3472,3520 L 3448,3520 L 3352,3568 L 3352,3592 L 3360,3648 L 3328,3744" stroke="black" fill-rule="evenodd" stroke-width="1"/>
    </g>
    <!-- Sector type 7 -->
    <g stroke="red" fill="red" opacity="1.000000" stroke-width="1">
    <path d=" M 2976 3072 L 2816,3232 L 3112,3360 L 2944,3536 L 2752,3360 L 2752,3112 L 2752,3048 L 2976,3072" stroke="red" fill-rule="evenodd" stroke-width="1"/>
    </g>
    <!-- Sector type 9 -->
    <g stroke="aqua" fill="aqua" opacity="1.000000" stroke-width="1">
    <path d=" M 3304 3744 L 3328,3744 L 3328,3968 L 3304,3968 L 3200,3968 L 3200,3744 L 3304,3744" stroke="aqua" fill-rule="evenodd" stroke-width="1"/>
    </g>
    <!-- Sector type 0 -->
    <g stroke="black" fill="white" opacity="1.000000" stroke-width="1">
    <path d=" M 2848 3904 L 2848,3776 L 2880,3776 L 2880,3904 L 2848,3904" stroke="black" fill-rule="evenodd" stroke-width="1"/>
    </g>
    <!-- Sector type 0 -->
    <g stroke="black" fill="white" opacity="1.000000" stroke-width="1">
    <path d=" M 3048 2880 L 2752,3048 L 2752,2912 L 2880,2912 L 2880,2880 L 2752,2800 L 2752,2784 L 2944,2656 L 2960,2656 L 3048,2880" stroke="black" fill-rule="evenodd" stroke-width="1"/>
    <!-- Type 88 -->
    <path d="M 2752 3048 L 3048 2880" stroke="blue" stroke-width="3" />    </g>
    <!-- Sector type 0 -->
    <g stroke="black" fill="white" opacity="1.000000" stroke-width="1">
    <path d=" M 2944 3776 L 2944,3648 L 2752,3584 L 2944,3536 L 3072,3648 L 3072,4000 L 2944,4000 L 2944,3904 L 2944,3776" stroke="black" fill-rule="evenodd" stroke-width="1"/>
    <!-- Type 1 -->
    <path d="M 2944 3904 L 2944 3776" stroke="green" stroke-width="3" />    </g>
    <!-- Sector type 0 -->
    <g stroke="black" fill="white" opacity="1.000000" stroke-width="1">
    <path d=" M 3264 3616 L 3072,3648 L 2944,3536 L 3112,3360 L 2816,3232 L 2976,3072 L 2752,3048 L 3048,2880 L 3048,2944 L 3304,3040 L 3136,3072 L 2984,3200 L 3280,3320 L 3104,3552 L 3264,3616" stroke="black" fill-rule="evenodd" stroke-width="1"/>
    <!-- Type 88 -->
    <path d="M 2752 3048 L 3048 2880" stroke="blue" stroke-width="3" />    </g>
    <!-- Sector type 12 -->
    <g stroke="black" fill="white" opacity="1.000000" stroke-width="1">
    <path d=" M 2856 4352 L 2856,4160 L 2888,4160 L 2912,4160 L 3104,4160 L 3128,4160 L 3160,4160 L 3160,4352 L 3128,4352 L 3104,4352 L 2912,4352 L 2888,4352 L 2856,4352 M 3128 4160 L 3128,4192 L 3128,4320 L 3128,4192 L 3128,4160 M 2888 4320 L 2888,4352 L 2888,4320 L 2888,4192 L 2888,4160 L 2888,4192 L 2888,4320 M 3128 4320 L 3128,4352 L 3128,4320" stroke="black" fill-rule="evenodd" stroke-width="1"/>
    <!-- Type 36 -->
    <path d="M 2912 4160 L 3104 4160" stroke="orange" stroke-width="3" />    </g>
    <!-- Sector type 0 -->
    <g stroke="black" fill="white" opacity="1.000000" stroke-width="1">
    <path d=" M 2912 4384 L 2912,4352 L 3104,4352 L 3104,4384 L 3160,4384 L 3160,4352 L 3160,4160 L 3200,4128 L 3328,4128 L 3328,4544 L 3072,4544 L 2944,4544 L 2688,4544 L 2688,4128 L 2816,4128 L 2856,4160 L 2856,4352 L 2856,4384 L 2912,4384" stroke="black" fill-rule="evenodd" stroke-width="1"/>
    </g>
    <!-- Sector type 0 -->
    <g stroke="black" fill="white" opacity="1.000000" stroke-width="1">
    <path d=" M 2944 4608 L 2944,4544 L 3072,4544 L 3072,4608 L 3040,4608 L 2976,4608 L 2944,4608 M 3024 4592 L 2992,4592 L 2992,4600 L 3024,4600 L 3024,4592" stroke="black" fill-rule="evenodd" stroke-width="1"/>
    </g>
    <!-- Sector type 0 -->
    <g stroke="black" fill="white" opacity="1.000000" stroke-width="1">
    <path d=" M 2992 4600 L 3024,4600 L 3024,4592 L 2992,4592 L 2992,4600" stroke="black" fill-rule="evenodd" stroke-width="1"/>
    </g>
    <!-- Sector type 0 -->
    <g stroke="black" fill="white" opacity="1.000000" stroke-width="1">
    <path d=" M 3040 4608 L 3040,4632 L 2976,4632 L 2976,4608 L 3040,4608" stroke="black" fill-rule="evenodd" stroke-width="1"/>
    <!-- Type 1 -->
    <path d="M 3040 4632 L 2976 4632" stroke="green" stroke-width="3" />    </g>
    <!-- Sector type 0 -->
    <g stroke="black" fill="white" opacity="1.000000" stroke-width="1">
    <path d=" M 3040 4632 L 3040,4648 L 2976,4648 L 2976,4632 L 3040,4632" stroke="black" fill-rule="evenodd" stroke-width="1"/>
    <!-- Type 1 -->
    <path d="M 2976 4648 L 3040 4648" stroke="green" stroke-width="3" />    <!-- Type 1 -->
    <path d="M 3040 4632 L 2976 4632" stroke="green" stroke-width="3" />    </g>
    <!-- Sector type 0 -->
    <g stroke="black" fill="white" opacity="1.000000" stroke-width="1">
    <path d=" M 3040 4672 L 3104,4672 L 3104,4864 L 2912,4864 L 2912,4800 L 2912,4736 L 2912,4672 L 2976,4672 L 3040,4672 M 2992 4840 L 2992,4848 L 3024,4848 L 3024,4840 L 2992,4840" stroke="black" fill-rule="evenodd" stroke-width="1"/>
    <!-- Type 11 -->
    <path d="M 2912 4800 L 2912 4736" stroke="purple" stroke-width="3" />    </g>
    <!-- Sector type 0 -->
    <g stroke="black" fill="white" opacity="1.000000" stroke-width="1">
    <path d=" M 2992 4848 L 3024,4848 L 3024,4840 L 2992,4840 L 2992,4848" stroke="black" fill-rule="evenodd" stroke-width="1"/>
    </g>
    <!-- Sector type 0 -->
    <g stroke="black" fill="white" opacity="1.000000" stroke-width="1">
    <path d=" M 2976 4672 L 2976,4648 L 3040,4648 L 3040,4672 L 2976,4672" stroke="black" fill-rule="evenodd" stroke-width="1"/>
    <!-- Type 1 -->
    <path d="M 2976 4648 L 3040 4648" stroke="green" stroke-width="3" />    </g>
    <!-- Sector type 0 -->
    <g stroke="black" fill="white" opacity="1.000000" stroke-width="1">
    <path d=" M 2912 3904 L 2912,3776 L 2880,3776 L 2880,3904 L 2912,3904" stroke="black" fill-rule="evenodd" stroke-width="1"/>
    <!-- Type 1 -->
    <path d="M 2912 3776 L 2912 3904" stroke="green" stroke-width="3" />    </g>
    <!-- Sector type 0 -->
    <g stroke="black" fill="white" opacity="1.000000" stroke-width="1">
    <path d=" M 3072 4000 L 2944,4000 L 2944,4016 L 3072,4016 L 3072,4000" stroke="black" fill-rule="evenodd" stroke-width="1"/>
    <!-- Type 1 -->
    <path d="M 3072 4016 L 2944 4016" stroke="green" stroke-width="3" />    </g>
    <!-- Sector type 9 -->
    <g stroke="aqua" fill="aqua" opacity="1.000000" stroke-width="1">
    <path d=" M 2912 3776 L 2944,3776 L 2944,3904 L 2912,3904 L 2912,3776" stroke="aqua" fill-rule="evenodd" stroke-width="1"/>
    <!-- Type 1 -->
    <path d="M 2944 3904 L 2944 3776" stroke="green" stroke-width="3" />    <!-- Type 1 -->
    <path d="M 2912 3776 L 2912 3904" stroke="green" stroke-width="3" />    </g>
    <!-- Sector type 0 -->
    <g stroke="black" fill="white" opacity="1.000000" stroke-width="1">
    <path d=" M 3072 4032 L 3104,4128 L 3104,4160 L 2912,4160 L 2912,4128 L 2944,4032 L 3072,4032" stroke="black" fill-rule="evenodd" stroke-width="1"/>
    <!-- Type 36 -->
    <path d="M 2912 4160 L 3104 4160" stroke="orange" stroke-width="3" />    <!-- Type 1 -->
    <path d="M 2944 4032 L 3072 4032" stroke="green" stroke-width="3" />    </g>
    <!-- Sector type 0 -->
    <g stroke="black" fill="white" opacity="1.000000" stroke-width="1">
    <path d=" M 2944 4032 L 2944,4016 L 3072,4016 L 3072,4032 L 2944,4032" stroke="black" fill-rule="evenodd" stroke-width="1"/>
    <!-- Type 1 -->
    <path d="M 3072 4016 L 2944 4016" stroke="green" stroke-width="3" />    <!-- Type 1 -->
    <path d="M 2944 4032 L 3072 4032" stroke="green" stroke-width="3" />    </g>
    <!-- Sector type 0 -->
    <g stroke="black" fill="white" opacity="1.000000" stroke-width="1">
    <path d=" M 928 3360 L 928,3104 L 1184,3104 L 1216,3104 L 1216,3072 L 1344,3104 L 1344,3200 L 1344,3264 L 1344,3360 L 1216,3392 L 1216,3360 L 1184,3360 L 928,3360" stroke="black" fill-rule="evenodd" stroke-width="1"/>
    </g>
    <!-- Sector type 0 -->
    <g stroke="black" fill="white" opacity="1.000000" stroke-width="1">
    <path d=" M 2752 2560 L 2944,2656 L 2752,2784 L 2624,2784 L 2752,2560" stroke="black" fill-rule="evenodd" stroke-width="1"/>
    </g>
    <!-- Sector type 0 -->
    <g stroke="black" fill="white" opacity="1.000000" stroke-width="1">
    <path d=" M 1184 3360 L 1184,3392 L 928,3392 L 928,3360 L 896,3360 L 896,3104 L 928,3104 L 928,3360 L 1184,3360 M 928 3104 L 928,3072 L 1184,3072 L 1184,3104 L 928,3104" stroke="black" fill-rule="evenodd" stroke-width="1"/>
    </g>
    <!-- Sector type 0 -->
    <g stroke="black" fill="white" opacity="1.000000" stroke-width="1">
    <path d=" M 496 3304 L 496,3160 L 512,3160 L 512,3136 L 680,3104 L 704,3104 L 704,3360 L 680,3360 L 512,3328 L 512,3304 L 496,3304" stroke="black" fill-rule="evenodd" stroke-width="1"/>
    </g>
    <!-- Sector type 0 -->
    <g stroke="black" fill="white" opacity="1.000000" stroke-width="1">
    <path d=" M 64 3392 L 128,3264 L 160,3264 L 192,3264 L 224,3264 L 256,3264 L 288,3264 L 320,3264 L 320,3200 L 288,3200 L 256,3200 L 224,3200 L 192,3200 L 160,3200 L 128,3200 L 64,3072 L 128,3008 L 448,3008 L 496,3136 L 496,3160 L 496,3304 L 496,3328 L 448,3456 L 128,3456 L 64,3392 M 320 3392 L 320,3328 L 256,3328 L 256,3392 L 320,3392 M 256 3072 L 256,3136 L 320,3136 L 320,3072 L 256,3072" stroke="black" fill-rule="evenodd" stroke-width="1"/>
    <!-- Type 63 -->
    <path d="M 320 3072 L 256 3072" stroke="orange" stroke-width="3" />    </g>
    <!-- Sector type 0 -->
    <g stroke="black" fill="white" opacity="1.000000" stroke-width="1">
    <path d=" M 2496 2560 L 2520,2560 L 2752,2560 L 2624,2784 L 2520,2688 L 2496,2688 L 2496,2560" stroke="black" fill-rule="evenodd" stroke-width="1"/>
    </g>
    <!-- Sector type 0 -->
    <g stroke="black" fill="white" opacity="1.000000" stroke-width="1">
    <path d=" M 2176 2816 L 1664,2816 L 1664,2880 L 1856,2880 L 1920,2920 L 2176,2920 L 2176,2816" stroke="black" fill-rule="evenodd" stroke-width="1"/>
    </g>
    <!-- Sector type 0 -->
    <g stroke="black" fill="white" opacity="1.000000" stroke-width="1">
    <path d=" M 1376 3520 L 1376,3392 L 1344,3392 L 1344,3520 L 1376,3520" stroke="black" fill-rule="evenodd" stroke-width="1"/>
    <!-- Type 38 -->
    <path d="M 1344 3392 L 1344 3520" stroke="orange" stroke-width="3" />    <!-- Type 109 -->
    <path d="M 1376 3520 L 1376 3392" stroke="orange" stroke-width="3" />    </g>
    <!-- Sector type 0 -->
    <g stroke="black" fill="white" opacity="1.000000" stroke-width="1">
    <path d=" M 2176 2752 L 1664,2752 L 1664,2624 L 1664,2600 L 1664,2560 L 1664,2432 L 1664,2392 L 1664,2368 L 1664,2112 L 2496,2112 L 2496,2496 L 2496,2520 L 2496,2560 L 2496,2688 L 2496,2752 L 2200,2752 L 2176,2752 M 1992 2552 L 1784,2552 L 1784,2632 L 1992,2632 L 1992,2552 M 1784 2232 L 1784,2312 L 1992,2312 L 1992,2232 L 1784,2232 M 2112 2592 L 2336,2592 L 2336,2272 L 2112,2272 L 2112,2304 L 2144,2304 L 2144,2560 L 2112,2560 L 2112,2592" stroke="black" fill-rule="evenodd" stroke-width="1"/>
    </g>
    <!-- Sector type 0 -->
    <g stroke="black" fill="white" opacity="1.000000" stroke-width="1">
    <path d=" M 1984 2304 L 1984,2240 L 1792,2240 L 1792,2304 L 1984,2304 M 1992 2232 L 1784,2232 L 1784,2312 L 1992,2312 L 1992,2232" stroke="black" fill-rule="evenodd" stroke-width="1"/>
    </g>
    <!-- Sector type 0 -->
    <g stroke="black" fill="white" opacity="1.000000" stroke-width="1">
    <path d=" M 1792 2304 L 1984,2304 L 1984,2240 L 1792,2240 L 1792,2304" stroke="black" fill-rule="evenodd" stroke-width="1"/>
    </g>
    <!-- Sector type 0 -->
    <g stroke="black" fill="white" opacity="1.000000" stroke-width="1">
    <path d=" M 1984 2624 L 1984,2560 L 1792,2560 L 1792,2624 L 1984,2624 M 1784 2632 L 1992,2632 L 1992,2552 L 1784,2552 L 1784,2632" stroke="black" fill-rule="evenodd" stroke-width="1"/>
    </g>
    <!-- Sector type 0 -->
    <g stroke="black" fill="white" opacity="1.000000" stroke-width="1">
    <path d=" M 1792 2624 L 1984,2624 L 1984,2560 L 1792,2560 L 1792,2624" stroke="black" fill-rule="evenodd" stroke-width="1"/>
    </g>
    <!-- Sector type 0 -->
    <g stroke="black" fill="white" opacity="1.000000" stroke-width="1">
    <path d=" M 1664 2432 L 1664,2560 L 1552,2560 L 1552,2432 L 1664,2432" stroke="black" fill-rule="evenodd" stroke-width="1"/>
    <!-- Type 1 -->
    <path d="M 1552 2560 L 1552 2432" stroke="green" stroke-width="3" />    </g>
    <!-- Sector type 0 -->
    <g stroke="black" fill="white" opacity="1.000000" stroke-width="1">
    <path d=" M 1216 2880 L 1248,2528 L 1472,2432 L 1472,2560 L 1384,2592 L 1344,2880 L 1216,2880" stroke="black" fill-rule="evenodd" stroke-width="1"/>
    </g>
    <!-- Sector type 0 -->
    <g stroke="black" fill="white" opacity="1.000000" stroke-width="1">
    <path d=" M 1472 2432 L 1472,2560 L 1536,2560 L 1536,2432 L 1472,2432" stroke="black" fill-rule="evenodd" stroke-width="1"/>
    <!-- Type 1 -->
    <path d="M 1536 2432 L 1536 2560" stroke="green" stroke-width="3" />    </g>
    <!-- Sector type 0 -->
    <g stroke="black" fill="white" opacity="1.000000" stroke-width="1">
    <path d=" M 1552 2560 L 1552,2432 L 1536,2432 L 1536,2560 L 1552,2560" stroke="black" fill-rule="evenodd" stroke-width="1"/>
    <!-- Type 1 -->
    <path d="M 1536 2432 L 1536 2560" stroke="green" stroke-width="3" />    <!-- Type 1 -->
    <path d="M 1552 2560 L 1552 2432" stroke="green" stroke-width="3" />    </g>
    <!-- Sector type 0 -->
    <g stroke="black" fill="white" opacity="1.000000" stroke-width="1">
    <path d=" M 1344 3104 L 1216,3072 L 1184,3072 L 928,3072 L 896,3072 L 896,3104 L 896,3360 L 896,3392 L 928,3392 L 1184,3392 L 1216,3392 L 1344,3360 L 1344,3392 L 1344,3520 L 1344,3552 L 1280,3552 L 1152,3648 L 1088,3648 L 1024,3648 L 960,3648 L 832,3552 L 704,3552 L 704,3360 L 704,3104 L 704,2944 L 832,2944 L 968,2880 L 1216,2880 L 1344,2880 L 1344,3104" stroke="black" fill-rule="evenodd" stroke-width="1"/>
    <!-- Type 38 -->
    <path d="M 1344 3392 L 1344 3520" stroke="orange" stroke-width="3" />    </g>
    <!-- Sector type 1 -->
    <g stroke="black" fill="white" opacity="1.000000" stroke-width="1">
    <path d=" M 1088 3680 L 1024,3680 L 1024,3648 L 1088,3648 L 1088,3680" stroke="black" fill-rule="evenodd" stroke-width="1"/>
    </g>
    <!-- Sector type 0 -->
    <g stroke="black" fill="white" opacity="1.000000" stroke-width="1">
    <path d=" M 64 2816 L -640,2944 L -640,3520 L 64,3648 L -640,3648 L -768,3520 L -768,2944 L -640,2816 L 64,2816" stroke="black" fill-rule="evenodd" stroke-width="1"/>
    </g>
    <!-- Sector type 0 -->
    <g stroke="black" fill="white" opacity="1.000000" stroke-width="1">
    <path d=" M -96 3344 L 64,3520 L 64,3648 L -640,3520 L -640,2944 L 64,2816 L 64,2944 L -96,3120 L -128,3120 L -256,3120 L -336,3120 L -336,3168 L -336,3296 L -336,3344 L -256,3344 L -128,3344 L -96,3344" stroke="black" fill-rule="evenodd" stroke-width="1"/>
    </g>
    <!-- Sector type 0 -->
    <g stroke="black" fill="white" opacity="1.000000" stroke-width="1">
    <path d=" M 2736 3112 L 2752,3112 L 2752,3360 L 2736,3360 L 2736,3112" stroke="black" fill-rule="evenodd" stroke-width="1"/>
    </g>
    <!-- Sector type 0 -->
    <g stroke="black" fill="white" opacity="1.000000" stroke-width="1">
    <path d=" M 1376 3360 L 1376,3264 L 1344,3264 L 1344,3360 L 1376,3360" stroke="black" fill-rule="evenodd" stroke-width="1"/>
    </g>
    <!-- Sector type 0 -->
    <g stroke="black" fill="white" opacity="1.000000" stroke-width="1">
    <path d=" M 1344 3104 L 1344,3200 L 1376,3200 L 1376,3104 L 1344,3104" stroke="black" fill-rule="evenodd" stroke-width="1"/>
    </g>
    <!-- Sector type 0 -->
    <g stroke="black" fill="white" opacity="1.000000" stroke-width="1">
    <path d=" M 2176 2560 L 2144,2560 L 2144,2304 L 2176,2304 L 2176,2560" stroke="black" fill-rule="evenodd" stroke-width="1"/>
    </g>
    <!-- Sector type 0 -->
    <g stroke="black" fill="white" opacity="1.000000" stroke-width="1">
    <path d=" M 288 3200 L 288,3264 L 320,3264 L 320,3200 L 288,3200" stroke="black" fill-rule="evenodd" stroke-width="1"/>
    </g>
    <!-- Sector type 0 -->
    <g stroke="black" fill="white" opacity="1.000000" stroke-width="1">
    <path d=" M 2208 2560 L 2176,2560 L 2176,2304 L 2208,2304 L 2208,2560" stroke="black" fill-rule="evenodd" stroke-width="1"/>
    </g>
    <!-- Sector type 0 -->
    <g stroke="black" fill="white" opacity="1.000000" stroke-width="1">
    <path d=" M 288 3200 L 256,3200 L 256,3264 L 288,3264 L 288,3200" stroke="black" fill-rule="evenodd" stroke-width="1"/>
    </g>
    <!-- Sector type 0 -->
    <g stroke="black" fill="white" opacity="1.000000" stroke-width="1">
    <path d=" M 2208 2560 L 2208,2304 L 2304,2304 L 2304,2560 L 2208,2560" stroke="black" fill-rule="evenodd" stroke-width="1"/>
    </g>
    <!-- Sector type 0 -->
    <g stroke="black" fill="white" opacity="1.000000" stroke-width="1">
    <path d=" M 1664 2816 L 1664,2752 L 2176,2752 L 2176,2816 L 1664,2816" stroke="black" fill-rule="evenodd" stroke-width="1"/>
    </g>
    <!-- Sector type 0 -->
    <g stroke="black" fill="white" opacity="1.000000" stroke-width="1">
    <path d=" M 2496 2048 L 2560,2048 L 2560,2112 L 2560,2496 L 2496,2496 L 2496,2112 L 1664,2112 L 1664,2368 L 1600,2368 L 1600,2112 L 1600,2048 L 1664,2048 L 2496,2048" stroke="black" fill-rule="evenodd" stroke-width="1"/>
    </g>
    <!-- Sector type 0 -->
    <g stroke="black" fill="white" opacity="1.000000" stroke-width="1">
    <path d=" M 1664 2816 L 1600,2816 L 1600,2752 L 1600,2624 L 1664,2624 L 1664,2752 L 1664,2816" stroke="black" fill-rule="evenodd" stroke-width="1"/>
    </g>
    <!-- Sector type 8 -->
    <g stroke="black" fill="white" opacity="1.000000" stroke-width="1">
    <path d=" M 256 3328 L 256,3392 L 320,3392 L 320,3328 L 256,3328" stroke="black" fill-rule="evenodd" stroke-width="1"/>
    </g>
    <!-- Sector type 8 -->
    <g stroke="black" fill="white" opacity="1.000000" stroke-width="1">
    <path d=" M 256 3072 L 256,3136 L 320,3136 L 320,3072 L 256,3072" stroke="black" fill-rule="evenodd" stroke-width="1"/>
    <!-- Type 63 -->
    <path d="M 320 3072 L 256 3072" stroke="orange" stroke-width="3" />    </g>
    <!-- Sector type 0 -->
    <g stroke="black" fill="white" opacity="1.000000" stroke-width="1">
    <path d=" M 256 3200 L 224,3200 L 224,3264 L 256,3264 L 256,3200" stroke="black" fill-rule="evenodd" stroke-width="1"/>
    </g>
    <!-- Sector type 0 -->
    <g stroke="black" fill="white" opacity="1.000000" stroke-width="1">
    <path d=" M 224 3200 L 192,3200 L 192,3264 L 224,3264 L 224,3200" stroke="black" fill-rule="evenodd" stroke-width="1"/>
    </g>
    <!-- Sector type 0 -->
    <g stroke="black" fill="white" opacity="1.000000" stroke-width="1">
    <path d=" M 192 3200 L 160,3200 L 160,3264 L 192,3264 L 192,3200" stroke="black" fill-rule="evenodd" stroke-width="1"/>
    </g>
    <!-- Sector type 0 -->
    <g stroke="black" fill="white" opacity="1.000000" stroke-width="1">
    <path d=" M 128 3264 L 160,3264 L 160,3200 L 128,3200 L 128,3264" stroke="black" fill-rule="evenodd" stroke-width="1"/>
    </g>
    <!-- Sector type 0 -->
    <g stroke="black" fill="white" opacity="1.000000" stroke-width="1">
    <path d=" M 3472 3432 L 3408,3432 L 3312,3496 L 3352,3568 L 3448,3520 L 3472,3432" stroke="black" fill-rule="evenodd" stroke-width="1"/>
    </g>
    <!-- Sector type 0 -->
    <g stroke="black" fill="white" opacity="1.000000" stroke-width="1">
    <path d=" M -128 3328 L -256,3328 L -320,3296 L -320,3168 L -256,3136 L -128,3136 L -88,3136 L -64,3136 L -64,3328 L -88,3328 L -128,3328 M -208 3264 L -192,3248 L -192,3216 L -208,3200 L -240,3200 L -256,3216 L -256,3248 L -240,3264 L -208,3264" stroke="black" fill-rule="evenodd" stroke-width="1"/>
    <!-- Type 48 -->
    <path d="M -240 3264 L -208 3264" stroke="orange" stroke-width="3" />    <!-- Type 48 -->
    <path d="M -208 3264 L -192 3248" stroke="orange" stroke-width="3" />    <!-- Type 48 -->
    <path d="M -192 3248 L -192 3216" stroke="orange" stroke-width="3" />    <!-- Type 48 -->
    <path d="M -192 3216 L -208 3200" stroke="orange" stroke-width="3" />    <!-- Type 48 -->
    <path d="M -208 3200 L -240 3200" stroke="orange" stroke-width="3" />    <!-- Type 48 -->
    <path d="M -240 3200 L -256 3216" stroke="orange" stroke-width="3" />    <!-- Type 48 -->
    <path d="M -256 3216 L -256 3248" stroke="orange" stroke-width="3" />    <!-- Type 48 -->
    <path d="M -256 3248 L -240 3264" stroke="orange" stroke-width="3" />    </g>
    <!-- Sector type 0 -->
    <g stroke="black" fill="white" opacity="1.000000" stroke-width="1">
    <path d=" M 48 3392 L 64,3392 L 128,3264 L 128,3200 L 64,3072 L 48,3072 L -64,3136 L -64,3328 L 48,3392" stroke="black" fill-rule="evenodd" stroke-width="1"/>
    </g>
    <!-- Sector type 0 -->
    <g stroke="black" fill="white" opacity="1.000000" stroke-width="1">
    <path d=" M 3320 3040 L 3360,2880 L 3584,2880 L 3808,3264 L 3680,3392 L 3680,3552 L 3744,3808 L 3680,3904 L 3584,3904 L 3584,3840 L 3616,3776 L 3552,3552 L 3552,3392 L 3648,3264 L 3496,3032 L 3456,3032 L 3416,3152 L 3400,3152 L 3304,3040 L 3320,3040" stroke="black" fill-rule="evenodd" stroke-width="1"/>
    </g>
    <!-- Sector type 9 -->
    <g stroke="aqua" fill="aqua" opacity="1.000000" stroke-width="1">
    <path d=" M 3536 3840 L 3520,3840 L 3520,3904 L 3536,3904 L 3584,3904 L 3584,3840 L 3536,3840" stroke="aqua" fill-rule="evenodd" stroke-width="1"/>
    </g>
    <!-- Sector type 0 -->
    <g stroke="black" fill="white" opacity="1.000000" stroke-width="1">
    <path d=" M -192 3216 L -208,3200 L -240,3200 L -256,3216 L -256,3248 L -240,3264 L -208,3264 L -192,3248 L -192,3216" stroke="black" fill-rule="evenodd" stroke-width="1"/>
    <!-- Type 48 -->
    <path d="M -240 3264 L -208 3264" stroke="orange" stroke-width="3" />    <!-- Type 48 -->
    <path d="M -208 3264 L -192 3248" stroke="orange" stroke-width="3" />    <!-- Type 48 -->
    <path d="M -192 3248 L -192 3216" stroke="orange" stroke-width="3" />    <!-- Type 48 -->
    <path d="M -192 3216 L -208 3200" stroke="orange" stroke-width="3" />    <!-- Type 48 -->
    <path d="M -208 3200 L -240 3200" stroke="orange" stroke-width="3" />    <!-- Type 48 -->
    <path d="M -240 3200 L -256 3216" stroke="orange" stroke-width="3" />    <!-- Type 48 -->
    <path d="M -256 3216 L -256 3248" stroke="orange" stroke-width="3" />    <!-- Type 48 -->
    <path d="M -256 3248 L -240 3264" stroke="orange" stroke-width="3" />    </g>
    <!-- Sector type 0 -->
    <g stroke="black" fill="white" opacity="1.000000" stroke-width="1">
    <path d=" M -128 3120 L -128,3136 L -256,3136 L -256,3120 L -128,3120" stroke="black" fill-rule="evenodd" stroke-width="1"/>
    </g>
    <!-- Sector type 0 -->
    <g stroke="black" fill="white" opacity="1.000000" stroke-width="1">
    <path d=" M -336 3168 L -320,3168 L -320,3296 L -336,3296 L -336,3168" stroke="black" fill-rule="evenodd" stroke-width="1"/>
    </g>
    <!-- Sector type 0 -->
    <g stroke="black" fill="white" opacity="1.000000" stroke-width="1">
    <path d=" M -256 3344 L -256,3328 L -128,3328 L -128,3344 L -256,3344" stroke="black" fill-rule="evenodd" stroke-width="1"/>
    </g>
  </g>
</svg>
