<?xml version="1.0" standalone="no"?>
<svg width="1280" height="1024" viewBox="-960 -3992 3456 4440" xmlns="http://www.w3.org/2000/svg">
  <title>NEIS.wad - E1M1</title>
  <g fill-rule="evenodd">
    <!-- Sector type 0 -->
    <g fill="white" stroke="black" opacity="1.0" stroke-width="1">
    <path d="M 256 -3584 L 256 -3616 128 -3616 128 -3528 224 -3368 224 -3104 224 -3088 352 -3088 352 -3104 352 -3456 256 -3584 M 264 -3336 L 264 -3264 312 -3264 312 -3336 264 -3336 M 264 -3136 L 312 -3136 312 -3208 264 -3208 264 -3136 M 248 -3456 L 248 -3528 200 -3528 200 -3456 248 -3456 "/>
    <!-- Type 2 -->
    <path d="M 224 -3088 L 352 -3088" stroke="green" stroke-width="3" />    </g>
    <!-- Sector type 12 -->
    <g fill="white" stroke="black" opacity="1.0" stroke-width="1">
    <path d="M 256 384 L 256 320 384 320 384 384 256 384 "/>
    </g>
    <!-- Sector type 0 -->
    <g fill="white" stroke="black" opacity="1.0" stroke-width="1">
    <path d="M -64 96 L 64 96 128 96 128 384 0 384 -64 384 -128 384 -128 96 -64 96 "/>
    <!-- Type 31 -->
    <path d="M -64 96 L 64 96" stroke="orange" stroke-width="3" />    </g>
    <!-- Sector type 0 -->
    <g fill="white" stroke="black" opacity="1.0" stroke-width="1">
    <path d="M 448 -616 L 448 -464 448 -448 160 -448 160 -496 128 -512 128 -640 144 -656 272 -656 448 -616 "/>
    </g>
    <!-- Sector type 0 -->
    <g fill="white" stroke="black" opacity="1.0" stroke-width="1">
    <path d="M 64 96 L -64 96 -64 80 64 80 64 96 "/>
    <!-- Type 31 -->
    <path d="M 64 80 L -64 80" stroke="orange" stroke-width="3" />    <!-- Type 31 -->
    <path d="M -64 96 L 64 96" stroke="orange" stroke-width="3" />    </g>
    <!-- Sector type 0 -->
    <g fill="white" stroke="black" opacity="1.0" stroke-width="1">
    <path d="M 128 80 L 64 80 -64 80 -128 80 -128 64 128 64 128 80 "/>
    <!-- Type 31 -->
    <path d="M 64 80 L -64 80" stroke="orange" stroke-width="3" />    </g>
    <!-- Sector type 0 -->
    <g fill="white" stroke="black" opacity="1.0" stroke-width="1">
    <path d="M 128 64 L -128 64 -128 -240 -96 -256 96 -256 128 -240 128 64 "/>
    </g>
    <!-- Sector type 7 -->
    <g fill="red" stroke="red" opacity="0.05" stroke-width="1">
    <path d="M -168 -640 L -144 -640 -72 -648 -64 -712 -64 -736 64 -736 64 -712 72 -648 104 -640 128 -640 128 -512 104 -512 96 -496 96 -432 120 -432 144 -432 144 -304 120 -304 96 -280 96 -256 -96 -256 -96 -280 -112 -288 -152 -288 -176 -288 -176 -416 -152 -416 -128 -416 -112 -440 -112 -504 -128 -512 -144 -512 -168 -512 -168 -640 "/>
    </g>
    <!-- Sector type 0 -->
    <g fill="white" stroke="black" opacity="1.0" stroke-width="1">
    <path d="M -112 -752 L -112 -688 -128 -664 -168 -664 -168 -640 -168 -512 -208 -512 -208 -416 -176 -416 -176 -288 -192 -288 -192 -256 -160 -240 -128 -240 -128 64 -128 80 -256 80 -384 -32 -384 -512 -512 -640 -608 -640 -624 -656 -624 -872 -624 -896 -600 -896 -560 -872 -560 -816 -560 -784 -560 -752 -432 -752 -368 -752 -112 -752 "/>
    </g>
    <!-- Sector type 0 -->
    <g fill="white" stroke="black" opacity="1.0" stroke-width="1">
    <path d="M -320 384 L -320 96 -128 96 -128 384 -320 384 M 256 320 L 256 384 128 384 128 96 192 96 192 288 256 320 "/>
    </g>
    <!-- Sector type 0 -->
    <g fill="white" stroke="black" opacity="1.0" stroke-width="1">
    <path d="M 128 64 L 128 -240 168 -256 168 -280 144 -304 144 -432 160 -448 448 -448 448 -384 448 -256 384 -152 384 -128 384 0 384 32 272 80 128 80 128 64 "/>
    </g>
    <!-- Sector type 0 -->
    <g fill="white" stroke="black" opacity="1.0" stroke-width="1">
    <path d="M 144 -688 L 144 -656 272 -656 272 -688 144 -688 "/>
    </g>
    <!-- Sector type 0 -->
    <g fill="white" stroke="black" opacity="1.0" stroke-width="1">
    <path d="M 464 -616 L 464 -472 464 -464 448 -464 448 -616 464 -616 "/>
    </g>
    <!-- Sector type 13 -->
    <g fill="white" stroke="black" opacity="1.0" stroke-width="1">
    <path d="M 544 -400 L 512 -400 512 -432 736 -432 736 -400 704 -400 544 -400 "/>
    </g>
    <!-- Sector type 0 -->
    <g fill="white" stroke="black" opacity="1.0" stroke-width="1">
    <path d="M 384 -128 L 384 0 448 0 448 -128 384 -128 "/>
    </g>
    <!-- Sector type 13 -->
    <g fill="white" stroke="black" opacity="1.0" stroke-width="1">
    <path d="M 512 -384 L 736 -384 736 -400 704 -400 544 -400 512 -400 512 -384 "/>
    </g>
    <!-- Sector type 0 -->
    <g fill="white" stroke="black" opacity="1.0" stroke-width="1">
    <path d="M 448 -384 L 448 -256 512 -256 512 -384 448 -384 "/>
    </g>
    <!-- Sector type 0 -->
    <g fill="white" stroke="black" opacity="1.0" stroke-width="1">
    <path d="M 992 -64 L 992 -192 928 -192 928 -64 992 -64 "/>
    </g>
    <!-- Sector type 0 -->
    <g fill="white" stroke="black" opacity="1.0" stroke-width="1">
    <path d="M 536 -504 L 536 -616 600 -616 632 -640 656 -640 736 -536 736 -432 512 -432 496 -464 464 -464 464 -472 504 -472 536 -504 "/>
    </g>
    <!-- Sector type 9 -->
    <g fill="aqua" stroke="aqua" opacity="0.5" stroke-width="1">
    <path d="M 744 64 L 792 64 792 192 664 192 576 64 448 64 448 0 448 -128 512 -232 512 -256 512 -384 736 -384 792 -320 792 -256 768 -256 768 -224 792 -192 792 -64 744 -64 744 64 M 656 -128 L 672 -144 672 -176 656 -192 624 -192 608 -176 608 -144 624 -128 656 -128 "/>
    <!-- Type 63 -->
    <path d="M 792 -320 L 792 -256" stroke="orange" stroke-width="3" />    <!-- Type 88 -->
    <path d="M 792 64 L 792 192" stroke="blue" stroke-width="3" />    </g>
    <!-- Sector type 0 -->
    <g fill="white" stroke="black" opacity="1.0" stroke-width="1">
    <path d="M 792 -192 L 928 -192 928 -64 896 -64 840 -64 896 -64 896 64 928 64 928 192 792 192 792 64 840 64 840 -64 792 -64 792 -192 "/>
    <!-- Type 88 -->
    <path d="M 896 -64 L 840 -64" stroke="blue" stroke-width="3" />    <!-- Type 88 -->
    <path d="M 896 -64 L 840 -64" stroke="blue" stroke-width="3" />    <!-- Type 88 -->
    <path d="M 792 64 L 792 192" stroke="blue" stroke-width="3" />    <!-- Type 62 -->
    <path d="M 928 64 L 928 192" stroke="blue" stroke-width="3" />    </g>
    <!-- Sector type 0 -->
    <g fill="white" stroke="black" opacity="1.0" stroke-width="1">
    <path d="M 992 192 L 928 192 928 64 992 64 992 192 "/>
    <!-- Type 62 -->
    <path d="M 928 64 L 928 192" stroke="blue" stroke-width="3" />    <!-- Type 88 -->
    <path d="M 992 192 L 992 64" stroke="blue" stroke-width="3" />    </g>
    <!-- Sector type 0 -->
    <g fill="white" stroke="black" opacity="1.0" stroke-width="1">
    <path d="M 992 -64 L 992 -192 1088 -192 1088 -64 1088 192 992 192 992 64 992 -64 "/>
    <!-- Type 88 -->
    <path d="M 992 192 L 992 64" stroke="blue" stroke-width="3" />    </g>
    <!-- Sector type 0 -->
    <g fill="white" stroke="black" opacity="1.0" stroke-width="1">
    <path d="M 808 -320 L 792 -320 792 -256 808 -256 808 -320 "/>
    <!-- Type 63 -->
    <path d="M 792 -320 L 792 -256" stroke="orange" stroke-width="3" />    <!-- Type 1 -->
    <path d="M 808 -256 L 808 -320" stroke="green" stroke-width="3" />    </g>
    <!-- Sector type 0 -->
    <g fill="white" stroke="black" opacity="1.0" stroke-width="1">
    <path d="M 368 -960 L 368 -720 352 -720 352 -960 368 -960 "/>
    </g>
    <!-- Sector type 0 -->
    <g fill="white" stroke="black" opacity="1.0" stroke-width="1">
    <path d="M 1088 -416 L 1088 -384 872 -384 872 -416 1088 -416 "/>
    </g>
    <!-- Sector type 0 -->
    <g fill="white" stroke="black" opacity="1.0" stroke-width="1">
    <path d="M 1152 -256 L 1152 -368 1168 -384 1280 -384 1296 -368 1296 -272 1264 -240 1168 -240 1152 -256 "/>
    </g>
    <!-- Sector type 0 -->
    <g fill="white" stroke="black" opacity="1.0" stroke-width="1">
    <path d="M 1120 -368 L 1152 -368 1152 -256 1120 -256 1120 -368 "/>
    </g>
    <!-- Sector type 0 -->
    <g fill="white" stroke="black" opacity="1.0" stroke-width="1">
    <path d="M 1168 -416 L 1152 -432 1104 -432 1104 -576 1256 -576 1280 -520 1280 -416 1168 -416 "/>
    </g>
    <!-- Sector type 0 -->
    <g fill="white" stroke="black" opacity="1.0" stroke-width="1">
    <path d="M 1088 -384 L 1120 -368 1120 -256 808 -256 808 -320 872 -384 1088 -384 "/>
    <!-- Type 1 -->
    <path d="M 808 -256 L 808 -320" stroke="green" stroke-width="3" />    </g>
    <!-- Sector type 0 -->
    <g fill="white" stroke="black" opacity="1.0" stroke-width="1">
    <path d="M 1280 -416 L 1280 -384 1168 -384 1168 -416 1280 -416 "/>
    </g>
    <!-- Sector type 0 -->
    <g fill="white" stroke="black" opacity="1.0" stroke-width="1">
    <path d="M 64 -960 L 64 -848 64 -840 64 -736 -64 -736 -64 -752 -64 -960 64 -960 "/>
    </g>
    <!-- Sector type 0 -->
    <g fill="white" stroke="black" opacity="1.0" stroke-width="1">
    <path d="M 1104 -432 L 1088 -416 872 -416 760 -432 736 -432 736 -536 656 -640 656 -672 848 -672 848 -640 864 -624 896 -624 912 -640 1040 -640 1104 -576 1104 -432 "/>
    </g>
    <!-- Sector type 0 -->
    <g fill="white" stroke="black" opacity="1.0" stroke-width="1">
    <path d="M 608 -1088 L 640 -1088 640 -704 608 -704 608 -1088 "/>
    </g>
    <!-- Sector type 0 -->
    <g fill="white" stroke="black" opacity="1.0" stroke-width="1">
    <path d="M 1040 -672 L 912 -672 912 -640 1040 -640 1040 -672 "/>
    </g>
    <!-- Sector type 0 -->
    <g fill="white" stroke="black" opacity="1.0" stroke-width="1">
    <path d="M -64 -960 L 64 -960 64 -992 -64 -992 -64 -960 "/>
    </g>
    <!-- Sector type 7 -->
    <g fill="red" stroke="red" opacity="0.05" stroke-width="1">
    <path d="M -80 -752 L -64 -752 -64 -960 -80 -960 -80 -752 "/>
    </g>
    <!-- Sector type 0 -->
    <g fill="white" stroke="black" opacity="1.0" stroke-width="1">
    <path d="M 864 -688 L 848 -672 656 -672 640 -704 640 -1088 672 -1088 864 -1088 880 -1088 880 -960 912 -928 1120 -928 1120 -896 1120 -720 1120 -688 1056 -688 1040 -672 912 -672 896 -688 864 -688 "/>
    </g>
    <!-- Sector type 0 -->
    <g fill="white" stroke="black" opacity="1.0" stroke-width="1">
    <path d="M 96 -960 L 80 -960 80 -976 352 -976 352 -960 128 -960 96 -960 "/>
    </g>
    <!-- Sector type 0 -->
    <g fill="white" stroke="black" opacity="1.0" stroke-width="1">
    <path d="M 64 -848 L 64 -960 80 -960 96 -960 96 -848 64 -848 "/>
    </g>
    <!-- Sector type 0 -->
    <g fill="white" stroke="black" opacity="1.0" stroke-width="1">
    <path d="M 368 -960 L 368 -976 480 -1088 608 -1088 608 -704 504 -704 368 -720 368 -960 "/>
    </g>
    <!-- Sector type 0 -->
    <g fill="white" stroke="black" opacity="1.0" stroke-width="1">
    <path d="M 456 -696 L 464 -696 464 -632 456 -632 456 -696 "/>
    <!-- Type 62 -->
    <path d="M 464 -696 L 464 -632" stroke="blue" stroke-width="3" />    </g>
    <!-- Sector type 0 -->
    <g fill="white" stroke="black" opacity="1.0" stroke-width="1">
    <path d="M 112 -1216 L 144 -1232 144 -1392 112 -1408 80 -1408 80 -1536 80 -1560 384 -1560 456 -1376 512 -1376 512 -1248 480 -1248 432 -1200 432 -1136 464 -1104 480 -1088 368 -976 352 -976 80 -976 80 -1024 80 -1088 80 -1216 112 -1216 "/>
    </g>
    <!-- Sector type 7 -->
    <g fill="red" stroke="red" opacity="0.05" stroke-width="1">
    <path d="M 128 -840 L 128 -960 352 -960 352 -720 224 -720 80 -736 64 -736 64 -840 128 -840 "/>
    </g>
    <!-- Sector type 0 -->
    <g fill="white" stroke="black" opacity="1.0" stroke-width="1">
    <path d="M 128 -960 L 128 -840 64 -840 64 -848 96 -848 96 -960 128 -960 "/>
    </g>
    <!-- Sector type 9 -->
    <g fill="aqua" stroke="aqua" opacity="0.5" stroke-width="1">
    <path d="M 464 -632 L 464 -696 536 -696 536 -632 464 -632 "/>
    <!-- Type 62 -->
    <path d="M 464 -696 L 464 -632" stroke="blue" stroke-width="3" />    </g>
    <!-- Sector type 7 -->
    <g fill="red" stroke="red" opacity="0.05" stroke-width="1">
    <path d="M 280 -712 L 352 -712 352 -720 224 -720 80 -736 80 -712 280 -712 "/>
    <!-- Type 62 -->
    <path d="M 352 -712 L 280 -712" stroke="blue" stroke-width="3" />    </g>
    <!-- Sector type 0 -->
    <g fill="white" stroke="black" opacity="1.0" stroke-width="1">
    <path d="M 544 -1376 L 512 -1376 512 -1248 544 -1248 544 -1376 "/>
    </g>
    <!-- Sector type 0 -->
    <g fill="white" stroke="black" opacity="1.0" stroke-width="1">
    <path d="M 1472 -1216 L 1536 -1216 1568 -1248 1648 -1248 1664 -1232 1696 -1232 1712 -1248 1712 -1312 1696 -1328 1664 -1328 1648 -1312 1568 -1312 1536 -1344 1472 -1344 1456 -1328 1376 -1328 1344 -1360 1280 -1360 1280 -1424 1296 -1440 1344 -1440 1728 -1440 1776 -1440 1792 -1424 1792 -1392 1792 -1360 1792 -1328 1792 -1296 1792 -1264 1792 -1232 1792 -1200 1792 -1168 1792 -1136 1776 -1120 1728 -1120 1344 -1120 1296 -1120 1280 -1136 1280 -1200 1344 -1200 1376 -1232 1456 -1232 1472 -1216 "/>
    </g>
    <!-- Sector type 8 -->
    <g fill="white" stroke="black" opacity="1.0" stroke-width="1">
    <path d="M 672 -1200 L 672 -1216 864 -1216 864 -1200 864 -1104 864 -1088 672 -1088 672 -1104 672 -1200 "/>
    </g>
    <!-- Sector type 8 -->
    <g fill="white" stroke="black" opacity="1.0" stroke-width="1">
    <path d="M 672 -1488 L 672 -1504 864 -1504 864 -1488 864 -1392 864 -1376 672 -1376 672 -1392 672 -1488 "/>
    </g>
    <!-- Sector type 0 -->
    <g fill="white" stroke="black" opacity="1.0" stroke-width="1">
    <path d="M 544 -1248 L 544 -1376 608 -1376 672 -1376 864 -1376 880 -1376 928 -1344 928 -1216 864 -1216 672 -1216 616 -1216 576 -1248 544 -1248 "/>
    </g>
    <!-- Sector type 0 -->
    <g fill="white" stroke="black" opacity="1.0" stroke-width="1">
    <path d="M 960 -1216 L 928 -1216 928 -1344 960 -1344 960 -1216 "/>
    </g>
    <!-- Sector type 0 -->
    <g fill="white" stroke="black" opacity="1.0" stroke-width="1">
    <path d="M 1184 -1344 L 960 -1344 960 -1216 1184 -1216 1184 -1344 "/>
    </g>
    <!-- Sector type 0 -->
    <g fill="white" stroke="black" opacity="1.0" stroke-width="1">
    <path d="M 1648 -1248 L 1648 -1312 1664 -1328 1696 -1328 1712 -1312 1712 -1248 1696 -1232 1664 -1232 1648 -1248 "/>
    </g>
    <!-- Sector type 0 -->
    <g fill="white" stroke="black" opacity="1.0" stroke-width="1">
    <path d="M 1184 -1216 L 1216 -1216 1216 -1344 1184 -1344 1184 -1216 "/>
    </g>
    <!-- Sector type 0 -->
    <g fill="white" stroke="black" opacity="1.0" stroke-width="1">
    <path d="M 1248 -1664 L 1248 -1792 1248 -1856 2368 -1728 2368 -384 1984 -128 1312 32 1312 -64 1312 -192 1312 -576 1264 -608 1152 -608 1152 -720 1152 -896 1152 -1088 1344 -1088 1728 -1088 1776 -1088 1824 -1136 1824 -1168 1824 -1264 1824 -1296 1824 -1392 1824 -1424 1776 -1472 1728 -1472 1344 -1472 1248 -1472 1248 -1664 M 1888 -1344 L 1888 -1280 1952 -1280 1952 -1344 1888 -1344 "/>
    </g>
    <!-- Sector type 0 -->
    <g fill="white" stroke="black" opacity="1.0" stroke-width="1">
    <path d="M 1728 -1088 L 1344 -1088 1344 -1120 1728 -1120 1728 -1088 "/>
    </g>
    <!-- Sector type 0 -->
    <g fill="white" stroke="black" opacity="1.0" stroke-width="1">
    <path d="M 1344 -1472 L 1728 -1472 1728 -1440 1344 -1440 1344 -1472 "/>
    </g>
    <!-- Sector type 0 -->
    <g fill="white" stroke="black" opacity="1.0" stroke-width="1">
    <path d="M 1792 -1232 L 1792 -1264 1824 -1264 1824 -1168 1792 -1168 1792 -1200 1792 -1232 "/>
    </g>
    <!-- Sector type 0 -->
    <g fill="white" stroke="black" opacity="1.0" stroke-width="1">
    <path d="M 1792 -1360 L 1792 -1392 1824 -1392 1824 -1296 1792 -1296 1792 -1328 1792 -1360 "/>
    </g>
    <!-- Sector type 0 -->
    <g fill="white" stroke="black" opacity="1.0" stroke-width="1">
    <path d="M 1264 -1344 L 1280 -1360 1280 -1200 1264 -1216 1216 -1216 1216 -1344 1264 -1344 M 1280 -1200 L 1280 -1360 1344 -1360 1376 -1328 1456 -1328 1472 -1344 1536 -1344 1568 -1312 1648 -1312 1648 -1248 1568 -1248 1536 -1216 1472 -1216 1456 -1232 1376 -1232 1344 -1200 1280 -1200 "/>
    </g>
    <!-- Sector type 0 -->
    <g fill="white" stroke="black" opacity="1.0" stroke-width="1">
    <path d="M 1120 -720 L 1120 -896 1152 -896 1152 -720 1120 -720 "/>
    </g>
    <!-- Sector type 0 -->
    <g fill="white" stroke="black" opacity="1.0" stroke-width="1">
    <path d="M -80 -1216 L -80 -1088 -80 -1056 -368 -1056 -256 -1248 -80 -1248 -80 -1216 "/>
    </g>
    <!-- Sector type 0 -->
    <g fill="white" stroke="black" opacity="1.0" stroke-width="1">
    <path d="M -64 -1024 L -64 -992 64 -992 64 -1024 -64 -1024 "/>
    </g>
    <!-- Sector type 0 -->
    <g fill="white" stroke="black" opacity="1.0" stroke-width="1">
    <path d="M 64 -1056 L 64 -1024 -64 -1024 -64 -1056 64 -1056 "/>
    </g>
    <!-- Sector type 0 -->
    <g fill="white" stroke="black" opacity="1.0" stroke-width="1">
    <path d="M -64 -1088 L 64 -1088 64 -1056 -64 -1056 -64 -1088 "/>
    </g>
    <!-- Sector type 0 -->
    <g fill="white" stroke="black" opacity="1.0" stroke-width="1">
    <path d="M -80 -1216 L -80 -1088 -64 -1088 -64 -1216 -80 -1216 "/>
    </g>
    <!-- Sector type 0 -->
    <g fill="white" stroke="black" opacity="1.0" stroke-width="1">
    <path d="M 2032 32 L 1312 32 1984 -128 2368 -384 2368 -1728 1248 -1856 2496 -1856 2496 -320 2032 32 "/>
    </g>
    <!-- Sector type 0 -->
    <g fill="white" stroke="black" opacity="1.0" stroke-width="1">
    <path d="M -448 -1424 L -576 -1424 -576 -1408 -448 -1408 -448 -1424 "/>
    </g>
    <!-- Sector type 0 -->
    <g fill="white" stroke="black" opacity="1.0" stroke-width="1">
    <path d="M -768 -1216 L -672 -1216 -672 -1088 -832 -1088 -768 -1216 "/>
    </g>
    <!-- Sector type 7 -->
    <g fill="red" stroke="red" opacity="0.05" stroke-width="1">
    <path d="M -96 -960 L -80 -960 -80 -752 -96 -752 -96 -960 "/>
    </g>
    <!-- Sector type 0 -->
    <g fill="white" stroke="black" opacity="1.0" stroke-width="1">
    <path d="M -432 -784 L -432 -752 -560 -752 -560 -784 -432 -784 "/>
    </g>
    <!-- Sector type 7 -->
    <g fill="red" stroke="red" opacity="0.05" stroke-width="1">
    <path d="M -368 -816 L -432 -816 -432 -992 -368 -992 -368 -1056 -80 -1056 -80 -976 -112 -976 -112 -960 -112 -752 -368 -752 -368 -816 "/>
    </g>
    <!-- Sector type 7 -->
    <g fill="red" stroke="red" opacity="0.05" stroke-width="1">
    <path d="M -112 -752 L -112 -960 -96 -960 -96 -752 -112 -752 "/>
    </g>
    <!-- Sector type 0 -->
    <g fill="white" stroke="black" opacity="1.0" stroke-width="1">
    <path d="M -560 -816 L -432 -816 -432 -784 -560 -784 -560 -816 "/>
    </g>
    <!-- Sector type 0 -->
    <g fill="white" stroke="black" opacity="1.0" stroke-width="1">
    <path d="M -432 -992 L -432 -816 -560 -816 -560 -872 -600 -896 -624 -896 -624 -1056 -432 -1056 -432 -992 "/>
    </g>
    <!-- Sector type 0 -->
    <g fill="white" stroke="black" opacity="1.0" stroke-width="1">
    <path d="M -352 -1472 L -352 -1600 -128 -1600 -80 -1552 -80 -1536 -64 -1536 -64 -1408 -80 -1408 -152 -1408 -224 -1472 -352 -1472 "/>
    <!-- Type 88 -->
    <path d="M -64 -1408 L -64 -1536" stroke="blue" stroke-width="3" />    <!-- Type 62 -->
    <path d="M -352 -1472 L -352 -1600" stroke="blue" stroke-width="3" />    </g>
    <!-- Sector type 0 -->
    <g fill="white" stroke="black" opacity="1.0" stroke-width="1">
    <path d="M 64 -1536 L 64 -1408 80 -1408 80 -1536 64 -1536 "/>
    </g>
    <!-- Sector type 0 -->
    <g fill="white" stroke="black" opacity="1.0" stroke-width="1">
    <path d="M 64 -1216 L 64 -1088 80 -1088 80 -1216 64 -1216 "/>
    </g>
    <!-- Sector type 0 -->
    <g fill="white" stroke="black" opacity="1.0" stroke-width="1">
    <path d="M -768 -1216 L -832 -1088 -896 -1152 -768 -1216 "/>
    </g>
    <!-- Sector type 0 -->
    <g fill="white" stroke="black" opacity="1.0" stroke-width="1">
    <path d="M -896 -1152 L -768 -1216 -896 -1216 -896 -1152 "/>
    </g>
    <!-- Sector type 0 -->
    <g fill="white" stroke="black" opacity="1.0" stroke-width="1">
    <path d="M -672 -1280 L -768 -1280 -832 -1408 -672 -1408 -672 -1280 "/>
    </g>
    <!-- Sector type 0 -->
    <g fill="white" stroke="black" opacity="1.0" stroke-width="1">
    <path d="M -896 -1344 L -832 -1408 -768 -1280 -896 -1344 "/>
    </g>
    <!-- Sector type 0 -->
    <g fill="white" stroke="black" opacity="1.0" stroke-width="1">
    <path d="M -576 -1280 L -448 -1280 -384 -1248 -256 -1248 -368 -1056 -432 -1056 -624 -1056 -672 -1088 -672 -1216 -624 -1216 -576 -1232 -576 -1280 "/>
    </g>
    <!-- Sector type 0 -->
    <g fill="white" stroke="black" opacity="1.0" stroke-width="1">
    <path d="M -896 -1280 L -768 -1280 -768 -1216 -896 -1216 -896 -1280 "/>
    </g>
    <!-- Sector type 0 -->
    <g fill="white" stroke="black" opacity="1.0" stroke-width="1">
    <path d="M -896 -1280 L -896 -1344 -768 -1280 -896 -1280 "/>
    </g>
    <!-- Sector type 0 -->
    <g fill="white" stroke="black" opacity="1.0" stroke-width="1">
    <path d="M -576 -1408 L -448 -1408 -256 -1408 -256 -1248 -384 -1248 -448 -1280 -576 -1280 -672 -1280 -672 -1408 -576 -1408 M -352 -1312 L -288 -1312 -288 -1376 -352 -1376 -352 -1312 "/>
    </g>
    <!-- Sector type 0 -->
    <g fill="white" stroke="black" opacity="1.0" stroke-width="1">
    <path d="M -960 -1152 L -896 -1152 -896 -1216 -896 -1280 -896 -1344 -960 -1344 -960 -1152 "/>
    </g>
    <!-- Sector type 0 -->
    <g fill="white" stroke="black" opacity="1.0" stroke-width="1">
    <path d="M -352 -1472 L -416 -1472 -416 -1600 -352 -1600 -352 -1472 "/>
    <!-- Type 62 -->
    <path d="M -416 -1600 L -352 -1600" stroke="blue" stroke-width="3" />    <!-- Type 62 -->
    <path d="M -352 -1472 L -352 -1600" stroke="blue" stroke-width="3" />    </g>
    <!-- Sector type 0 -->
    <g fill="white" stroke="black" opacity="1.0" stroke-width="1">
    <path d="M -288 -1312 L -288 -1376 -352 -1376 -352 -1312 -288 -1312 "/>
    </g>
    <!-- Sector type 0 -->
    <g fill="white" stroke="black" opacity="1.0" stroke-width="1">
    <path d="M -576 -1424 L -576 -1552 -536 -1600 -448 -1600 -416 -1600 -416 -1472 -448 -1424 -576 -1424 "/>
    </g>
    <!-- Sector type 0 -->
    <g fill="white" stroke="black" opacity="1.0" stroke-width="1">
    <path d="M -256 -2496 L -128 -2496 -128 -2464 -256 -2464 -256 -2496 "/>
    </g>
    <!-- Sector type 0 -->
    <g fill="white" stroke="black" opacity="1.0" stroke-width="1">
    <path d="M 128 -2528 L 256 -2528 256 -2560 128 -2560 128 -2528 "/>
    </g>
    <!-- Sector type 0 -->
    <g fill="white" stroke="black" opacity="1.0" stroke-width="1">
    <path d="M -256 -2464 L -128 -2464 -128 -2456 -128 -2432 -256 -2432 -256 -2464 "/>
    </g>
    <!-- Sector type 0 -->
    <g fill="white" stroke="black" opacity="1.0" stroke-width="1">
    <path d="M -128 -2400 L -128 -2432 -256 -2432 -256 -2400 -128 -2400 "/>
    </g>
    <!-- Sector type 0 -->
    <g fill="white" stroke="black" opacity="1.0" stroke-width="1">
    <path d="M -128 -2368 L -128 -2400 -256 -2400 -256 -2368 -128 -2368 "/>
    </g>
    <!-- Sector type 0 -->
    <g fill="white" stroke="black" opacity="1.0" stroke-width="1">
    <path d="M -128 -2336 L -128 -2368 -256 -2368 -256 -2336 -128 -2336 "/>
    </g>
    <!-- Sector type 0 -->
    <g fill="white" stroke="black" opacity="1.0" stroke-width="1">
    <path d="M 128 -2496 L 128 -2528 256 -2528 256 -2496 128 -2496 "/>
    </g>
    <!-- Sector type 0 -->
    <g fill="white" stroke="black" opacity="1.0" stroke-width="1">
    <path d="M -128 -2368 L -128 -2400 -128 -2432 -128 -2456 -112 -2456 -112 -2328 -128 -2328 -128 -2336 -128 -2368 "/>
    </g>
    <!-- Sector type 0 -->
    <g fill="white" stroke="black" opacity="1.0" stroke-width="1">
    <path d="M -128 -2560 L -128 -2528 -256 -2528 -256 -2560 -128 -2560 "/>
    </g>
    <!-- Sector type 0 -->
    <g fill="white" stroke="black" opacity="1.0" stroke-width="1">
    <path d="M -128 -2528 L -256 -2528 -256 -2496 -128 -2496 -128 -2528 "/>
    </g>
    <!-- Sector type 0 -->
    <g fill="white" stroke="black" opacity="1.0" stroke-width="1">
    <path d="M 0 -2240 L 64 -2240 64 -2208 -64 -2208 -64 -2240 0 -2240 "/>
    </g>
    <!-- Sector type 0 -->
    <g fill="white" stroke="black" opacity="1.0" stroke-width="1">
    <path d="M 128 -2496 L 256 -2496 256 -2464 128 -2464 128 -2496 "/>
    </g>
    <!-- Sector type 0 -->
    <g fill="white" stroke="black" opacity="1.0" stroke-width="1">
    <path d="M 112 -2472 L 112 -2456 112 -2328 112 -2240 64 -2240 0 -2240 -64 -2240 -112 -2240 -112 -2328 -112 -2456 -112 -2472 -96 -2496 -96 -2560 -128 -2560 -256 -2560 -256 -2688 -104 -2768 -104 -2736 -72 -2680 48 -2680 88 -2736 88 -2768 256 -2688 256 -2560 128 -2560 96 -2560 96 -2496 112 -2472 "/>
    </g>
    <!-- Sector type 0 -->
    <g fill="white" stroke="black" opacity="1.0" stroke-width="1">
    <path d="M 128 -2432 L 128 -2456 128 -2464 256 -2464 256 -2432 128 -2432 "/>
    </g>
    <!-- Sector type 0 -->
    <g fill="white" stroke="black" opacity="1.0" stroke-width="1">
    <path d="M 256 -2400 L 256 -2432 128 -2432 128 -2400 256 -2400 "/>
    </g>
    <!-- Sector type 0 -->
    <g fill="white" stroke="black" opacity="1.0" stroke-width="1">
    <path d="M 256 -2368 L 256 -2400 128 -2400 128 -2368 256 -2368 "/>
    </g>
    <!-- Sector type 0 -->
    <g fill="white" stroke="black" opacity="1.0" stroke-width="1">
    <path d="M 256 -2336 L 256 -2368 128 -2368 128 -2336 256 -2336 "/>
    </g>
    <!-- Sector type 0 -->
    <g fill="white" stroke="black" opacity="1.0" stroke-width="1">
    <path d="M -104 -2768 L -256 -2688 -256 -2560 -256 -2528 -256 -2496 -256 -2464 -256 -2432 -256 -2400 -256 -2368 -256 -2336 -128 -2336 -128 -2328 -128 -2296 -128 -2176 -192 -2176 -384 -2176 -384 -2496 -384 -2752 -128 -2944 -104 -2944 -104 -2768 M 384 -2496 L 384 -2752 128 -2944 88 -2944 88 -2768 256 -2688 256 -2560 256 -2528 256 -2496 256 -2464 256 -2432 256 -2400 256 -2368 256 -2336 128 -2336 128 -2328 128 -2296 128 -2176 192 -2176 384 -2176 384 -2496 "/>
    </g>
    <!-- Sector type 0 -->
    <g fill="white" stroke="black" opacity="1.0" stroke-width="1">
    <path d="M 128 -2432 L 128 -2400 128 -2368 128 -2336 128 -2328 112 -2328 112 -2456 128 -2456 128 -2432 "/>
    </g>
    <!-- Sector type 0 -->
    <g fill="white" stroke="black" opacity="1.0" stroke-width="1">
    <path d="M 64 -2944 L -64 -2944 -104 -2944 -104 -2768 -104 -2736 -72 -2680 48 -2680 88 -2736 88 -2768 88 -2944 64 -2944 "/>
    </g>
    <!-- Sector type 0 -->
    <g fill="white" stroke="black" opacity="1.0" stroke-width="1">
    <path d="M 64 -2960 L 64 -2944 -64 -2944 -64 -2960 64 -2960 "/>
    <!-- Type 1 -->
    <path d="M -64 -2960 L 64 -2960" stroke="green" stroke-width="3" />    </g>
    <!-- Sector type 0 -->
    <g fill="white" stroke="black" opacity="1.0" stroke-width="1">
    <path d="M -64 -2976 L -64 -2960 64 -2960 64 -2976 -64 -2976 "/>
    <!-- Type 1 -->
    <path d="M -64 -2960 L 64 -2960" stroke="green" stroke-width="3" />    <!-- Type 1 -->
    <path d="M 64 -2976 L -64 -2976" stroke="green" stroke-width="3" />    </g>
    <!-- Sector type 0 -->
    <g fill="white" stroke="black" opacity="1.0" stroke-width="1">
    <path d="M 64 -2992 L 64 -2976 -64 -2976 -64 -2992 64 -2992 "/>
    <!-- Type 1 -->
    <path d="M 64 -2976 L -64 -2976" stroke="green" stroke-width="3" />    </g>
    <!-- Sector type 0 -->
    <g fill="white" stroke="black" opacity="1.0" stroke-width="1">
    <path d="M -64 -3872 L -32 -3872 32 -3872 64 -3872 64 -3792 -64 -3792 -64 -3872 M -16 -3864 L -16 -3856 16 -3856 16 -3864 -16 -3864 "/>
    <!-- Type 31 -->
    <path d="M 64 -3872 L 64 -3792" stroke="orange" stroke-width="3" />    </g>
    <!-- Sector type 0 -->
    <g fill="white" stroke="black" opacity="1.0" stroke-width="1">
    <path d="M 384 -2496 L 448 -2496 448 -2176 384 -2176 384 -2496 "/>
    </g>
    <!-- Sector type 0 -->
    <g fill="white" stroke="black" opacity="1.0" stroke-width="1">
    <path d="M 192 -2112 L 192 -2176 384 -2176 384 -2112 192 -2112 "/>
    </g>
    <!-- Sector type 0 -->
    <g fill="white" stroke="black" opacity="1.0" stroke-width="1">
    <path d="M -448 -2176 L -448 -2496 -384 -2496 -384 -2176 -448 -2176 "/>
    </g>
    <!-- Sector type 0 -->
    <g fill="white" stroke="black" opacity="1.0" stroke-width="1">
    <path d="M -384 -2112 L -384 -2176 -192 -2176 -192 -2112 -384 -2112 "/>
    </g>
    <!-- Sector type 0 -->
    <g fill="white" stroke="black" opacity="1.0" stroke-width="1">
    <path d="M 544 -2192 L 544 -2176 464 -2176 464 -2496 544 -2496 544 -2480 560 -2464 576 -2464 576 -2208 560 -2208 544 -2192 "/>
    </g>
    <!-- Sector type 0 -->
    <g fill="white" stroke="black" opacity="1.0" stroke-width="1">
    <path d="M 464 -2496 L 448 -2496 448 -2176 464 -2176 464 -2496 "/>
    </g>
    <!-- Sector type 0 -->
    <g fill="white" stroke="black" opacity="1.0" stroke-width="1">
    <path d="M -544 -2464 L -528 -2480 -528 -2496 -464 -2496 -464 -2176 -528 -2176 -528 -2192 -544 -2208 -560 -2208 -560 -2464 -544 -2464 "/>
    </g>
    <!-- Sector type 0 -->
    <g fill="white" stroke="black" opacity="1.0" stroke-width="1">
    <path d="M -464 -2176 L -448 -2176 -448 -2496 -464 -2496 -464 -2176 "/>
    </g>
    <!-- Sector type 0 -->
    <g fill="white" stroke="black" opacity="1.0" stroke-width="1">
    <path d="M 208 -2016 L 192 -2016 192 -2096 384 -2096 384 -2016 368 -2016 352 -2000 352 -1984 224 -1984 224 -2000 208 -2016 "/>
    </g>
    <!-- Sector type 0 -->
    <g fill="white" stroke="black" opacity="1.0" stroke-width="1">
    <path d="M 384 -2112 L 384 -2096 192 -2096 192 -2112 384 -2112 "/>
    </g>
    <!-- Sector type 0 -->
    <g fill="white" stroke="black" opacity="1.0" stroke-width="1">
    <path d="M -368 -2016 L -384 -2016 -384 -2096 -192 -2096 -192 -2016 -208 -2016 -224 -2000 -224 -1984 -352 -1984 -352 -2000 -368 -2016 "/>
    </g>
    <!-- Sector type 0 -->
    <g fill="white" stroke="black" opacity="1.0" stroke-width="1">
    <path d="M -192 -2112 L -192 -2096 -384 -2096 -384 -2112 -192 -2112 "/>
    </g>
    <!-- Sector type 0 -->
    <g fill="white" stroke="black" opacity="1.0" stroke-width="1">
    <path d="M -32 -3912 L 32 -3912 32 -3872 -32 -3872 -32 -3888 -32 -3912 "/>
    <!-- Type 1 -->
    <path d="M -32 -3912 L 32 -3912" stroke="green" stroke-width="3" />    </g>
    <!-- Sector type 0 -->
    <g fill="white" stroke="black" opacity="1.0" stroke-width="1">
    <path d="M -32 -3928 L -32 -3912 32 -3912 32 -3928 -32 -3928 "/>
    <!-- Type 1 -->
    <path d="M -32 -3912 L 32 -3912" stroke="green" stroke-width="3" />    <!-- Type 1 -->
    <path d="M 32 -3928 L -32 -3928" stroke="green" stroke-width="3" />    </g>
    <!-- Sector type 0 -->
    <g fill="white" stroke="black" opacity="1.0" stroke-width="1">
    <path d="M 32 -3992 L 32 -3928 -32 -3928 -32 -3992 32 -3992 "/>
    <!-- Type 1 -->
    <path d="M 32 -3928 L -32 -3928" stroke="green" stroke-width="3" />    <!-- Type 11 -->
    <path d="M -32 -3992 L 32 -3992" stroke="purple" stroke-width="3" />    </g>
    <!-- Sector type 0 -->
    <g fill="white" stroke="black" opacity="1.0" stroke-width="1">
    <path d="M 1152 -64 L 1104 -64 1104 -192 1152 -192 1152 -64 "/>
    <!-- Type 1 -->
    <path d="M 1104 -64 L 1104 -192" stroke="green" stroke-width="3" />    <!-- Type 88 -->
    <path d="M 1152 -64 L 1152 -192" stroke="blue" stroke-width="3" />    </g>
    <!-- Sector type 0 -->
    <g fill="white" stroke="black" opacity="1.0" stroke-width="1">
    <path d="M 16 -3856 L 16 -3864 -16 -3864 -16 -3856 16 -3856 "/>
    </g>
    <!-- Sector type 0 -->
    <g fill="white" stroke="black" opacity="1.0" stroke-width="1">
    <path d="M 64 -2992 L -64 -2992 -64 -3776 64 -3776 64 -2992 "/>
    </g>
    <!-- Sector type 0 -->
    <g fill="white" stroke="black" opacity="1.0" stroke-width="1">
    <path d="M -64 -3792 L -64 -3776 64 -3776 64 -3792 -64 -3792 "/>
    </g>
    <!-- Sector type 0 -->
    <g fill="white" stroke="black" opacity="1.0" stroke-width="1">
    <path d="M 80 -3872 L 80 -3792 64 -3792 64 -3872 80 -3872 "/>
    <!-- Type 31 -->
    <path d="M 64 -3872 L 64 -3792" stroke="orange" stroke-width="3" />    </g>
    <!-- Sector type 9 -->
    <g fill="aqua" stroke="aqua" opacity="0.5" stroke-width="1">
    <path d="M 80 -3792 L 80 -3872 208 -3872 256 -3792 256 -3696 256 -3680 128 -3680 128 -3696 128 -3728 112 -3792 80 -3792 "/>
    <!-- Type 62 -->
    <path d="M 256 -3680 L 128 -3680" stroke="blue" stroke-width="3" />    </g>
    <!-- Sector type 9 -->
    <g fill="aqua" stroke="aqua" opacity="0.5" stroke-width="1">
    <path d="M 256 -3680 L 128 -3680 128 -3616 256 -3616 256 -3680 "/>
    <!-- Type 62 -->
    <path d="M 256 -3680 L 128 -3680" stroke="blue" stroke-width="3" />    </g>
    <!-- Sector type 2 -->
    <g fill="white" stroke="black" opacity="1.0" stroke-width="1">
    <path d="M 384 -3000 L 384 -2768 128 -2960 128 -3024 224 -3088 352 -3088 384 -3000 "/>
    <!-- Type 2 -->
    <path d="M 224 -3088 L 352 -3088" stroke="green" stroke-width="3" />    </g>
    <!-- Sector type 0 -->
    <g fill="white" stroke="black" opacity="1.0" stroke-width="1">
    <path d="M 128 -2960 L 128 -2944 384 -2752 384 -2768 128 -2960 "/>
    </g>
    <!-- Sector type 0 -->
    <g fill="white" stroke="black" opacity="1.0" stroke-width="1">
    <path d="M -64 448 L 0 448 0 384 -64 384 -64 448 "/>
    </g>
    <!-- Sector type 0 -->
    <g fill="white" stroke="black" opacity="1.0" stroke-width="1">
    <path d="M -64 -1216 L -64 -1408 -64 -1536 -64 -2208 64 -2208 64 -1920 64 -1792 64 -1536 64 -1408 64 -1216 64 -1088 -64 -1088 -64 -1216 "/>
    <!-- Type 88 -->
    <path d="M -64 -1408 L -64 -1536" stroke="blue" stroke-width="3" />    </g>
    <!-- Sector type 0 -->
    <g fill="white" stroke="black" opacity="1.0" stroke-width="1">
    <path d="M 240 -3520 L 208 -3520 208 -3464 240 -3464 240 -3520 "/>
    </g>
    <!-- Sector type 0 -->
    <g fill="white" stroke="black" opacity="1.0" stroke-width="1">
    <path d="M 240 -3464 L 240 -3520 208 -3520 208 -3464 240 -3464 M 200 -3528 L 200 -3456 248 -3456 248 -3528 200 -3528 "/>
    </g>
    <!-- Sector type 0 -->
    <g fill="white" stroke="black" opacity="1.0" stroke-width="1">
    <path d="M 304 -3328 L 272 -3328 272 -3272 304 -3272 304 -3328 "/>
    </g>
    <!-- Sector type 0 -->
    <g fill="white" stroke="black" opacity="1.0" stroke-width="1">
    <path d="M 304 -3272 L 304 -3328 272 -3328 272 -3272 304 -3272 M 264 -3336 L 264 -3264 312 -3264 312 -3336 264 -3336 "/>
    </g>
    <!-- Sector type 0 -->
    <g fill="white" stroke="black" opacity="1.0" stroke-width="1">
    <path d="M 304 -3200 L 272 -3200 272 -3144 304 -3144 304 -3200 "/>
    </g>
    <!-- Sector type 0 -->
    <g fill="white" stroke="black" opacity="1.0" stroke-width="1">
    <path d="M 304 -3144 L 304 -3200 272 -3200 272 -3144 304 -3144 M 264 -3208 L 264 -3136 312 -3136 312 -3208 264 -3208 "/>
    </g>
    <!-- Sector type 0 -->
    <g fill="white" stroke="black" opacity="1.0" stroke-width="1">
    <path d="M 1104 -192 L 1104 -64 1088 -64 1088 -192 1104 -192 "/>
    <!-- Type 1 -->
    <path d="M 1104 -64 L 1104 -192" stroke="green" stroke-width="3" />    </g>
    <!-- Sector type 0 -->
    <g fill="white" stroke="black" opacity="1.0" stroke-width="1">
    <path d="M 1280 -64 L 1280 -192 1312 -192 1312 -64 1280 -64 "/>
    <!-- Type 62 -->
    <path d="M 1280 -64 L 1280 -192" stroke="blue" stroke-width="3" />    </g>
    <!-- Sector type 9 -->
    <g fill="aqua" stroke="aqua" opacity="0.5" stroke-width="1">
    <path d="M 1152 -192 L 1280 -192 1280 -64 1152 -64 1152 -192 "/>
    <!-- Type 62 -->
    <path d="M 1280 -64 L 1280 -192" stroke="blue" stroke-width="3" />    <!-- Type 88 -->
    <path d="M 1152 -64 L 1152 -192" stroke="blue" stroke-width="3" />    </g>
    <!-- Sector type 0 -->
    <g fill="white" stroke="black" opacity="1.0" stroke-width="1">
    <path d="M 1216 -1664 L 1216 -1792 1248 -1792 1248 -1664 1216 -1664 "/>
    </g>
    <!-- Sector type 0 -->
    <g fill="white" stroke="black" opacity="1.0" stroke-width="1">
    <path d="M 80 -1792 L 80 -1824 80 -1888 80 -1920 64 -1920 64 -1792 80 -1792 "/>
    <!-- Type 103 -->
    <path d="M 80 -1824 L 80 -1888" stroke="orange" stroke-width="3" />    </g>
    <!-- Sector type 1 -->
    <g fill="white" stroke="black" opacity="1.0" stroke-width="1">
    <path d="M 128 -1792 L 120 -1792 88 -1792 80 -1792 80 -1824 80 -1888 80 -1920 88 -1920 120 -1920 128 -1920 128 -1792 "/>
    <!-- Type 103 -->
    <path d="M 80 -1824 L 80 -1888" stroke="orange" stroke-width="3" />    </g>
    <!-- Sector type 0 -->
    <g fill="white" stroke="black" opacity="1.0" stroke-width="1">
    <path d="M 1216 -1792 L 1216 -1664 880 -1664 880 -1792 1216 -1792 "/>
    </g>
    <!-- Sector type 0 -->
    <g fill="white" stroke="black" opacity="1.0" stroke-width="1">
    <path d="M 880 -1664 L 864 -1664 800 -1664 864 -1792 880 -1792 880 -1664 "/>
    </g>
    <!-- Sector type 0 -->
    <g fill="white" stroke="black" opacity="1.0" stroke-width="1">
    <path d="M 864 -1792 L 720 -1792 704 -1824 672 -1840 640 -1824 624 -1792 544 -1920 560 -1928 672 -1984 800 -1920 856 -1808 864 -1792 "/>
    </g>
    <!-- Sector type 0 -->
    <g fill="white" stroke="black" opacity="1.0" stroke-width="1">
    <path d="M 704 -1760 L 800 -1664 864 -1792 720 -1792 704 -1760 "/>
    </g>
    <!-- Sector type 0 -->
    <g fill="white" stroke="black" opacity="1.0" stroke-width="1">
    <path d="M 608 -1632 L 544 -1664 640 -1760 656 -1752 608 -1632 "/>
    </g>
    <!-- Sector type 0 -->
    <g fill="white" stroke="black" opacity="1.0" stroke-width="1">
    <path d="M 512 -1728 L 480 -1792 544 -1920 624 -1792 512 -1728 "/>
    </g>
    <!-- Sector type 0 -->
    <g fill="white" stroke="black" opacity="1.0" stroke-width="1">
    <path d="M 736 -1632 L 672 -1608 672 -1744 688 -1752 736 -1632 "/>
    </g>
    <!-- Sector type 0 -->
    <g fill="white" stroke="black" opacity="1.0" stroke-width="1">
    <path d="M 656 -1752 L 672 -1744 672 -1608 608 -1632 656 -1752 "/>
    </g>
    <!-- Sector type 0 -->
    <g fill="white" stroke="black" opacity="1.0" stroke-width="1">
    <path d="M 624 -1792 L 512 -1728 544 -1664 640 -1760 624 -1792 "/>
    </g>
    <!-- Sector type 0 -->
    <g fill="white" stroke="black" opacity="1.0" stroke-width="1">
    <path d="M 704 -1760 L 800 -1664 736 -1632 688 -1752 704 -1760 "/>
    </g>
    <!-- Sector type 0 -->
    <g fill="white" stroke="black" opacity="1.0" stroke-width="1">
    <path d="M 128 -1920 L 544 -1920 480 -1792 128 -1792 128 -1920 "/>
    </g>
    <!-- Sector type 0 -->
    <g fill="white" stroke="black" opacity="1.0" stroke-width="1">
    <path d="M 1888 -1280 L 1952 -1280 1952 -1344 1888 -1344 1888 -1280 "/>
    </g>
    <!-- Sector type 0 -->
    <g fill="white" stroke="black" opacity="1.0" stroke-width="1">
    <path d="M 464 -632 L 464 -616 536 -616 536 -632 464 -632 "/>
    </g>
    <!-- Sector type 0 -->
    <g fill="white" stroke="black" opacity="1.0" stroke-width="1">
    <path d="M 280 -664 L 280 -712 352 -712 424 -696 456 -696 456 -632 424 -632 280 -664 "/>
    <!-- Type 62 -->
    <path d="M 352 -712 L 280 -712" stroke="blue" stroke-width="3" />    </g>
    <!-- Sector type 0 -->
    <g fill="white" stroke="black" opacity="1.0" stroke-width="1">
    <path d="M 536 -616 L 464 -616 464 -472 504 -472 536 -504 536 -616 "/>
    </g>
  </g>
</svg>
