<?xml version="1.0" standalone="no"?>
<svg width="640px" height="480px" viewBox="-384 0 786 384" xmlns="http://www.w3.org/2000/svg">
  <title>ORIGWAD.PWD - E1M1</title>
  <g>
    <path d="M 0 0 L 0 128" stroke="black" stroke-width="3"/>
    <path d="M 0 128 L 0 256" stroke="green" stroke-width="3"/>
    <path d="M 0 256 L 0 384" stroke="black" stroke-width="3"/>
    <path d="M 0 384 L -384 384" stroke="black" stroke-width="3"/>
    <path d="M -384 384 L -384 0" stroke="black" stroke-width="3"/>
    <path d="M -384 0 L 0 0" stroke="black" stroke-width="3"/>
    <path d="M 0 128 L 18 128" stroke="black" stroke-width="3"/>
    <path d="M 18 256 L 18 128" stroke="green" stroke-width="3"/>
    <path d="M 18 256 L 0 256" stroke="black" stroke-width="3"/>
    <path d="M 18 128 L 18 0" stroke="black" stroke-width="3"/>
    <path d="M 18 0 L 402 0" stroke="black" stroke-width="3"/>
    <path d="M 402 0 L 402 160" stroke="black" stroke-width="3"/>
    <path d="M 402 160 L 402 224" stroke="purple" stroke-width="3"/>
    <path d="M 402 224 L 402 384" stroke="black" stroke-width="3"/>
    <path d="M 402 384 L 18 384" stroke="black" stroke-width="3"/>
    <path d="M 18 384 L 18 256" stroke="black" stroke-width="3"/>
  </g>
</svg>
