<?xml version="1.0" standalone="no"?>
<svg width="1280" height="1024" viewBox="-384 0 786 384" xmlns="http://www.w3.org/2000/svg">
  <title>ORIGWAD.PWD - E1M1</title>
  <g fill-rule="evenodd">
    <g fill="white" stroke="black" fill-opacity="1.0" stroke-width="1">
      <title>Sector 0</title>
      <desc>Sector Type: 0</desc>
    <path d="M 0 256 L 0 384 -384 384 -384 0 0 0 0 128 0 256 "/>
    <!-- Type 1 -->
    <path d="M 0 128 L 0 256" stroke="green" stroke-width="3" />    </g>
    <g fill="white" stroke="black" fill-opacity="1.0" stroke-width="1">
      <title>Sector 1</title>
      <desc>Sector Type: 0</desc>
    <path d="M 18 256 L 18 128 0 128 0 256 18 256 "/>
    <!-- Type 1 -->
    <path d="M 0 128 L 0 256" stroke="green" stroke-width="3" />    <!-- Type 1 -->
    <path d="M 18 256 L 18 128" stroke="green" stroke-width="3" />    </g>
    <g fill="white" stroke="black" fill-opacity="1.0" stroke-width="1">
      <title>Sector 2</title>
      <desc>Sector Type: 0</desc>
    <path d="M 402 160 L 402 224 402 384 18 384 18 256 18 128 18 0 402 0 402 160 "/>
    <!-- Type 1 -->
    <path d="M 18 256 L 18 128" stroke="green" stroke-width="3" />    <!-- Type 11 -->
    <path d="M 402 160 L 402 224" stroke="purple" stroke-width="3" />    </g>
    <rect x="-42" y="22" width="20" height="20" stroke="black" fill="red"><title>Shotgun [12345]</title></rect>
    <circle cx="-42" cy="342" r="20" fill="black"><title>Shotgun guy [12345]</title></circle>
    <circle cx="328" cy="54" r="20" fill="black"><title>Imp [12345]</title></circle>
    <circle cx="328" cy="310" r="20" fill="black"><title>Imp [12345]</title></circle>
    <circle cx="40" cy="310" r="24" fill="black"><title>Baron of Hell [12345D]</title></circle>
    <circle cx="40" cy="54" r="24" fill="black"><title>Baron of Hell [12345D]</title></circle>
    <circle cx="40" cy="182" r="20" fill="black"><title>Imp [12345D]</title></circle>
  </g>
</svg>
