<?xml version="1.0" standalone="no"?>
<svg width="1280" height="1024" viewBox="360 -5056 3376 3648" xmlns="http://www.w3.org/2000/svg">
  <title>DOOM2.WAD - MAP01</title>
  <g fill-rule="evenodd">
    <g fill="white" stroke="black" fill-opacity="1.0" stroke-width="1">
      <title>Sector 0</title>
      <desc>Sector Type: 0</desc>
    <path d="M 1792 -3648 L 1856 -3648 1920 -3328 1792 -3200 1728 -3200 1472 -3200 1408 -3200 1280 -3328 1344 -3648 1408 -3648 1600 -3328 1792 -3648 M 1792 -3392 L 1728 -3392 1728 -3328 1792 -3328 1792 -3392 M 1408 -3328 L 1472 -3328 1472 -3392 1408 -3392 1408 -3328 "/>
    </g>
    <g fill="white" stroke="black" fill-opacity="1.0" stroke-width="1">
      <title>Sector 1</title>
      <desc>Sector Type: 0</desc>
    <path d="M 2112 -3328 L 1984 -3264 1984 -3280 1984 -3328 1984 -3392 1984 -3456 1984 -3520 1984 -3584 1984 -3648 2112 -3648 2112 -3712 2112 -3776 2112 -3840 2112 -3904 1984 -3904 1984 -3840 1984 -3784 1984 -3712 1984 -3648 2112 -3648 2112 -3584 2112 -3520 2112 -3456 2112 -3392 2112 -3344 2112 -3328 "/>
    </g>
    <g fill="white" stroke="black" fill-opacity="1.0" stroke-width="1">
      <title>Sector 2</title>
      <desc>Sector Type: 0</desc>
    <path d="M 1600 -3328 L 1408 -3648 1440 -3648 1600 -3392 1760 -3648 1792 -3648 1600 -3328 "/>
    </g>
    <g fill="white" stroke="black" fill-opacity="1.0" stroke-width="1">
      <title>Sector 3</title>
      <desc>Sector Type: 0</desc>
    <path d="M 1600 -3392 L 1440 -3648 1472 -3648 1600 -3456 1728 -3648 1760 -3648 1600 -3392 "/>
    </g>
    <g fill="white" stroke="black" fill-opacity="1.0" stroke-width="1">
      <title>Sector 4</title>
      <desc>Sector Type: 0</desc>
    <path d="M 1600 -3456 L 1472 -3648 1504 -3648 1600 -3520 1696 -3648 1728 -3648 1600 -3456 "/>
    </g>
    <g fill="white" stroke="black" fill-opacity="1.0" stroke-width="1">
      <title>Sector 5</title>
      <desc>Sector Type: 0</desc>
    <path d="M 1600 -3520 L 1504 -3648 1536 -3648 1600 -3584 1664 -3648 1696 -3648 1600 -3520 "/>
    </g>
    <g fill="white" stroke="black" fill-opacity="1.0" stroke-width="1">
      <title>Sector 6</title>
      <desc>Sector Type: 0</desc>
    <path d="M 1600 -3584 L 1536 -3648 1664 -3648 1600 -3584 "/>
    </g>
    <g fill="white" stroke="black" fill-opacity="1.0" stroke-width="1">
      <title>Sector 7</title>
      <desc>Sector Type: 0</desc>
    <path d="M 1728 -3136 L 1600 -3072 1536 -3072 1472 -3136 1472 -3200 1728 -3200 1728 -3136 "/>
    </g>
    <g fill="aqua" stroke="aqua" fill-opacity="0.5" stroke-width="1">
      <title>Sector 8</title>
      <desc>Sector Type: 9</desc>
    <path d="M 1720 -3000 L 1600 -3000 1600 -3064 1720 -3064 1720 -3000 "/>
    <!-- Type 103 -->
    <path d="M 1600 -3000 L 1600 -3064" stroke="orange" stroke-width="3" />    </g>
    <g fill="white" stroke="black" fill-opacity="1.0" stroke-width="1">
      <title>Sector 9</title>
      <desc>Sector Type: 0</desc>
    <path d="M 1216 -2944 L 1216 -3136 1472 -3136 1536 -3072 1408 -2944 1216 -2944 "/>
    </g>
    <g fill="white" stroke="black" fill-opacity="1.0" stroke-width="1">
      <title>Sector 10</title>
      <desc>Sector Type: 0</desc>
    <path d="M 1216 -2944 L 1088 -3072 1152 -3264 1216 -3264 1216 -3136 1216 -2944 "/>
    </g>
    <g fill="white" stroke="black" fill-opacity="1.0" stroke-width="1">
      <title>Sector 11</title>
      <desc>Sector Type: 0</desc>
    <path d="M 520 -3072 L 680 -2624 1200 -2624 1216 -2944 1088 -3072 1152 -3264 1216 -3264 1200 -3584 1152 -3520 776 -3520 520 -3072 "/>
    </g>
    <g fill="white" stroke="black" fill-opacity="1.0" stroke-width="1">
      <title>Sector 12</title>
      <desc>Sector Type: 0</desc>
    <path d="M 1200 -3712 L 1200 -3584 1152 -3520 776 -3520 520 -3072 680 -2624 1200 -2624 1200 -2496 1152 -2560 616 -2560 424 -3072 744 -3648 1152 -3648 1200 -3712 "/>
    </g>
    <g fill="white" stroke="black" fill-opacity="1.0" stroke-width="1">
      <title>Sector 13</title>
      <desc>Sector Type: 0</desc>
    <path d="M 1200 -2496 L 360 -2496 360 -3712 1200 -3712 1152 -3648 744 -3648 424 -3072 616 -2560 1152 -2560 1200 -2496 "/>
    </g>
    <g fill="white" stroke="black" fill-opacity="1.0" stroke-width="1">
      <title>Sector 14</title>
      <desc>Sector Type: 0</desc>
    <path d="M 1728 -1984 L 1792 -2112 2240 -2040 2752 -2104 3008 -2496 3008 -2752 2944 -2880 3024 -2944 3176 -2776 3208 -2480 2928 -1904 2184 -1696 1728 -1984 "/>
    </g>
    <g fill="white" stroke="black" fill-opacity="1.0" stroke-width="1">
      <title>Sector 15</title>
      <desc>Sector Type: 0</desc>
    <path d="M 1728 -1984 L 2184 -1696 2928 -1904 3208 -2480 3176 -2776 3024 -2944 3376 -3264 3376 -2424 2944 -1552 1776 -1552 1560 -1720 1728 -1984 "/>
    </g>
    <g fill="white" stroke="black" fill-opacity="1.0" stroke-width="1">
      <title>Sector 16</title>
      <desc>Sector Type: 0</desc>
    <path d="M 1560 -1720 L 1776 -1552 2944 -1552 3376 -2424 3376 -3264 3376 -3904 3736 -3672 3736 -2472 3144 -1408 1792 -1408 1144 -1616 1144 -1728 1560 -1720 "/>
    </g>
    <g fill="aqua" stroke="aqua" fill-opacity="0.5" stroke-width="1">
      <title>Sector 17</title>
      <desc>Sector Type: 9</desc>
    <path d="M 3008 -2496 L 2752 -2104 2240 -2040 1792 -2112 1792 -2624 1952 -2792 2344 -2792 2368 -2816 2560 -2624 2752 -2624 2832 -2792 2944 -2880 3008 -2752 3008 -2496 "/>
    </g>
    <g fill="white" stroke="black" fill-opacity="1.0" stroke-width="1">
      <title>Sector 18</title>
      <desc>Sector Type: 0</desc>
    <path d="M 2816 -2944 L 2752 -2816 2656 -2816 2592 -2816 2592 -2856 2616 -2856 2640 -2880 2640 -2912 2616 -2936 2584 -2936 2560 -3008 2496 -3040 2456 -3072 2432 -3136 2368 -3200 2304 -3224 2216 -3208 2200 -3168 2288 -3128 2368 -3024 2368 -2984 2344 -2936 2312 -2936 2288 -2912 2288 -2880 2312 -2856 2336 -2856 2336 -2816 1976 -2816 1848 -3000 1848 -3064 1984 -3264 2112 -3328 2624 -3328 2688 -3328 2816 -3264 2816 -3200 2816 -3008 2816 -2944 M 2112 -3104 L 2048 -3104 2016 -3072 2016 -3008 2048 -2976 2112 -2976 2144 -3008 2144 -3072 2112 -3104 M 2624 -3040 L 2656 -3072 2656 -3136 2624 -3168 2560 -3168 2528 -3136 2528 -3072 2560 -3040 2624 -3040 "/>
    <!-- Type 62 -->
    <path d="M 1848 -3000 L 1848 -3064" stroke="blue" stroke-width="3" />    <!-- Type 1 -->
    <path d="M 2816 -3008 L 2816 -2944" stroke="green" stroke-width="3" />    </g>
    <g fill="white" stroke="black" fill-opacity="1.0" stroke-width="1">
      <title>Sector 19</title>
      <desc>Sector Type: 0</desc>
    <path d="M 2048 -3008 L 2112 -3008 2112 -3072 2048 -3072 2048 -3008 M 2144 -3008 L 2144 -3072 2112 -3104 2048 -3104 2016 -3072 2016 -3008 2048 -2976 2112 -2976 2144 -3008 "/>
    <!-- Type 2 -->
    <path d="M 2048 -3072 L 2048 -3008" stroke="green" stroke-width="3" />    </g>
    <g fill="white" stroke="black" fill-opacity="1.0" stroke-width="1">
      <title>Sector 20</title>
      <desc>Sector Type: 0</desc>
    <path d="M 2048 -3072 L 2048 -3008 2112 -3008 2112 -3072 2048 -3072 "/>
    <!-- Type 2 -->
    <path d="M 2048 -3072 L 2048 -3008" stroke="green" stroke-width="3" />    </g>
    <g fill="white" stroke="black" fill-opacity="1.0" stroke-width="1">
      <title>Sector 21</title>
      <desc>Sector Type: 0</desc>
    <path d="M 1728 -3000 L 1728 -3064 1848 -3064 1848 -3000 1728 -3000 "/>
    <!-- Type 31 -->
    <path d="M 1728 -3000 L 1728 -3064" stroke="orange" stroke-width="3" />    <!-- Type 62 -->
    <path d="M 1848 -3000 L 1848 -3064" stroke="blue" stroke-width="3" />    </g>
    <g fill="white" stroke="black" fill-opacity="1.0" stroke-width="1">
      <title>Sector 22</title>
      <desc>Sector Type: 0</desc>
    <path d="M 1728 -3000 L 1728 -3064 1720 -3064 1720 -3000 1728 -3000 "/>
    <!-- Type 31 -->
    <path d="M 1728 -3000 L 1728 -3064" stroke="orange" stroke-width="3" />    </g>
    <g fill="white" stroke="black" fill-opacity="1.0" stroke-width="1">
      <title>Sector 23</title>
      <desc>Sector Type: 0</desc>
    <path d="M 2368 -3200 L 2432 -3136 2456 -3072 2496 -3040 2560 -3008 2584 -2936 2560 -2912 2544 -2952 2504 -2984 2440 -2984 2392 -2960 2368 -2912 2344 -2936 2368 -2984 2368 -3024 2288 -3128 2200 -3168 2216 -3208 2304 -3224 2368 -3200 "/>
    </g>
    <g fill="white" stroke="black" fill-opacity="1.0" stroke-width="1">
      <title>Sector 24</title>
      <desc>Sector Type: 0</desc>
    <path d="M 2832 -2792 L 2752 -2624 2560 -2624 2368 -2816 2368 -2864 2560 -2864 2560 -2816 2520 -2752 2560 -2688 2624 -2688 2688 -2752 2656 -2792 2832 -2792 "/>
    </g>
    <g fill="white" stroke="black" fill-opacity="1.0" stroke-width="1">
      <title>Sector 25</title>
      <desc>Sector Type: 0</desc>
    <path d="M 2544 -2952 L 2560 -2912 2560 -2880 2368 -2880 2368 -2912 2392 -2960 2440 -2984 2504 -2984 2544 -2952 "/>
    </g>
    <g fill="white" stroke="black" fill-opacity="1.0" stroke-width="1">
      <title>Sector 26</title>
      <desc>Sector Type: 0</desc>
    <path d="M 2624 -2688 L 2560 -2688 2520 -2752 2560 -2816 2584 -2792 2616 -2752 2656 -2792 2688 -2752 2624 -2688 "/>
    </g>
    <g fill="white" stroke="black" fill-opacity="1.0" stroke-width="1">
      <title>Sector 27</title>
      <desc>Sector Type: 0</desc>
    <path d="M 2368 -2864 L 2560 -2864 2560 -2880 2368 -2880 2368 -2864 "/>
    </g>
    <g fill="aqua" stroke="aqua" fill-opacity="0.5" stroke-width="1">
      <title>Sector 28</title>
      <desc>Sector Type: 9</desc>
    <path d="M 2944 -3008 L 2944 -2944 2824 -2944 2824 -3008 2936 -3008 2944 -3008 "/>
    <!-- Type 1 -->
    <path d="M 2824 -2944 L 2824 -3008" stroke="green" stroke-width="3" />    </g>
    <g fill="white" stroke="black" fill-opacity="1.0" stroke-width="1">
      <title>Sector 29</title>
      <desc>Sector Type: 0</desc>
    <path d="M 2824 -2944 L 2824 -3008 2816 -3008 2816 -2944 2824 -2944 "/>
    <!-- Type 1 -->
    <path d="M 2816 -3008 L 2816 -2944" stroke="green" stroke-width="3" />    <!-- Type 1 -->
    <path d="M 2824 -2944 L 2824 -3008" stroke="green" stroke-width="3" />    </g>
    <g fill="white" stroke="black" fill-opacity="1.0" stroke-width="1">
      <title>Sector 30</title>
      <desc>Sector Type: 0</desc>
    <path d="M 2616 -2752 L 2584 -2792 2656 -2792 2616 -2752 "/>
    </g>
    <g fill="white" stroke="black" fill-opacity="1.0" stroke-width="1">
      <title>Sector 31</title>
      <desc>Sector Type: 0</desc>
    <path d="M 2656 -2816 L 2592 -2816 2584 -2792 2656 -2792 2656 -2816 "/>
    </g>
    <g fill="white" stroke="black" fill-opacity="1.0" stroke-width="1">
      <title>Sector 32</title>
      <desc>Sector Type: 0</desc>
    <path d="M 2688 -3328 L 2624 -3328 2624 -3392 2688 -3392 2688 -3328 "/>
    </g>
    <g fill="white" stroke="black" fill-opacity="1.0" stroke-width="1">
      <title>Sector 33</title>
      <desc>Sector Type: 0</desc>
    <path d="M 2560 -3072 L 2624 -3072 2624 -3136 2560 -3136 2560 -3072 M 2656 -3072 L 2656 -3136 2624 -3168 2560 -3168 2528 -3136 2528 -3072 2560 -3040 2624 -3040 2656 -3072 "/>
    </g>
    <g fill="white" stroke="black" fill-opacity="1.0" stroke-width="1">
      <title>Sector 34</title>
      <desc>Sector Type: 0</desc>
    <path d="M 2624 -3392 L 2624 -3416 2688 -3416 2688 -3392 2624 -3392 M 2672 -3408 L 2640 -3408 2640 -3400 2672 -3400 2672 -3408 "/>
    <!-- Type 1 -->
    <path d="M 2624 -3416 L 2688 -3416" stroke="green" stroke-width="3" />    </g>
    <g fill="white" stroke="black" fill-opacity="1.0" stroke-width="1">
      <title>Sector 35</title>
      <desc>Sector Type: 0</desc>
    <path d="M 2640 -3408 L 2640 -3400 2672 -3400 2672 -3408 2640 -3408 "/>
    </g>
    <g fill="white" stroke="black" fill-opacity="1.0" stroke-width="1">
      <title>Sector 36</title>
      <desc>Sector Type: 0</desc>
    <path d="M 2624 -3584 L 2688 -3584 2752 -3520 2752 -3456 2688 -3424 2624 -3424 2560 -3456 2560 -3520 2624 -3584 "/>
    <!-- Type 11 -->
    <path d="M 2624 -3584 L 2688 -3584" stroke="purple" stroke-width="3" />    <!-- Type 1 -->
    <path d="M 2688 -3424 L 2624 -3424" stroke="green" stroke-width="3" />    </g>
    <g fill="white" stroke="black" fill-opacity="1.0" stroke-width="1">
      <title>Sector 37</title>
      <desc>Sector Type: 0</desc>
    <path d="M 2688 -3424 L 2688 -3416 2624 -3416 2624 -3424 2688 -3424 "/>
    <!-- Type 1 -->
    <path d="M 2624 -3416 L 2688 -3416" stroke="green" stroke-width="3" />    <!-- Type 1 -->
    <path d="M 2688 -3424 L 2624 -3424" stroke="green" stroke-width="3" />    </g>
    <g fill="white" stroke="black" fill-opacity="1.0" stroke-width="1">
      <title>Sector 38</title>
      <desc>Sector Type: 0</desc>
    <path d="M 2816 -3200 L 2816 -3264 2944 -3264 2944 -3200 2936 -3200 2816 -3200 "/>
    </g>
    <g fill="white" stroke="black" fill-opacity="1.0" stroke-width="1">
      <title>Sector 39</title>
      <desc>Sector Type: 0</desc>
    <path d="M 2936 -3008 L 2944 -3008 2944 -3200 2936 -3200 2936 -3008 "/>
    </g>
    <g fill="white" stroke="black" fill-opacity="1.0" stroke-width="1">
      <title>Sector 40</title>
      <desc>Sector Type: 0</desc>
    <path d="M 2560 -3136 L 2560 -3072 2624 -3072 2624 -3136 2560 -3136 "/>
    </g>
    <g fill="aqua" stroke="aqua" fill-opacity="0.5" stroke-width="1">
      <title>Sector 41</title>
      <desc>Sector Type: 9</desc>
    <path d="M 2304 -5056 L 2304 -4880 2256 -4880 2128 -5008 2128 -5056 2304 -5056 "/>
    </g>
    <g fill="white" stroke="black" fill-opacity="1.0" stroke-width="1">
      <title>Sector 42</title>
      <desc>Sector Type: 0</desc>
    <path d="M 2256 -4880 L 2128 -5008 2112 -4992 2240 -4864 2256 -4880 "/>
    </g>
    <g fill="white" stroke="black" fill-opacity="1.0" stroke-width="1">
      <title>Sector 43</title>
      <desc>Sector Type: 0</desc>
    <path d="M 1792 -4176 L 1584 -4176 1472 -4416 1472 -4864 1600 -4992 2112 -4992 2240 -4864 2240 -4416 2128 -4176 1920 -4176 1792 -4176 M 2120 -4536 L 2120 -4872 1912 -4872 1912 -4536 2120 -4536 M 1592 -4872 L 1592 -4536 1800 -4536 1800 -4872 1592 -4872 "/>
    </g>
    <g fill="white" stroke="black" fill-opacity="1.0" stroke-width="1">
      <title>Sector 44</title>
      <desc>Sector Type: 0</desc>
    <path d="M 1920 -4864 L 1920 -4800 1920 -4736 1920 -4672 1920 -4608 1920 -4544 2112 -4544 2112 -4864 1920 -4864 M 2120 -4872 L 1912 -4872 1912 -4536 2120 -4536 2120 -4872 "/>
    <!-- Type 103 -->
    <path d="M 1920 -4672 L 1920 -4608" stroke="orange" stroke-width="3" />    </g>
    <g fill="white" stroke="black" fill-opacity="1.0" stroke-width="1">
      <title>Sector 45</title>
      <desc>Sector Type: 0</desc>
    <path d="M 1920 -4608 L 2048 -4608 2048 -4672 1984 -4672 1984 -4736 2048 -4736 2048 -4800 1920 -4800 1920 -4864 2112 -4864 2112 -4544 1920 -4544 1920 -4608 "/>
    </g>
    <g fill="white" stroke="black" fill-opacity="1.0" stroke-width="1">
      <title>Sector 46</title>
      <desc>Sector Type: 0</desc>
    <path d="M 2048 -4672 L 1984 -4672 1920 -4672 1920 -4608 2048 -4608 2048 -4672 "/>
    <!-- Type 103 -->
    <path d="M 1920 -4672 L 1920 -4608" stroke="orange" stroke-width="3" />    </g>
    <g fill="white" stroke="black" fill-opacity="1.0" stroke-width="1">
      <title>Sector 47</title>
      <desc>Sector Type: 0</desc>
    <path d="M 2048 -4736 L 2048 -4800 1920 -4800 1920 -4736 1984 -4736 2048 -4736 "/>
    </g>
    <g fill="white" stroke="black" fill-opacity="1.0" stroke-width="1">
      <title>Sector 48</title>
      <desc>Sector Type: 0</desc>
    <path d="M 1792 -4544 L 1792 -4608 1792 -4672 1792 -4736 1792 -4800 1792 -4864 1600 -4864 1600 -4544 1792 -4544 M 1800 -4872 L 1592 -4872 1592 -4536 1800 -4536 1800 -4872 "/>
    <!-- Type 102 -->
    <path d="M 1792 -4736 L 1792 -4800" stroke="orange" stroke-width="3" />    </g>
    <g fill="white" stroke="black" fill-opacity="1.0" stroke-width="1">
      <title>Sector 49</title>
      <desc>Sector Type: 0</desc>
    <path d="M 1792 -4608 L 1792 -4544 1600 -4544 1600 -4864 1792 -4864 1792 -4800 1664 -4800 1664 -4736 1728 -4736 1728 -4672 1664 -4672 1664 -4608 1792 -4608 "/>
    </g>
    <g fill="white" stroke="black" fill-opacity="1.0" stroke-width="1">
      <title>Sector 50</title>
      <desc>Sector Type: 0</desc>
    <path d="M 1792 -4800 L 1664 -4800 1664 -4736 1728 -4736 1792 -4736 1792 -4800 "/>
    <!-- Type 102 -->
    <path d="M 1792 -4736 L 1792 -4800" stroke="orange" stroke-width="3" />    </g>
    <g fill="white" stroke="black" fill-opacity="1.0" stroke-width="1">
      <title>Sector 51</title>
      <desc>Sector Type: 0</desc>
    <path d="M 1792 -4608 L 1792 -4672 1728 -4672 1664 -4672 1664 -4608 1792 -4608 "/>
    </g>
    <g fill="white" stroke="black" fill-opacity="1.0" stroke-width="1">
      <title>Sector 52</title>
      <desc>Sector Type: 0</desc>
    <path d="M 1536 -3904 L 1536 -3840 1536 -3776 1536 -3712 1536 -3664 1536 -3648 1664 -3648 1664 -3664 1664 -3712 1664 -3776 1664 -3840 1664 -3904 1728 -3904 1792 -3904 1856 -3904 1920 -3904 1984 -3904 2112 -3904 2176 -3904 2176 -4032 2112 -4032 2048 -4032 1984 -4032 1920 -4032 1792 -4032 1728 -4032 1664 -4032 1600 -4032 1536 -4032 1536 -3968 1536 -3904 "/>
    </g>
    <g fill="white" stroke="black" fill-opacity="1.0" stroke-width="1">
      <title>Sector 53</title>
      <desc>Sector Type: 0</desc>
    <path d="M 1920 -4096 L 1920 -4032 1792 -4032 1792 -4096 1792 -4160 1920 -4160 1920 -4096 "/>
    <!-- Type 31 -->
    <path d="M 1792 -4160 L 1920 -4160" stroke="orange" stroke-width="3" />    </g>
    <g fill="white" stroke="black" fill-opacity="1.0" stroke-width="1">
      <title>Sector 54</title>
      <desc>Sector Type: 0</desc>
    <path d="M 1920 -4176 L 1920 -4168 1792 -4168 1792 -4176 1920 -4176 "/>
    </g>
    <g fill="white" stroke="black" fill-opacity="1.0" stroke-width="1">
      <title>Sector 55</title>
      <desc>Sector Type: 0</desc>
    <path d="M 1920 -4168 L 1792 -4168 1792 -4160 1920 -4160 1920 -4168 "/>
    <!-- Type 31 -->
    <path d="M 1792 -4160 L 1920 -4160" stroke="orange" stroke-width="3" />    </g>
    <g fill="white" stroke="black" fill-opacity="1.0" stroke-width="1">
      <title>Sector 56</title>
      <desc>Sector Type: 0</desc>
    <path d="M 2200 -3880 L 2176 -3904 2176 -4032 2200 -4056 2240 -4096 2304 -4096 2400 -4000 2400 -3936 2304 -3840 2240 -3840 2200 -3880 "/>
    </g>
    <g fill="aqua" stroke="aqua" fill-opacity="0.5" stroke-width="1">
      <title>Sector 57</title>
      <desc>Sector Type: 9</desc>
    <path d="M 2584 -3968 L 2496 -3872 2432 -3872 2408 -3936 2408 -4000 2432 -4064 2496 -4064 2584 -3968 "/>
    </g>
    <g fill="white" stroke="black" fill-opacity="1.0" stroke-width="1">
      <title>Sector 58</title>
      <desc>Sector Type: 0</desc>
    <path d="M 2408 -3936 L 2408 -4000 2400 -4000 2400 -3936 2408 -3936 "/>
    </g>
    <circle cx="1622" cy="-3050" r="20" fill="black"><title>Imp [45]</title></circle>
    <circle cx="1686" cy="-3050" r="20" fill="black"><title>Imp [345]</title></circle>
    <circle cx="1542" cy="-3530" r="20" fill="black"><title>Zombieman [12345]</title></circle>
    <circle cx="1638" cy="-3610" r="20" fill="black"><title>Zombieman [12345]</title></circle>
    <rect x="1350" y="-3642" stroke="black" width="20" height="20" fill="aqua"><title>Clip [12345]</title></rect>
    <rect x="1830" y="-3642" stroke="black" width="20" height="20" fill="green"><title>Armor bonus [12345]</title></rect>
    <rect x="1750" y="-3418" width="20" height="20" stroke="black" fill="yellow"><title>Stimpack [12345]</title></rect>
    <circle cx="1686" cy="-4650" r="20" fill="black"><title>Zombieman [12345]</title></circle>
    <circle cx="2006" cy="-4650" r="20" fill="black"><title>Zombieman [12345]</title></circle>
    <circle cx="2006" cy="-4778" r="20" fill="black"><title>Zombieman [12345]</title></circle>
    <circle cx="1686" cy="-4778" r="20" fill="black"><title>Zombieman [12345]</title></circle>
    <rect x="2182" y="-5018" width="20" height="20" stroke="black" fill="yellow"><title>Stimpack [12345]</title></rect>
    <rect x="2246" y="-4954" width="20" height="20" stroke="black" fill="yellow"><title>Stimpack [12345]</title></rect>
    <rect x="2246" y="-5018" width="20" height="20" stroke="black" fill="yellow"><title>Armor [12345]</title></rect>
    <circle cx="2006" cy="-3434" r="20" fill="black"><title>Zombieman [12345]</title></circle>
    <circle cx="2006" cy="-3642" r="20" fill="black"><title>Zombieman [3]</title></circle>
    <circle cx="1814" cy="-4010" r="20" fill="black"><title>Zombieman [345]</title></circle>
    <circle cx="1878" cy="-3946" r="20" fill="black"><title>Zombieman [345]</title></circle>
    <circle cx="1974" cy="-3978" r="20" fill="black"><title>Zombieman [345]</title></circle>
    <rect x="2262" y="-4074" stroke="black" width="20" height="20" fill="green"><title>Health bonus [12345]</title></rect>
    <rect x="2326" y="-4010" stroke="black" width="20" height="20" fill="green"><title>Health bonus [12345]</title></rect>
    <rect x="2326" y="-3946" stroke="black" width="20" height="20" fill="green"><title>Health bonus [12345]</title></rect>
    <rect x="2262" y="-3882" stroke="black" width="20" height="20" fill="green"><title>Health bonus [12345]</title></rect>
    <rect x="2262" y="-3946" stroke="black" width="20" height="20" fill="green"><title>Health bonus [12345]</title></rect>
    <rect x="2262" y="-4010" stroke="black" width="20" height="20" fill="green"><title>Health bonus [12345]</title></rect>
    <rect x="2198" y="-4010" stroke="black" width="20" height="20" fill="green"><title>Health bonus [12345]</title></rect>
    <rect x="2198" y="-3946" stroke="black" width="20" height="20" fill="green"><title>Health bonus [12345]</title></rect>
    <circle cx="2854" cy="-3242" r="20" fill="black"><title>Imp [12345]</title></circle>
    <circle cx="2854" cy="-2986" r="20" fill="black"><title>Imp [345]</title></circle>
    <circle cx="2902" cy="-2986" r="20" fill="black"><title>Imp [345]</title></circle>
    <circle cx="1798" cy="-3050" r="20" fill="black"><title>Zombieman [123]</title></circle>
    <rect x="1750" y="-3050" width="20" height="20" stroke="black" fill="yellow"><title>Stimpack [12345]</title></rect>
    <rect x="2886" y="-2986" width="20" height="20" stroke="black" fill="yellow"><title>Stimpack [12345]</title></rect>
    <rect x="1974" y="-2762" width="20" height="20" stroke="black" fill="red"><title>Shotgun [12345]</title></rect>
    <rect x="2038" y="-2762" stroke="black" width="20" height="20" fill="aqua"><title>4 shotgun shells [12345]</title></rect>
    <circle cx="1974" cy="-2698" r="20" fill="black"><title>Imp [345]</title></circle>
    <circle cx="1910" cy="-2666" r="20" fill="black"><title>Imp [345]</title></circle>
    <circle cx="1974" cy="-2618" r="20" fill="black"><title>Imp [345]</title></circle>
    <rect x="2582" y="-3498" width="20" height="20" stroke="black" fill="yellow"><title>Medikit [12345]</title></rect>
    <rect x="2646" y="-3498" width="20" height="20" stroke="black" fill="yellow"><title>Medikit [12345]</title></rect>
    <rect x="2710" y="-3498" width="20" height="20" stroke="black" fill="yellow"><title>Medikit [12345]</title></rect>
    <rect x="2646" y="-3562" stroke="black" width="20" height="20" fill="aqua"><title>Clip [12345]</title></rect>
    <circle cx="2070" cy="-4010" r="20" fill="black"><title>Imp [45D]</title></circle>
    <circle cx="2070" cy="-3562" r="20" fill="black"><title>Imp [45D]</title></circle>
    <circle cx="1766" cy="-3050" r="20" fill="black"><title>Imp [45]</title></circle>
    <circle cx="1878" cy="-2538" r="20" fill="black"><title>Imp [45]</title></circle>
    <circle cx="1878" cy="-2602" r="20" fill="black"><title>Imp [45]</title></circle>
    <circle cx="2646" cy="-3530" r="20" fill="black"><title>Imp [45]</title></circle>
    <rect x="2486" y="-3978" width="20" height="20" stroke="black" fill="red"><title>Rocket launcher [12345]</title></rect>
    <circle cx="1846" cy="-4714" r="20" fill="black"><title>Imp [45D]</title></circle>
    <circle cx="1846" cy="-4586" r="20" fill="black"><title>Imp [45D]</title></circle>
    <circle cx="1654" cy="-3050" r="20" fill="black"><title>Imp [45]</title></circle>
    <rect x="1174" y="-3242" width="20" height="20" stroke="black" fill="red"><title>Chainsaw [12345]</title></rect>
  </g>
</svg>
