<?xml version="1.0" standalone="no"?>
<svg width="1280" height="1024" viewBox="1840 -3928 2984 1984" xmlns="http://www.w3.org/2000/svg">
  <title>DOOM2.WAD - MAP03</title>
  <g fill-rule="evenodd">
    <g fill="white" stroke="black" fill-opacity="1.0" stroke-width="1">
      <title>Sector 0</title>
      <desc>Sector Type: 0</desc>
    <path d="M 3424 -3296 L 3424 -3424 3456 -3424 3456 -3456 3376 -3456 3376 -3776 3392 -3776 4160 -3776 4096 -3584 4032 -3520 3840 -3456 3520 -3456 3520 -3424 3552 -3424 3552 -3296 3520 -3296 3520 -3264 3840 -3264 4032 -3200 4096 -3136 4160 -2944 4032 -2944 3968 -2944 3608 -2944 3608 -3008 3560 -3056 3416 -3056 3368 -3008 3368 -2944 3008 -2944 3008 -3008 3072 -3072 3136 -3264 3456 -3264 3456 -3296 3424 -3296 M 3592 -3736 L 3560 -3736 3536 -3712 3536 -3680 3560 -3656 3592 -3656 3616 -3680 3616 -3712 3592 -3736 "/>
    </g>
    <g fill="white" stroke="black" fill-opacity="1.0" stroke-width="1">
      <title>Sector 1</title>
      <desc>Sector Type: 0</desc>
    <path d="M 3552 -3032 L 3584 -3000 3584 -2944 3392 -2944 3392 -2992 3424 -3032 3552 -3032 "/>
    </g>
    <g fill="white" stroke="black" fill-opacity="1.0" stroke-width="1">
      <title>Sector 2</title>
      <desc>Sector Type: 0</desc>
    <path d="M 3552 -3032 L 3584 -3000 3584 -2944 3608 -2944 3608 -3008 3560 -3056 3416 -3056 3368 -3008 3368 -2944 3392 -2944 3392 -2992 3424 -3032 3552 -3032 "/>
    </g>
    <g fill="white" stroke="black" fill-opacity="1.0" stroke-width="1">
      <title>Sector 3</title>
      <desc>Sector Type: 0</desc>
    <path d="M 3392 -3296 L 3360 -3296 3328 -3296 3296 -3296 3264 -3296 3136 -3296 3136 -3264 3456 -3264 3456 -3296 3424 -3296 3392 -3296 "/>
    </g>
    <g fill="white" stroke="black" fill-opacity="1.0" stroke-width="1">
      <title>Sector 4</title>
      <desc>Sector Type: 0</desc>
    <path d="M 3552 -3424 L 3520 -3424 3520 -3456 3840 -3456 3840 -3424 3840 -3296 3744 -3296 3840 -3296 3840 -3264 3520 -3264 3520 -3296 3552 -3296 3584 -3296 3616 -3296 3648 -3296 3680 -3296 3712 -3296 3744 -3296 3744 -3424 3840 -3424 3744 -3424 3712 -3424 3680 -3424 3648 -3424 3616 -3424 3584 -3424 3552 -3424 "/>
    </g>
    <g fill="aqua" stroke="aqua" fill-opacity="0.5" stroke-width="1">
      <title>Sector 5</title>
      <desc>Sector Type: 9</desc>
    <path d="M 3648 -2752 L 3584 -2752 3584 -2944 3392 -2944 3392 -2752 3328 -2752 3328 -2680 3648 -2680 3648 -2752 M 3456 -2688 L 3520 -2688 3520 -2752 3456 -2752 3456 -2688 "/>
    <!-- Type 97 -->
    <path d="M 3520 -2752 L 3456 -2752" stroke="red" stroke-width="3" />    <!-- Type 97 -->
    <path d="M 3456 -2752 L 3456 -2688" stroke="red" stroke-width="3" />    <!-- Type 97 -->
    <path d="M 3456 -2688 L 3520 -2688" stroke="red" stroke-width="3" />    <!-- Type 97 -->
    <path d="M 3520 -2688 L 3520 -2752" stroke="red" stroke-width="3" />    </g>
    <g fill="white" stroke="black" fill-opacity="1.0" stroke-width="1">
      <title>Sector 6</title>
      <desc>Sector Type: 0</desc>
    <path d="M 3520 -2688 L 3520 -2752 3456 -2752 3456 -2688 3520 -2688 "/>
    <!-- Type 97 -->
    <path d="M 3520 -2752 L 3456 -2752" stroke="red" stroke-width="3" />    <!-- Type 97 -->
    <path d="M 3456 -2752 L 3456 -2688" stroke="red" stroke-width="3" />    <!-- Type 97 -->
    <path d="M 3456 -2688 L 3520 -2688" stroke="red" stroke-width="3" />    <!-- Type 97 -->
    <path d="M 3520 -2688 L 3520 -2752" stroke="red" stroke-width="3" />    </g>
    <g fill="white" stroke="black" fill-opacity="1.0" stroke-width="1">
      <title>Sector 7</title>
      <desc>Sector Type: 0</desc>
    <path d="M 3152 -2464 L 3152 -2272 3136 -2272 3136 -2464 3152 -2464 "/>
    </g>
    <g fill="white" stroke="black" fill-opacity="1.0" stroke-width="1">
      <title>Sector 8</title>
      <desc>Sector Type: 0</desc>
    <path d="M 3168 -2272 L 3168 -2464 3304 -2464 3304 -2272 3168 -2272 "/>
    </g>
    <g fill="white" stroke="black" fill-opacity="1.0" stroke-width="1">
      <title>Sector 9</title>
      <desc>Sector Type: 0</desc>
    <path d="M 3168 -2272 L 3168 -2464 3152 -2464 3152 -2272 3168 -2272 "/>
    </g>
    <g fill="white" stroke="black" fill-opacity="1.0" stroke-width="1">
      <title>Sector 10</title>
      <desc>Sector Type: 0</desc>
    <path d="M 3584 -3296 L 3552 -3296 3552 -3424 3584 -3424 3584 -3296 "/>
    </g>
    <g fill="white" stroke="black" fill-opacity="1.0" stroke-width="1">
      <title>Sector 11</title>
      <desc>Sector Type: 0</desc>
    <path d="M 3616 -3296 L 3584 -3296 3584 -3424 3616 -3424 3616 -3296 "/>
    </g>
    <g fill="white" stroke="black" fill-opacity="1.0" stroke-width="1">
      <title>Sector 12</title>
      <desc>Sector Type: 0</desc>
    <path d="M 3648 -3296 L 3616 -3296 3616 -3424 3648 -3424 3648 -3296 "/>
    </g>
    <g fill="white" stroke="black" fill-opacity="1.0" stroke-width="1">
      <title>Sector 13</title>
      <desc>Sector Type: 0</desc>
    <path d="M 3680 -3296 L 3648 -3296 3648 -3424 3680 -3424 3680 -3296 "/>
    </g>
    <g fill="white" stroke="black" fill-opacity="1.0" stroke-width="1">
      <title>Sector 14</title>
      <desc>Sector Type: 0</desc>
    <path d="M 3712 -3296 L 3680 -3296 3680 -3424 3712 -3424 3712 -3296 "/>
    </g>
    <g fill="white" stroke="black" fill-opacity="1.0" stroke-width="1">
      <title>Sector 15</title>
      <desc>Sector Type: 0</desc>
    <path d="M 3744 -3296 L 3712 -3296 3712 -3424 3744 -3424 3744 -3296 "/>
    </g>
    <g fill="white" stroke="black" fill-opacity="1.0" stroke-width="1">
      <title>Sector 16</title>
      <desc>Sector Type: 0</desc>
    <path d="M 3392 -3424 L 3424 -3424 3424 -3296 3392 -3296 3392 -3424 "/>
    </g>
    <g fill="white" stroke="black" fill-opacity="1.0" stroke-width="1">
      <title>Sector 17</title>
      <desc>Sector Type: 0</desc>
    <path d="M 3360 -3424 L 3392 -3424 3392 -3296 3360 -3296 3360 -3424 "/>
    </g>
    <g fill="white" stroke="black" fill-opacity="1.0" stroke-width="1">
      <title>Sector 18</title>
      <desc>Sector Type: 0</desc>
    <path d="M 3328 -3424 L 3360 -3424 3360 -3296 3328 -3296 3328 -3424 "/>
    </g>
    <g fill="white" stroke="black" fill-opacity="1.0" stroke-width="1">
      <title>Sector 19</title>
      <desc>Sector Type: 0</desc>
    <path d="M 3296 -3424 L 3328 -3424 3328 -3296 3296 -3296 3296 -3424 "/>
    </g>
    <g fill="white" stroke="black" fill-opacity="1.0" stroke-width="1">
      <title>Sector 20</title>
      <desc>Sector Type: 0</desc>
    <path d="M 3264 -3424 L 3296 -3424 3296 -3296 3264 -3296 3264 -3424 "/>
    </g>
    <g fill="white" stroke="black" fill-opacity="1.0" stroke-width="1">
      <title>Sector 21</title>
      <desc>Sector Type: 0</desc>
    <path d="M 3072 -3072 L 3008 -3008 2752 -3296 2752 -3424 3008 -3712 3072 -3648 3136 -3456 3136 -3424 3264 -3424 3264 -3296 3136 -3296 3136 -3264 3072 -3072 "/>
    <!-- Type 120 -->
    <path d="M 2752 -3296 L 2752 -3424" stroke="blue" stroke-width="3" />    </g>
    <g fill="white" stroke="black" fill-opacity="1.0" stroke-width="1">
      <title>Sector 22</title>
      <desc>Sector Type: 0</desc>
    <path d="M 3328 -3776 L 3344 -3776 3344 -3456 3136 -3456 3072 -3648 3008 -3712 3008 -3776 3328 -3776 "/>
    </g>
    <g fill="white" stroke="black" fill-opacity="1.0" stroke-width="1">
      <title>Sector 23</title>
      <desc>Sector Type: 0</desc>
    <path d="M 3376 -3456 L 3376 -3776 3344 -3776 3344 -3456 3376 -3456 "/>
    <!-- Type 97 -->
    <path d="M 3344 -3776 L 3376 -3776" stroke="red" stroke-width="3" />    </g>
    <g fill="white" stroke="black" fill-opacity="1.0" stroke-width="1">
      <title>Sector 24</title>
      <desc>Sector Type: 0</desc>
    <path d="M 3392 -3776 L 3392 -3840 3328 -3840 3328 -3776 3344 -3776 3376 -3776 3392 -3776 "/>
    <!-- Type 97 -->
    <path d="M 3344 -3776 L 3376 -3776" stroke="red" stroke-width="3" />    </g>
    <g fill="white" stroke="black" fill-opacity="1.0" stroke-width="1">
      <title>Sector 25</title>
      <desc>Sector Type: 0</desc>
    <path d="M 3560 -3656 L 3592 -3656 3616 -3680 3616 -3712 3592 -3736 3560 -3736 3536 -3712 3536 -3680 3560 -3656 "/>
    </g>
    <g fill="white" stroke="black" fill-opacity="1.0" stroke-width="1">
      <title>Sector 26</title>
      <desc>Sector Type: 0</desc>
    <path d="M 3136 -3456 L 3136 -3424 3264 -3424 3296 -3424 3328 -3424 3360 -3424 3392 -3424 3424 -3424 3456 -3424 3456 -3456 3376 -3456 3344 -3456 3136 -3456 "/>
    </g>
    <g fill="white" stroke="black" fill-opacity="1.0" stroke-width="1">
      <title>Sector 27</title>
      <desc>Sector Type: 0</desc>
    <path d="M 4256 -3816 L 4160 -3816 4160 -3928 4256 -3928 4256 -3816 4256 -3928 4816 -3928 4816 -3376 4712 -3376 4696 -3376 4696 -3472 4712 -3472 4712 -3584 4672 -3584 4672 -3648 4712 -3648 4712 -3712 4672 -3712 4672 -3776 4608 -3776 4608 -3816 4544 -3816 4544 -3776 4480 -3776 4480 -3816 4352 -3816 4352 -3800 4256 -3800 4256 -3816 M 4224 -3912 L 4168 -3912 4168 -3824 4224 -3824 4224 -3840 4208 -3840 4208 -3896 4224 -3896 4224 -3912 "/>
    <!-- Type 26 -->
    <path d="M 4696 -3376 L 4696 -3472" stroke="orange" stroke-width="3" />    <!-- Type 26 -->
    <path d="M 4352 -3800 L 4256 -3800" stroke="orange" stroke-width="3" />    <!-- Type 20 -->
    <path d="M 4208 -3840 L 4208 -3896" stroke="orange" stroke-width="3" />    <!-- Type 109 -->
    <path d="M 4256 -3816 L 4256 -3928" stroke="orange" stroke-width="3" />    <!-- Type 109 -->
    <path d="M 4256 -3816 L 4256 -3928" stroke="orange" stroke-width="3" />    </g>
    <g fill="white" stroke="black" fill-opacity="1.0" stroke-width="1">
      <title>Sector 28</title>
      <desc>Sector Type: 0</desc>
    <path d="M 4224 -3824 L 4224 -3840 4208 -3840 4208 -3896 4224 -3896 4224 -3912 4168 -3912 4168 -3824 4224 -3824 "/>
    <!-- Type 20 -->
    <path d="M 4208 -3840 L 4208 -3896" stroke="orange" stroke-width="3" />    </g>
    <g fill="white" stroke="black" fill-opacity="1.0" stroke-width="1">
      <title>Sector 29</title>
      <desc>Sector Type: 0</desc>
    <path d="M 4480 -3776 L 4544 -3776 4608 -3776 4672 -3776 4672 -3712 4672 -3648 4672 -3584 4672 -3472 4480 -3520 4472 -3528 4424 -3576 4416 -3584 4352 -3776 4480 -3776 "/>
    </g>
    <g fill="white" stroke="black" fill-opacity="1.0" stroke-width="1">
      <title>Sector 30</title>
      <desc>Sector Type: 0</desc>
    <path d="M 3960 -3392 L 3984 -3392 4008 -3392 4032 -3392 4032 -3408 4208 -3584 4304 -3584 4360 -3528 4416 -3584 4352 -3776 4256 -3776 4160 -3776 4096 -3584 4032 -3520 3840 -3456 3840 -3424 3840 -3296 3840 -3264 4032 -3200 4096 -3136 4160 -2944 4256 -2944 4352 -2944 4416 -3136 4360 -3192 4304 -3136 4208 -3136 4032 -3312 4032 -3328 4008 -3328 3984 -3328 3960 -3328 3936 -3328 3936 -3392 3960 -3392 "/>
    </g>
    <g fill="white" stroke="black" fill-opacity="1.0" stroke-width="1">
      <title>Sector 31</title>
      <desc>Sector Type: 0</desc>
    <path d="M 4256 -3776 L 4256 -3792 4352 -3792 4352 -3776 4256 -3776 "/>
    <!-- Type 26 -->
    <path d="M 4256 -3792 L 4352 -3792" stroke="orange" stroke-width="3" />    </g>
    <g fill="white" stroke="black" fill-opacity="1.0" stroke-width="1">
      <title>Sector 32</title>
      <desc>Sector Type: 0</desc>
    <path d="M 4352 -3800 L 4352 -3792 4256 -3792 4256 -3800 4352 -3800 "/>
    <!-- Type 26 -->
    <path d="M 4256 -3792 L 4352 -3792" stroke="orange" stroke-width="3" />    <!-- Type 26 -->
    <path d="M 4352 -3800 L 4256 -3800" stroke="orange" stroke-width="3" />    </g>
    <g fill="white" stroke="black" fill-opacity="1.0" stroke-width="1">
      <title>Sector 33</title>
      <desc>Sector Type: 0</desc>
    <path d="M 4032 -3392 L 4032 -3328 4008 -3328 4008 -3392 4032 -3392 "/>
    </g>
    <g fill="white" stroke="black" fill-opacity="1.0" stroke-width="1">
      <title>Sector 34</title>
      <desc>Sector Type: 0</desc>
    <path d="M 3984 -3392 L 4008 -3392 4008 -3328 3984 -3328 3984 -3392 "/>
    </g>
    <g fill="white" stroke="black" fill-opacity="1.0" stroke-width="1">
      <title>Sector 35</title>
      <desc>Sector Type: 0</desc>
    <path d="M 3960 -3392 L 3984 -3392 3984 -3328 3960 -3328 3960 -3392 "/>
    </g>
    <g fill="white" stroke="black" fill-opacity="1.0" stroke-width="1">
      <title>Sector 36</title>
      <desc>Sector Type: 0</desc>
    <path d="M 3936 -3392 L 3960 -3392 3960 -3328 3936 -3328 3936 -3392 "/>
    </g>
    <g fill="white" stroke="black" fill-opacity="1.0" stroke-width="1">
      <title>Sector 37</title>
      <desc>Sector Type: 0</desc>
    <path d="M 4288 -3200 L 4224 -3200 4096 -3328 4096 -3392 4224 -3520 4288 -3520 4328 -3480 4376 -3432 4416 -3392 4416 -3328 4376 -3288 4328 -3240 4288 -3200 M 4240 -3344 L 4272 -3344 4272 -3376 4240 -3376 4240 -3344 "/>
    </g>
    <g fill="white" stroke="black" fill-opacity="1.0" stroke-width="1">
      <title>Sector 38</title>
      <desc>Sector Type: 0</desc>
    <path d="M 4096 -3328 L 4096 -3392 4080 -3392 4080 -3328 4096 -3328 "/>
    </g>
    <g fill="white" stroke="black" fill-opacity="1.0" stroke-width="1">
      <title>Sector 39</title>
      <desc>Sector Type: 0</desc>
    <path d="M 4080 -3328 L 4056 -3328 4056 -3392 4080 -3392 4080 -3328 "/>
    </g>
    <g fill="white" stroke="black" fill-opacity="1.0" stroke-width="1">
      <title>Sector 40</title>
      <desc>Sector Type: 0</desc>
    <path d="M 4056 -3328 L 4056 -3392 4032 -3392 4032 -3328 4056 -3328 "/>
    </g>
    <g fill="white" stroke="black" fill-opacity="1.0" stroke-width="1">
      <title>Sector 41</title>
      <desc>Sector Type: 2</desc>
    <path d="M 4272 -3344 L 4272 -3376 4240 -3376 4240 -3344 4272 -3344 "/>
    </g>
    <g fill="white" stroke="black" fill-opacity="1.0" stroke-width="1">
      <title>Sector 42</title>
      <desc>Sector Type: 0</desc>
    <path d="M 4328 -3480 L 4376 -3432 4472 -3528 4424 -3576 4328 -3480 "/>
    </g>
    <g fill="white" stroke="black" fill-opacity="1.0" stroke-width="1">
      <title>Sector 43</title>
      <desc>Sector Type: 0</desc>
    <path d="M 4544 -2944 L 4544 -2904 4608 -2904 4608 -2944 4672 -2944 4672 -3008 4704 -3008 4704 -3072 4672 -3072 4672 -3136 4712 -3136 4712 -3248 4696 -3248 4696 -3344 4712 -3344 4824 -3344 4824 -2736 3904 -2736 3904 -2904 3968 -2904 3968 -2944 4032 -2944 4032 -2904 4256 -2904 4256 -2920 4352 -2920 4352 -2904 4480 -2904 4480 -2944 4544 -2944 M 4032 -2880 L 3968 -2880 3968 -2816 4032 -2816 4032 -2880 "/>
    <!-- Type 26 -->
    <path d="M 4256 -2920 L 4352 -2920" stroke="orange" stroke-width="3" />    <!-- Type 26 -->
    <path d="M 4696 -3248 L 4696 -3344" stroke="orange" stroke-width="3" />    <!-- Type 97 -->
    <path d="M 3968 -2880 L 3968 -2816" stroke="red" stroke-width="3" />    <!-- Type 97 -->
    <path d="M 3968 -2816 L 4032 -2816" stroke="red" stroke-width="3" />    <!-- Type 97 -->
    <path d="M 4032 -2816 L 4032 -2880" stroke="red" stroke-width="3" />    <!-- Type 97 -->
    <path d="M 4032 -2880 L 3968 -2880" stroke="red" stroke-width="3" />    </g>
    <g fill="white" stroke="black" fill-opacity="1.0" stroke-width="1">
      <title>Sector 44</title>
      <desc>Sector Type: 0</desc>
    <path d="M 4688 -3248 L 4672 -3248 4672 -3344 4688 -3344 4688 -3248 "/>
    <!-- Type 26 -->
    <path d="M 4688 -3344 L 4688 -3248" stroke="orange" stroke-width="3" />    </g>
    <g fill="white" stroke="black" fill-opacity="1.0" stroke-width="1">
      <title>Sector 45</title>
      <desc>Sector Type: 0</desc>
    <path d="M 4688 -3344 L 4696 -3344 4696 -3248 4688 -3248 4688 -3344 "/>
    <!-- Type 26 -->
    <path d="M 4696 -3248 L 4696 -3344" stroke="orange" stroke-width="3" />    <!-- Type 26 -->
    <path d="M 4688 -3344 L 4688 -3248" stroke="orange" stroke-width="3" />    </g>
    <g fill="white" stroke="black" fill-opacity="1.0" stroke-width="1">
      <title>Sector 46</title>
      <desc>Sector Type: 0</desc>
    <path d="M 4688 -3376 L 4688 -3472 4672 -3472 4672 -3376 4688 -3376 "/>
    <!-- Type 26 -->
    <path d="M 4688 -3472 L 4688 -3376" stroke="orange" stroke-width="3" />    </g>
    <g fill="white" stroke="black" fill-opacity="1.0" stroke-width="1">
      <title>Sector 47</title>
      <desc>Sector Type: 0</desc>
    <path d="M 4688 -3472 L 4696 -3472 4696 -3376 4688 -3376 4688 -3472 "/>
    <!-- Type 26 -->
    <path d="M 4696 -3376 L 4696 -3472" stroke="orange" stroke-width="3" />    <!-- Type 26 -->
    <path d="M 4688 -3472 L 4688 -3376" stroke="orange" stroke-width="3" />    </g>
    <g fill="white" stroke="black" fill-opacity="1.0" stroke-width="1">
      <title>Sector 48</title>
      <desc>Sector Type: 0</desc>
    <path d="M 4672 -3072 L 4672 -3008 4672 -2944 4608 -2944 4544 -2944 4480 -2944 4352 -2944 4416 -3136 4424 -3144 4472 -3192 4480 -3200 4672 -3248 4672 -3136 4672 -3072 "/>
    </g>
    <g fill="white" stroke="black" fill-opacity="1.0" stroke-width="1">
      <title>Sector 49</title>
      <desc>Sector Type: 0</desc>
    <path d="M 4480 -3328 L 4480 -3392 4504 -3392 4504 -3328 4480 -3328 "/>
    </g>
    <g fill="white" stroke="black" fill-opacity="1.0" stroke-width="1">
      <title>Sector 50</title>
      <desc>Sector Type: 0</desc>
    <path d="M 4528 -3328 L 4504 -3328 4504 -3392 4528 -3392 4528 -3328 "/>
    </g>
    <g fill="white" stroke="black" fill-opacity="1.0" stroke-width="1">
      <title>Sector 51</title>
      <desc>Sector Type: 0</desc>
    <path d="M 4480 -3392 L 4504 -3392 4528 -3392 4552 -3392 4576 -3392 4576 -3328 4552 -3328 4528 -3328 4504 -3328 4480 -3328 4480 -3312 4424 -3256 4480 -3200 4672 -3248 4672 -3344 4672 -3376 4672 -3472 4480 -3520 4424 -3464 4480 -3408 4480 -3392 "/>
    </g>
    <g fill="white" stroke="black" fill-opacity="1.0" stroke-width="1">
      <title>Sector 52</title>
      <desc>Sector Type: 0</desc>
    <path d="M 4552 -3328 L 4528 -3328 4528 -3392 4552 -3392 4552 -3328 "/>
    </g>
    <g fill="white" stroke="black" fill-opacity="1.0" stroke-width="1">
      <title>Sector 53</title>
      <desc>Sector Type: 0</desc>
    <path d="M 4576 -3328 L 4552 -3328 4552 -3392 4576 -3392 4576 -3328 "/>
    </g>
    <g fill="white" stroke="black" fill-opacity="1.0" stroke-width="1">
      <title>Sector 54</title>
      <desc>Sector Type: 0</desc>
    <path d="M 4432 -3328 L 4432 -3392 4416 -3392 4416 -3328 4432 -3328 "/>
    </g>
    <g fill="white" stroke="black" fill-opacity="1.0" stroke-width="1">
      <title>Sector 55</title>
      <desc>Sector Type: 0</desc>
    <path d="M 4456 -3328 L 4432 -3328 4432 -3392 4456 -3392 4456 -3328 "/>
    </g>
    <g fill="white" stroke="black" fill-opacity="1.0" stroke-width="1">
      <title>Sector 56</title>
      <desc>Sector Type: 0</desc>
    <path d="M 4480 -3328 L 4480 -3392 4456 -3392 4456 -3328 4480 -3328 "/>
    </g>
    <g fill="white" stroke="black" fill-opacity="1.0" stroke-width="1">
      <title>Sector 57</title>
      <desc>Sector Type: 0</desc>
    <path d="M 4424 -3144 L 4472 -3192 4376 -3288 4328 -3240 4424 -3144 "/>
    </g>
    <g fill="white" stroke="black" fill-opacity="1.0" stroke-width="1">
      <title>Sector 58</title>
      <desc>Sector Type: 0</desc>
    <path d="M 4032 -2880 L 3968 -2880 3968 -2816 4032 -2816 4032 -2880 "/>
    <!-- Type 97 -->
    <path d="M 3968 -2880 L 3968 -2816" stroke="red" stroke-width="3" />    <!-- Type 97 -->
    <path d="M 3968 -2816 L 4032 -2816" stroke="red" stroke-width="3" />    <!-- Type 97 -->
    <path d="M 4032 -2816 L 4032 -2880" stroke="red" stroke-width="3" />    <!-- Type 97 -->
    <path d="M 4032 -2880 L 3968 -2880" stroke="red" stroke-width="3" />    </g>
    <g fill="white" stroke="black" fill-opacity="1.0" stroke-width="1">
      <title>Sector 59</title>
      <desc>Sector Type: 0</desc>
    <path d="M 4256 -2928 L 4352 -2928 4352 -2944 4256 -2944 4256 -2928 "/>
    <!-- Type 26 -->
    <path d="M 4352 -2928 L 4256 -2928" stroke="orange" stroke-width="3" />    </g>
    <g fill="white" stroke="black" fill-opacity="1.0" stroke-width="1">
      <title>Sector 60</title>
      <desc>Sector Type: 0</desc>
    <path d="M 4352 -2928 L 4352 -2920 4256 -2920 4256 -2928 4352 -2928 "/>
    <!-- Type 26 -->
    <path d="M 4256 -2920 L 4352 -2920" stroke="orange" stroke-width="3" />    <!-- Type 26 -->
    <path d="M 4352 -2928 L 4256 -2928" stroke="orange" stroke-width="3" />    </g>
    <g fill="white" stroke="black" fill-opacity="1.0" stroke-width="1">
      <title>Sector 61</title>
      <desc>Sector Type: 0</desc>
    <path d="M 2376 -3200 L 2304 -3200 2288 -3216 2288 -3264 2352 -3264 2376 -3264 2376 -3200 "/>
    </g>
    <g fill="white" stroke="black" fill-opacity="1.0" stroke-width="1">
      <title>Sector 62</title>
      <desc>Sector Type: 0</desc>
    <path d="M 2544 -3264 L 2688 -3136 2544 -3264 2544 -3392 2544 -3456 2544 -3648 2688 -3712 2688 -3424 2704 -3424 2704 -3296 2688 -3296 2688 -3136 2624 -3072 2288 -3072 2288 -3216 2304 -3200 2376 -3200 2400 -3200 2424 -3200 2448 -3200 2472 -3200 2496 -3200 2520 -3200 2544 -3200 2544 -3264 M 2688 -3712 L 2544 -3648 2368 -3648 2368 -3776 2624 -3776 2688 -3712 "/>
    <!-- Type 123 -->
    <path d="M 2704 -3424 L 2704 -3296" stroke="blue" stroke-width="3" />    <!-- Type 120 -->
    <path d="M 2688 -3136 L 2544 -3264" stroke="blue" stroke-width="3" />    <!-- Type 120 -->
    <path d="M 2688 -3136 L 2544 -3264" stroke="blue" stroke-width="3" />    <!-- Type 120 -->
    <path d="M 2544 -3648 L 2688 -3712" stroke="blue" stroke-width="3" />    <!-- Type 120 -->
    <path d="M 2544 -3648 L 2688 -3712" stroke="blue" stroke-width="3" />    </g>
    <g fill="white" stroke="black" fill-opacity="1.0" stroke-width="1">
      <title>Sector 63</title>
      <desc>Sector Type: 0</desc>
    <path d="M 2400 -3264 L 2400 -3200 2376 -3200 2376 -3264 2400 -3264 "/>
    </g>
    <g fill="white" stroke="black" fill-opacity="1.0" stroke-width="1">
      <title>Sector 64</title>
      <desc>Sector Type: 0</desc>
    <path d="M 2424 -3264 L 2424 -3200 2400 -3200 2400 -3264 2424 -3264 "/>
    </g>
    <g fill="white" stroke="black" fill-opacity="1.0" stroke-width="1">
      <title>Sector 65</title>
      <desc>Sector Type: 0</desc>
    <path d="M 2448 -3264 L 2448 -3200 2424 -3200 2424 -3264 2448 -3264 "/>
    </g>
    <g fill="white" stroke="black" fill-opacity="1.0" stroke-width="1">
      <title>Sector 66</title>
      <desc>Sector Type: 0</desc>
    <path d="M 2136 -3256 L 2256 -3256 2272 -3256 2272 -3072 2120 -3072 2120 -3256 2136 -3256 "/>
    </g>
    <g fill="white" stroke="black" fill-opacity="1.0" stroke-width="1">
      <title>Sector 67</title>
      <desc>Sector Type: 0</desc>
    <path d="M 2136 -3256 L 2136 -3264 2256 -3264 2256 -3256 2136 -3256 "/>
    </g>
    <g fill="white" stroke="black" fill-opacity="1.0" stroke-width="1">
      <title>Sector 68</title>
      <desc>Sector Type: 0</desc>
    <path d="M 2472 -3264 L 2472 -3200 2448 -3200 2448 -3264 2472 -3264 "/>
    </g>
    <g fill="white" stroke="black" fill-opacity="1.0" stroke-width="1">
      <title>Sector 69</title>
      <desc>Sector Type: 0</desc>
    <path d="M 2496 -3264 L 2496 -3200 2472 -3200 2472 -3264 2496 -3264 "/>
    </g>
    <g fill="white" stroke="black" fill-opacity="1.0" stroke-width="1">
      <title>Sector 70</title>
      <desc>Sector Type: 0</desc>
    <path d="M 2520 -3264 L 2520 -3200 2496 -3200 2496 -3264 2520 -3264 "/>
    </g>
    <g fill="white" stroke="black" fill-opacity="1.0" stroke-width="1">
      <title>Sector 71</title>
      <desc>Sector Type: 0</desc>
    <path d="M 2544 -3264 L 2544 -3200 2520 -3200 2520 -3264 2544 -3264 "/>
    </g>
    <g fill="white" stroke="black" fill-opacity="1.0" stroke-width="1">
      <title>Sector 72</title>
      <desc>Sector Type: 0</desc>
    <path d="M 2688 -2816 L 2752 -2816 2752 -2832 2816 -2832 2816 -3136 2688 -3136 2624 -3072 2624 -2832 2688 -2832 2688 -2816 "/>
    <!-- Type 114 -->
    <path d="M 2752 -2816 L 2688 -2816" stroke="orange" stroke-width="3" />    </g>
    <g fill="white" stroke="black" fill-opacity="1.0" stroke-width="1">
      <title>Sector 73</title>
      <desc>Sector Type: 0</desc>
    <path d="M 2408 -3592 L 2392 -3632 2528 -3632 2528 -3456 2528 -3392 2528 -3280 2352 -3280 2288 -3280 2288 -3560 2288 -3280 2256 -3280 2136 -3280 2112 -3280 2112 -3360 2112 -3384 2176 -3384 2176 -3360 2176 -3384 2176 -3408 2176 -3432 2176 -3456 2176 -3568 2112 -3568 2112 -3632 2296 -3632 2280 -3592 2288 -3560 2328 -3528 2360 -3528 2400 -3560 2408 -3592 M 2112 -3360 L 2176 -3360 2112 -3360 "/>
    </g>
    <g fill="white" stroke="black" fill-opacity="1.0" stroke-width="1">
      <title>Sector 74</title>
      <desc>Sector Type: 0</desc>
    <path d="M 2136 -3280 L 2256 -3280 2256 -3264 2136 -3264 2136 -3280 "/>
    </g>
    <g fill="white" stroke="black" fill-opacity="1.0" stroke-width="1">
      <title>Sector 75</title>
      <desc>Sector Type: 0</desc>
    <path d="M 2112 -3408 L 2112 -3384 2176 -3384 2176 -3408 2112 -3408 "/>
    </g>
    <g fill="white" stroke="black" fill-opacity="1.0" stroke-width="1">
      <title>Sector 76</title>
      <desc>Sector Type: 0</desc>
    <path d="M 2112 -3432 L 2112 -3408 2176 -3408 2176 -3432 2112 -3432 "/>
    </g>
    <g fill="white" stroke="black" fill-opacity="1.0" stroke-width="1">
      <title>Sector 77</title>
      <desc>Sector Type: 0</desc>
    <path d="M 2112 -3456 L 2112 -3432 2176 -3432 2176 -3456 2112 -3456 "/>
    </g>
    <g fill="white" stroke="black" fill-opacity="1.0" stroke-width="1">
      <title>Sector 78</title>
      <desc>Sector Type: 0</desc>
    <path d="M 2352 -3280 L 2288 -3280 2288 -3264 2352 -3264 2352 -3280 "/>
    </g>
    <g fill="white" stroke="black" fill-opacity="1.0" stroke-width="1">
      <title>Sector 79</title>
      <desc>Sector Type: 0</desc>
    <path d="M 2176 -3456 L 2112 -3456 2112 -3472 2112 -3568 2176 -3568 2176 -3456 "/>
    </g>
    <g fill="white" stroke="black" fill-opacity="1.0" stroke-width="1">
      <title>Sector 80</title>
      <desc>Sector Type: 0</desc>
    <path d="M 2088 -3568 L 2112 -3568 2112 -3472 2088 -3472 2088 -3568 "/>
    <!-- Type 114 -->
    <path d="M 2088 -3472 L 2088 -3568" stroke="orange" stroke-width="3" />    </g>
    <g fill="white" stroke="black" fill-opacity="1.0" stroke-width="1">
      <title>Sector 81</title>
      <desc>Sector Type: 0</desc>
    <path d="M 2080 -3568 L 2080 -3472 1856 -3472 1856 -3488 1840 -3488 1840 -3552 1856 -3552 1856 -3568 2000 -3568 2064 -3568 2080 -3568 "/>
    <!-- Type 114 -->
    <path d="M 2080 -3568 L 2080 -3472" stroke="orange" stroke-width="3" />    </g>
    <g fill="white" stroke="black" fill-opacity="1.0" stroke-width="1">
      <title>Sector 82</title>
      <desc>Sector Type: 0</desc>
    <path d="M 2080 -3568 L 2088 -3568 2088 -3472 2080 -3472 2080 -3568 "/>
    <!-- Type 114 -->
    <path d="M 2088 -3472 L 2088 -3568" stroke="orange" stroke-width="3" />    <!-- Type 114 -->
    <path d="M 2080 -3568 L 2080 -3472" stroke="orange" stroke-width="3" />    </g>
    <g fill="white" stroke="black" fill-opacity="1.0" stroke-width="1">
      <title>Sector 83</title>
      <desc>Sector Type: 0</desc>
    <path d="M 1968 -3712 L 2032 -3776 2320 -3776 2320 -3648 2096 -3648 2096 -3584 2064 -3584 2000 -3584 1968 -3584 1968 -3712 "/>
    </g>
    <g fill="white" stroke="black" fill-opacity="1.0" stroke-width="1">
      <title>Sector 84</title>
      <desc>Sector Type: 0</desc>
    <path d="M 2000 -3568 L 2064 -3568 2064 -3584 2000 -3584 2000 -3568 "/>
    </g>
    <g fill="white" stroke="black" fill-opacity="1.0" stroke-width="1">
      <title>Sector 85</title>
      <desc>Sector Type: 0</desc>
    <path d="M 2944 -3712 L 2944 -3776 2992 -3776 2992 -3712 2944 -3712 "/>
    <!-- Type 97 -->
    <path d="M 2944 -3712 L 2944 -3776" stroke="red" stroke-width="3" />    </g>
    <g fill="white" stroke="black" fill-opacity="1.0" stroke-width="1">
      <title>Sector 86</title>
      <desc>Sector Type: 0</desc>
    <path d="M 2880 -3712 L 2944 -3712 2944 -3776 2880 -3776 2880 -3712 "/>
    <!-- Type 97 -->
    <path d="M 2944 -3712 L 2944 -3776" stroke="red" stroke-width="3" />    </g>
    <g fill="white" stroke="black" fill-opacity="1.0" stroke-width="1">
      <title>Sector 87</title>
      <desc>Sector Type: 0</desc>
    <path d="M 3008 -3712 L 3008 -3776 2992 -3776 2992 -3712 3008 -3712 "/>
    </g>
    <g fill="white" stroke="black" fill-opacity="1.0" stroke-width="1">
      <title>Sector 88</title>
      <desc>Sector Type: 0</desc>
    <path d="M 2704 -3424 L 2752 -3424 2752 -3296 2704 -3296 2704 -3424 "/>
    <!-- Type 120 -->
    <path d="M 2752 -3296 L 2752 -3424" stroke="blue" stroke-width="3" />    <!-- Type 123 -->
    <path d="M 2704 -3424 L 2704 -3296" stroke="blue" stroke-width="3" />    </g>
    <g fill="white" stroke="black" fill-opacity="1.0" stroke-width="1">
      <title>Sector 89</title>
      <desc>Sector Type: 0</desc>
    <path d="M 2336 -3552 L 2312 -3568 2304 -3592 2320 -3632 2368 -3632 2384 -3592 2376 -3568 2352 -3552 2336 -3552 "/>
    <!-- Type 109 -->
    <path d="M 2320 -3632 L 2368 -3632" stroke="orange" stroke-width="3" />    </g>
    <g fill="white" stroke="black" fill-opacity="1.0" stroke-width="1">
      <title>Sector 90</title>
      <desc>Sector Type: 0</desc>
    <path d="M 2392 -3632 L 2368 -3632 2384 -3592 2376 -3568 2352 -3552 2336 -3552 2312 -3568 2304 -3592 2320 -3632 2296 -3632 2280 -3592 2288 -3560 2328 -3528 2360 -3528 2400 -3560 2408 -3592 2392 -3632 "/>
    </g>
    <g fill="white" stroke="black" fill-opacity="1.0" stroke-width="1">
      <title>Sector 91</title>
      <desc>Sector Type: 0</desc>
    <path d="M 2544 -3456 L 2528 -3456 2528 -3392 2544 -3392 2544 -3456 "/>
    </g>
    <g fill="white" stroke="black" fill-opacity="1.0" stroke-width="1">
      <title>Sector 92</title>
      <desc>Sector Type: 0</desc>
    <path d="M 2368 -3648 L 2320 -3648 2320 -3776 2368 -3776 2368 -3648 "/>
    </g>
    <g fill="white" stroke="black" fill-opacity="1.0" stroke-width="1">
      <title>Sector 93</title>
      <desc>Sector Type: 0</desc>
    <path d="M 2320 -3632 L 2368 -3632 2368 -3648 2320 -3648 2320 -3632 "/>
    <!-- Type 109 -->
    <path d="M 2320 -3632 L 2368 -3632" stroke="orange" stroke-width="3" />    </g>
    <g fill="white" stroke="black" fill-opacity="1.0" stroke-width="1">
      <title>Sector 94</title>
      <desc>Sector Type: 0</desc>
    <path d="M 2328 -3840 L 2320 -3776 2368 -3776 2360 -3840 2328 -3840 "/>
    </g>
    <g fill="white" stroke="black" fill-opacity="1.0" stroke-width="1">
      <title>Sector 95</title>
      <desc>Sector Type: 0</desc>
    <path d="M 2688 -2808 L 2752 -2808 2752 -2800 3136 -2800 3136 -2712 2304 -2712 2304 -2800 2688 -2800 2688 -2808 "/>
    <!-- Type 114 -->
    <path d="M 2688 -2808 L 2752 -2808" stroke="orange" stroke-width="3" />    <!-- Type 19 -->
    <path d="M 2304 -2712 L 3136 -2712" stroke="orange" stroke-width="3" />    </g>
    <g fill="white" stroke="black" fill-opacity="1.0" stroke-width="1">
      <title>Sector 96</title>
      <desc>Sector Type: 0</desc>
    <path d="M 2688 -2808 L 2688 -2816 2752 -2816 2752 -2808 2688 -2808 "/>
    <!-- Type 114 -->
    <path d="M 2752 -2816 L 2688 -2816" stroke="orange" stroke-width="3" />    <!-- Type 114 -->
    <path d="M 2688 -2808 L 2752 -2808" stroke="orange" stroke-width="3" />    </g>
    <g fill="white" stroke="black" fill-opacity="1.0" stroke-width="1">
      <title>Sector 97</title>
      <desc>Sector Type: 0</desc>
    <path d="M 2304 -2416 L 2304 -2576 2304 -2712 3136 -2712 3136 -2624 3072 -2624 3072 -2496 3136 -2496 3136 -2464 3136 -2272 3136 -2240 2368 -2240 2368 -2304 2304 -2304 2304 -2416 M 3088 -2288 L 3088 -2448 2928 -2448 2928 -2288 3088 -2288 M 2688 -2512 L 2688 -2448 2752 -2448 2752 -2512 2688 -2512 M 2384 -2448 L 2384 -2288 2512 -2288 2512 -2448 2384 -2448 M 2672 -2288 L 2768 -2288 2768 -2384 2672 -2384 2672 -2288 "/>
    <!-- Type 19 -->
    <path d="M 2304 -2712 L 3136 -2712" stroke="orange" stroke-width="3" />    <!-- Type 19 -->
    <path d="M 3072 -2624 L 3072 -2496" stroke="orange" stroke-width="3" />    <!-- Type 19 -->
    <path d="M 3136 -2624 L 3072 -2624" stroke="orange" stroke-width="3" />    <!-- Type 19 -->
    <path d="M 2752 -2448 L 2752 -2512" stroke="orange" stroke-width="3" />    <!-- Type 19 -->
    <path d="M 2752 -2512 L 2688 -2512" stroke="orange" stroke-width="3" />    <!-- Type 19 -->
    <path d="M 2688 -2512 L 2688 -2448" stroke="orange" stroke-width="3" />    <!-- Type 19 -->
    <path d="M 2688 -2448 L 2752 -2448" stroke="orange" stroke-width="3" />    <!-- Type 19 -->
    <path d="M 2304 -2416 L 2304 -2576" stroke="orange" stroke-width="3" />    <!-- Type 19 -->
    <path d="M 3136 -2240 L 2368 -2240" stroke="orange" stroke-width="3" />    </g>
    <g fill="white" stroke="black" fill-opacity="1.0" stroke-width="1">
      <title>Sector 98</title>
      <desc>Sector Type: 0</desc>
    <path d="M 2944 -2304 L 2944 -2432 3072 -2432 3072 -2304 2944 -2304 "/>
    </g>
    <g fill="white" stroke="black" fill-opacity="1.0" stroke-width="1">
      <title>Sector 99</title>
      <desc>Sector Type: 0</desc>
    <path d="M 2944 -2432 L 3072 -2432 3072 -2304 2944 -2304 2944 -2432 M 2928 -2288 L 3088 -2288 3088 -2448 2928 -2448 2928 -2288 "/>
    </g>
    <g fill="white" stroke="black" fill-opacity="1.0" stroke-width="1">
      <title>Sector 100</title>
      <desc>Sector Type: 0</desc>
    <path d="M 2688 -2304 L 2688 -2368 2752 -2368 2752 -2304 2688 -2304 "/>
    </g>
    <g fill="white" stroke="black" fill-opacity="1.0" stroke-width="1">
      <title>Sector 101</title>
      <desc>Sector Type: 0</desc>
    <path d="M 2688 -2368 L 2752 -2368 2752 -2304 2688 -2304 2688 -2368 M 2672 -2288 L 2768 -2288 2768 -2384 2672 -2384 2672 -2288 "/>
    </g>
    <g fill="white" stroke="black" fill-opacity="1.0" stroke-width="1">
      <title>Sector 102</title>
      <desc>Sector Type: 0</desc>
    <path d="M 3072 -2624 L 3072 -2496 3136 -2496 3136 -2624 3072 -2624 "/>
    <!-- Type 19 -->
    <path d="M 3072 -2624 L 3072 -2496" stroke="orange" stroke-width="3" />    <!-- Type 19 -->
    <path d="M 3136 -2624 L 3072 -2624" stroke="orange" stroke-width="3" />    </g>
    <g fill="white" stroke="black" fill-opacity="1.0" stroke-width="1">
      <title>Sector 103</title>
      <desc>Sector Type: 0</desc>
    <path d="M 2688 -2448 L 2752 -2448 2752 -2512 2688 -2512 2688 -2448 "/>
    <!-- Type 19 -->
    <path d="M 2752 -2448 L 2752 -2512" stroke="orange" stroke-width="3" />    <!-- Type 19 -->
    <path d="M 2752 -2512 L 2688 -2512" stroke="orange" stroke-width="3" />    <!-- Type 19 -->
    <path d="M 2688 -2512 L 2688 -2448" stroke="orange" stroke-width="3" />    <!-- Type 19 -->
    <path d="M 2688 -2448 L 2752 -2448" stroke="orange" stroke-width="3" />    </g>
    <g fill="white" stroke="black" fill-opacity="1.0" stroke-width="1">
      <title>Sector 104</title>
      <desc>Sector Type: 0</desc>
    <path d="M 2400 -2304 L 2400 -2432 2496 -2432 2496 -2304 2400 -2304 "/>
    </g>
    <g fill="white" stroke="black" fill-opacity="1.0" stroke-width="1">
      <title>Sector 105</title>
      <desc>Sector Type: 0</desc>
    <path d="M 2400 -2432 L 2496 -2432 2496 -2304 2400 -2304 2400 -2432 M 2384 -2288 L 2512 -2288 2512 -2448 2384 -2448 2384 -2288 "/>
    </g>
    <g fill="white" stroke="black" fill-opacity="1.0" stroke-width="1">
      <title>Sector 106</title>
      <desc>Sector Type: 0</desc>
    <path d="M 2368 -2240 L 2368 -2304 2304 -2304 2304 -2240 2368 -2240 "/>
    </g>
    <g fill="white" stroke="black" fill-opacity="1.0" stroke-width="1">
      <title>Sector 107</title>
      <desc>Sector Type: 0</desc>
    <path d="M 2296 -2512 L 2280 -2512 2280 -2576 2304 -2576 2304 -2416 2280 -2416 2280 -2480 2296 -2480 2296 -2512 "/>
    <!-- Type 19 -->
    <path d="M 2304 -2416 L 2304 -2576" stroke="orange" stroke-width="3" />    <!-- Type 123 -->
    <path d="M 2280 -2512 L 2280 -2576" stroke="blue" stroke-width="3" />    <!-- Type 103 -->
    <path d="M 2280 -2416 L 2280 -2480" stroke="orange" stroke-width="3" />    </g>
    <g fill="white" stroke="black" fill-opacity="1.0" stroke-width="1">
      <title>Sector 108</title>
      <desc>Sector Type: 0</desc>
    <path d="M 2624 -2176 L 2368 -2176 2304 -2176 2304 -2240 2368 -2240 2368 -2176 2368 -2240 3136 -2240 3136 -2176 3072 -2176 2816 -2176 2816 -2160 2624 -2160 2624 -2176 "/>
    <!-- Type 33 -->
    <path d="M 2816 -2160 L 2624 -2160" stroke="orange" stroke-width="3" />    <!-- Type 19 -->
    <path d="M 3136 -2240 L 2368 -2240" stroke="orange" stroke-width="3" />    <!-- Type 97 -->
    <path d="M 3136 -2176 L 3072 -2176" stroke="red" stroke-width="3" />    </g>
    <g fill="white" stroke="black" fill-opacity="1.0" stroke-width="1">
      <title>Sector 109</title>
      <desc>Sector Type: 0</desc>
    <path d="M 2688 -1944 L 2688 -1960 2560 -1960 2560 -2128 2624 -2128 2624 -2144 2816 -2144 2816 -2128 2880 -2128 2880 -1960 2752 -1960 2752 -1944 2688 -1944 M 2704 -2056 L 2704 -2048 2736 -2048 2736 -2056 2704 -2056 "/>
    <!-- Type 11 -->
    <path d="M 2752 -1944 L 2688 -1944" stroke="purple" stroke-width="3" />    </g>
    <g fill="white" stroke="black" fill-opacity="1.0" stroke-width="1">
      <title>Sector 110</title>
      <desc>Sector Type: 0</desc>
    <path d="M 2704 -2056 L 2704 -2048 2736 -2048 2736 -2056 2704 -2056 "/>
    </g>
    <g fill="white" stroke="black" fill-opacity="1.0" stroke-width="1">
      <title>Sector 111</title>
      <desc>Sector Type: 0</desc>
    <path d="M 2816 -2160 L 2624 -2160 2624 -2144 2816 -2144 2816 -2160 "/>
    <!-- Type 33 -->
    <path d="M 2816 -2160 L 2624 -2160" stroke="orange" stroke-width="3" />    </g>
    <g fill="white" stroke="black" fill-opacity="1.0" stroke-width="1">
      <title>Sector 112</title>
      <desc>Sector Type: 0</desc>
    <path d="M 3072 -2176 L 3136 -2176 3136 -2112 3072 -2112 3072 -2176 "/>
    <!-- Type 97 -->
    <path d="M 3136 -2176 L 3072 -2176" stroke="red" stroke-width="3" />    </g>
    <rect x="2326" y="-3610" width="20" height="20" stroke="black" fill="yellow"><title>Megaarmor [12345]</title></rect>
    <rect x="2134" y="-3530" width="20" height="20" stroke="black" fill="red"><title>Shotgun [12345]</title></rect>
    <rect x="2134" y="-3610" stroke="black" width="20" height="20" fill="aqua"><title>Box of shotgun shells [12345]</title></rect>
    <circle cx="2470" cy="-3530" r="20" fill="black"><title>Imp [12345]</title></circle>
    <circle cx="2486" cy="-3322" r="20" fill="black"><title>Imp [12345]</title></circle>
    <circle cx="2470" cy="-3466" r="20" fill="black"><title>Imp [345]</title></circle>
    <circle cx="2470" cy="-3402" r="20" fill="black"><title>Imp [45]</title></circle>
    <circle cx="2310" cy="-3242" r="20" fill="black"><title>Shotgun guy [12345]</title></circle>
    <circle cx="2566" cy="-3642" r="20" fill="black"><title>Zombieman [12345D]</title></circle>
    <circle cx="2614" cy="-3642" r="20" fill="black"><title>Zombieman [12345D]</title></circle>
    <circle cx="2598" cy="-3594" r="20" fill="black"><title>Zombieman [345D]</title></circle>
    <circle cx="2646" cy="-3610" r="20" fill="black"><title>Zombieman [345D]</title></circle>
    <circle cx="2630" cy="-3562" r="20" fill="black"><title>Zombieman [45D]</title></circle>
    <circle cx="2582" cy="-3546" r="20" fill="black"><title>Zombieman [45D]</title></circle>
    <circle cx="2214" cy="-3754" r="20" fill="black"><title>Zombieman [12345D]</title></circle>
    <circle cx="2214" cy="-3690" r="20" fill="black"><title>Zombieman [12345D]</title></circle>
    <circle cx="2246" cy="-3722" r="20" fill="black"><title>Shotgun guy [345D]</title></circle>
    <circle cx="2134" cy="-3690" r="20" fill="black"><title>Shotgun guy [45D]</title></circle>
    <circle cx="2134" cy="-3754" r="20" fill="black"><title>Shotgun guy [45D]</title></circle>
    <circle cx="3014" cy="-3642" r="20" fill="black"><title>Imp [12345D]</title></circle>
    <circle cx="2998" cy="-3082" r="20" fill="black"><title>Imp [12345D]</title></circle>
    <circle cx="3062" cy="-3242" r="20" fill="black"><title>Imp [345D]</title></circle>
    <circle cx="3078" cy="-3498" r="20" fill="black"><title>Imp [345D]</title></circle>
    <circle cx="3014" cy="-3562" r="20" fill="black"><title>Imp [45D]</title></circle>
    <circle cx="2982" cy="-3178" r="20" fill="black"><title>Imp [45D]</title></circle>
    <circle cx="3878" cy="-3290" r="20" fill="black"><title>Imp [12345D]</title></circle>
    <circle cx="3878" cy="-3450" r="20" fill="black"><title>Imp [12345D]</title></circle>
    <circle cx="4070" cy="-3514" r="20" fill="black"><title>Imp [345D]</title></circle>
    <circle cx="4070" cy="-3210" r="20" fill="black"><title>Imp [345D]</title></circle>
    <circle cx="3782" cy="-3370" r="20" fill="black"><title>Heavy weapon dude [45D]</title></circle>
    <circle cx="3174" cy="-3370" r="20" fill="black"><title>Heavy weapon dude [45D]</title></circle>
    <circle cx="3622" cy="-3114" r="20" fill="black"><title>Heavy weapon dude [345D]</title></circle>
    <circle cx="3446" cy="-3594" r="20" fill="black"><title>Heavy weapon dude [345D]</title></circle>
    <circle cx="3638" cy="-3594" r="30" fill="black"><title>Spectre [12D]</title></circle>
    <circle cx="3334" cy="-3098" r="30" fill="black"><title>Spectre [12D]</title></circle>
    <circle cx="3206" cy="-3642" r="20" fill="black"><title>Heavy weapon dude [45D]</title></circle>
    <circle cx="3766" cy="-3114" r="20" fill="black"><title>Heavy weapon dude [45D]</title></circle>
    <circle cx="4246" cy="-3498" r="30" fill="black"><title>Spectre [345D]</title></circle>
    <circle cx="4246" cy="-3242" r="30" fill="black"><title>Spectre [345D]</title></circle>
    <circle cx="4358" cy="-3482" r="20" fill="black"><title>Shotgun guy [12345D]</title></circle>
    <circle cx="4358" cy="-3242" r="20" fill="black"><title>Shotgun guy [12345D]</title></circle>
    <circle cx="4150" cy="-3434" r="20" fill="black"><title>Zombieman [45D]</title></circle>
    <circle cx="4150" cy="-3306" r="20" fill="black"><title>Zombieman [45D]</title></circle>
    <circle cx="4470" cy="-3258" r="20" fill="black"><title>Shotgun guy [12345D]</title></circle>
    <circle cx="4470" cy="-3466" r="20" fill="black"><title>Shotgun guy [345D]</title></circle>
    <circle cx="4310" cy="-3882" r="20" fill="black"><title>Heavy weapon dude [345D]</title></circle>
    <circle cx="4070" cy="-2810" r="20" fill="black"><title>Heavy weapon dude [345D]</title></circle>
    <circle cx="4726" cy="-3306" r="20" fill="black"><title>Shotgun guy [345D]</title></circle>
    <circle cx="4726" cy="-3418" r="20" fill="black"><title>Shotgun guy [12345D]</title></circle>
    <circle cx="4630" cy="-3370" r="20" fill="black"><title>Shotgun guy [45D]</title></circle>
    <circle cx="4726" cy="-3114" r="20" fill="black"><title>Zombieman [12345D]</title></circle>
    <circle cx="4710" cy="-2938" r="20" fill="black"><title>Zombieman [12345D]</title></circle>
    <circle cx="4726" cy="-3626" r="20" fill="black"><title>Zombieman [12345D]</title></circle>
    <circle cx="4694" cy="-3802" r="20" fill="black"><title>Zombieman [12345D]</title></circle>
    <circle cx="4502" cy="-3834" r="20" fill="black"><title>Shotgun guy [345D]</title></circle>
    <circle cx="4502" cy="-2906" r="20" fill="black"><title>Shotgun guy [345D]</title></circle>
    <rect x="2710" y="-3370" width="20" height="20" stroke="black" fill="yellow"><title>Medikit [12345D]</title></rect>
    <circle cx="2150" cy="-3226" r="20" fill="black"><title>Shotgun guy [345D]</title></circle>
    <circle cx="2214" cy="-3226" r="20" fill="black"><title>Shotgun guy [345D]</title></circle>
    <circle cx="2150" cy="-3178" r="20" fill="black"><title>Shotgun guy [345D]</title></circle>
    <circle cx="2214" cy="-3178" r="20" fill="black"><title>Shotgun guy [45D]</title></circle>
    <circle cx="2150" cy="-3130" r="20" fill="black"><title>Shotgun guy [45D]</title></circle>
    <circle cx="2214" cy="-3130" r="20" fill="black"><title>Zombieman [12345D]</title></circle>
    <rect x="2150" y="-3098" width="20" height="20" stroke="black" fill="yellow"><title>Medikit [12345D]</title></rect>
    <rect x="4614" y="-3738" width="20" height="20" stroke="black" fill="yellow"><title>Medikit [12345D]</title></rect>
    <rect x="4614" y="-2986" width="20" height="20" stroke="black" fill="yellow"><title>Medikit [12345D]</title></rect>
    <rect x="4070" y="-2874" width="20" height="20" stroke="black" fill="yellow"><title>Medikit [12345D]</title></rect>
    <circle cx="4342" cy="-3146" r="20" fill="black"><title>Shotgun guy [345D]</title></circle>
    <circle cx="4342" cy="-3594" r="20" fill="black"><title>Shotgun guy [345D]</title></circle>
    <rect x="4598" y="-3370" width="20" height="20" fill="blue"><title>Blue keycard [12345D]</title></rect>
    <rect x="3574" y="-3706" width="20" height="20" stroke="black" fill="red"><title>Rocket launcher [12345]</title></rect>
    <circle cx="3622" cy="-3210" r="20" fill="black"><title>Heavy weapon dude [45D]</title></circle>
    <rect x="3478" y="-2810" stroke="black" width="20" height="20" fill="aqua"><title>Energy cell pack [12345D]</title></rect>
    <rect x="3606" y="-2730" stroke="black" width="20" height="20" fill="green"><title>Partial invisibility [12345D]</title></rect>
    <rect x="3350" y="-2730" stroke="black" width="20" height="20" fill="green"><title>Supercharge [12345D]</title></rect>
    <rect x="3478" y="-2778" width="20" height="20" stroke="black" fill="yellow"><title>Megaarmor [12345D]</title></rect>
    <rect x="2678" y="-3002" width="20" height="20" stroke="black" fill="yellow"><title>Medikit [12345]</title></rect>
    <rect x="2742" y="-3066" width="20" height="20" stroke="black" fill="yellow"><title>Medikit [12345]</title></rect>
    <circle cx="2710" cy="-2346" r="30" fill="black"><title>Demon [345]</title></circle>
    <rect x="2710" y="-2490" width="20" height="20" fill="red"><title>Red keycard [12345]</title></rect>
    <rect x="3094" y="-2538" stroke="black" width="20" height="20" fill="aqua"><title>Box of bullets [12345]</title></rect>
    <circle cx="2966" cy="-2410" r="30" fill="black"><title>Demon [12345]</title></circle>
    <circle cx="2438" cy="-2410" r="30" fill="black"><title>Demon [12345]</title></circle>
    <circle cx="2438" cy="-2346" r="30" fill="black"><title>Demon [345]</title></circle>
    <circle cx="3030" cy="-2410" r="30" fill="black"><title>Spectre [345]</title></circle>
    <circle cx="2966" cy="-2346" r="30" fill="black"><title>Spectre [45]</title></circle>
    <circle cx="3190" cy="-2442" r="20" fill="black"><title>Imp [12345]</title></circle>
    <circle cx="3190" cy="-2378" r="20" fill="black"><title>Imp [12345]</title></circle>
    <circle cx="3190" cy="-2314" r="20" fill="black"><title>Imp [12345]</title></circle>
    <circle cx="3222" cy="-2410" r="20" fill="black"><title>Imp [345]</title></circle>
    <circle cx="3222" cy="-2346" r="20" fill="black"><title>Imp [345]</title></circle>
    <circle cx="3254" cy="-2442" r="20" fill="black"><title>Imp [45]</title></circle>
    <circle cx="3254" cy="-2378" r="20" fill="black"><title>Imp [45]</title></circle>
    <circle cx="3254" cy="-2314" r="20" fill="black"><title>Imp [45]</title></circle>
    <circle cx="2710" cy="-2026" r="30" fill="black"><title>Demon [12345D]</title></circle>
    <rect x="4246" y="-3370" width="20" height="20" stroke="black" fill="red"><title>Chaingun [12345]</title></rect>
    <rect x="4598" y="-3674" stroke="black" width="20" height="20" fill="aqua"><title>4 shotgun shells [12345D]</title></rect>
    <rect x="4566" y="-3642" stroke="black" width="20" height="20" fill="aqua"><title>4 shotgun shells [12345D]</title></rect>
    <rect x="4550" y="-3018" stroke="black" width="20" height="20" fill="aqua"><title>Box of bullets [12345D]</title></rect>
    <rect x="3222" y="-2442" stroke="black" width="20" height="20" fill="green"><title>Armor bonus [12345]</title></rect>
    <rect x="3190" y="-2410" stroke="black" width="20" height="20" fill="green"><title>Armor bonus [12345]</title></rect>
    <rect x="3254" y="-2410" stroke="black" width="20" height="20" fill="green"><title>Armor bonus [12345]</title></rect>
    <rect x="3222" y="-2378" stroke="black" width="20" height="20" fill="green"><title>Armor bonus [12345]</title></rect>
    <rect x="3190" y="-2346" stroke="black" width="20" height="20" fill="green"><title>Armor bonus [12345]</title></rect>
    <rect x="3254" y="-2346" stroke="black" width="20" height="20" fill="green"><title>Armor bonus [12345]</title></rect>
    <rect x="3222" y="-2314" stroke="black" width="20" height="20" fill="green"><title>Armor bonus [12345]</title></rect>
    <circle cx="2550" cy="-2218" r="30" fill="black"><title>Demon [12345]</title></circle>
    <circle cx="2870" cy="-2218" r="30" fill="black"><title>Demon [345]</title></circle>
    <circle cx="2726" cy="-2218" r="30" fill="black"><title>Demon [45]</title></circle>
  </g>
</svg>
